{"glyphs":{"0":{"ha":666,"x_min":73,"x_max":593,"o":"m 333 -14 q 134 49 195 -14 q 73 255 73 113 l 73 696 q 134 903 73 839 q 333 966 195 966 q 532 903 471 966 q 593 696 593 840 l 593 256 q 532 49 593 113 q 333 -14 471 -14 l 333 -14 m 334 117 q 401 149 388 117 q 415 307 415 182 l 415 689 q 398 807 415 777 q 334 837 382 837 q 271 806 288 837 q 254 689 254 774 l 254 307 q 269 151 254 185 q 334 117 283 117 l 334 117 z "},"1":{"ha":666,"x_min":151,"x_max":465,"o":"m 285 0 l 285 747 l 285 747 l 260 720 q 151 646 222 682 l 151 800 q 238 864 206 832 q 303 952 270 896 l 465 952 l 465 952 l 465 0 l 465 0 l 375 0 l 285 0 l 285 0 z "},"2":{"ha":666,"x_min":85,"x_max":595,"o":"m 591 732 q 508 463 591 597 q 241 132 435 344 l 241 132 l 595 132 l 595 0 l 85 0 l 85 81 l 85 161 q 334 507 258 370 q 411 740 411 642 q 394 810 411 788 q 340 833 377 833 q 282 803 300 833 q 271 713 264 773 l 271 685 l 95 685 l 95 713 q 143 899 81 838 q 342 961 205 961 q 532 907 474 961 q 591 732 591 854 z "},"3":{"ha":666,"x_min":79,"x_max":584,"o":"m 408 731 q 392 814 408 791 q 336 838 376 838 q 281 818 299 838 q 264 755 264 797 l 264 726 l 89 726 l 89 755 q 143 917 85 867 q 336 966 201 966 q 526 916 467 966 q 584 749 584 865 l 584 730 q 532 536 584 588 q 477 505 511 517 l 477 505 q 527 477 508 493 q 584 311 584 429 l 584 231 q 525 43 584 101 q 331 -14 465 -14 q 135 41 193 -14 q 79 227 77 97 l 79 256 l 254 256 l 254 227 q 270 142 253 170 q 320 114 286 114 q 388 143 369 114 q 408 245 408 172 l 408 326 q 384 408 408 379 q 315 437 359 437 l 240 437 l 240 564 l 295 564 q 383 591 358 564 q 408 688 408 618 l 408 731 z "},"4":{"ha":666,"x_min":44,"x_max":642,"o":"m 360 205 l 44 205 l 44 300 l 44 395 l 284 957 l 412 957 l 541 957 l 541 337 l 541 337 l 642 337 l 642 205 l 541 205 l 541 205 l 541 0 l 360 0 l 360 205 l 360 205 m 360 337 l 360 337 l 360 789 l 360 789 l 360 789 l 192 395 l 167 337 l 167 337 l 360 337 z "},"5":{"ha":666,"x_min":83,"x_max":598,"o":"m 598 280 q 537 55 598 124 q 340 -14 477 -14 q 141 37 200 -14 q 83 210 81 89 l 83 238 l 262 238 l 262 210 q 281 138 262 161 q 339 114 300 114 q 406 148 389 114 q 422 288 422 182 l 422 353 q 408 474 422 445 q 350 504 394 504 q 292 473 311 504 q 271 374 273 443 l 90 374 l 98 957 l 98 957 l 573 957 l 573 822 l 263 822 l 263 822 l 263 574 l 263 574 l 281 589 q 418 633 335 633 q 557 576 517 633 q 598 377 598 518 l 598 280 z "},"6":{"ha":666,"x_min":79,"x_max":591,"o":"m 351 966 q 532 912 475 966 q 587 740 589 858 l 587 720 l 408 720 l 408 740 q 394 813 411 789 q 341 838 377 838 q 275 813 292 838 q 258 718 258 788 l 258 622 l 259 582 l 259 582 q 412 631 326 631 q 549 571 507 631 q 591 376 591 511 l 591 279 q 531 55 591 123 q 335 -14 471 -14 q 134 51 189 -14 q 79 287 79 115 l 79 680 q 140 902 79 838 q 351 966 201 966 m 258 254 q 276 148 258 178 q 336 117 293 117 q 396 146 380 117 q 413 254 413 176 l 413 389 q 396 479 413 454 q 336 503 380 503 q 276 477 294 503 q 258 389 258 451 l 258 254 z "},"7":{"ha":666,"x_min":73,"x_max":578,"o":"m 149 0 l 408 810 l 412 822 l 412 822 l 73 822 l 73 957 l 578 957 l 578 884 l 578 810 l 340 0 l 149 0 z "},"8":{"ha":666,"x_min":76,"x_max":593,"o":"m 334 -14 q 137 43 197 -14 q 76 229 76 100 l 76 286 q 136 461 76 414 q 223 496 165 485 l 223 496 q 147 530 178 510 q 79 688 79 578 l 79 741 q 139 913 79 861 q 334 966 199 966 q 530 912 470 966 q 591 736 591 858 l 591 692 q 530 532 591 581 q 460 497 503 509 l 460 497 q 538 456 509 484 q 593 286 593 404 l 593 229 q 532 43 593 100 q 334 -14 471 -14 l 334 -14 m 334 560 q 397 588 382 560 q 412 703 412 616 l 412 713 q 397 815 412 790 q 334 840 382 840 q 273 814 289 840 q 257 718 257 789 l 257 699 q 272 587 257 614 q 334 560 287 560 m 334 430 q 271 406 287 430 q 254 311 254 381 l 254 254 q 268 140 254 163 q 334 117 281 117 q 401 140 388 117 q 415 254 415 163 l 415 311 q 401 410 415 389 q 334 430 388 430 z "},"9":{"ha":666,"x_min":77,"x_max":589,"o":"m 318 -14 q 131 39 181 -14 q 82 233 80 92 l 82 252 l 260 252 l 260 233 q 271 139 257 164 q 328 115 286 115 q 393 139 376 115 q 410 235 410 164 l 410 330 l 410 406 l 410 406 q 257 359 343 359 q 120 415 162 359 q 77 600 77 472 l 77 690 q 138 902 77 837 q 334 966 198 966 q 532 909 474 966 q 589 713 589 852 l 589 234 q 524 45 589 105 q 318 -14 459 -14 m 410 715 q 392 807 410 778 q 335 836 374 836 q 278 808 295 836 q 260 715 260 780 l 260 587 q 278 510 260 533 q 335 487 295 487 q 391 512 373 487 q 410 587 410 536 l 410 715 z "}," ":{"ha":307,"x_min":0,"x_max":0,"o":""},"!":{"ha":410,"x_min":123,"x_max":300,"o":"m 144 265 l 125 957 l 299 957 l 280 265 l 144 265 m 123 176 l 300 176 l 300 0 l 123 0 l 123 176 z "},"\"":{"ha":564,"x_min":64,"x_max":500,"o":"m 92 641 l 64 957 l 240 957 l 214 641 l 92 641 m 351 641 l 324 957 l 500 957 l 474 641 l 351 641 z "},"#":{"ha":666,"x_min":-18,"x_max":683,"o":"m 667 966 l 374 -44 l 247 -44 l 540 966 l 667 966 m 418 966 l 125 -44 l -3 -44 l 290 966 l 418 966 m 115 715 l 683 715 l 650 601 l 82 601 l 115 715 m 15 369 l 583 369 l 549 254 l -18 254 l 15 369 z "},"$":{"ha":666,"x_min":101,"x_max":578,"o":"m 391 612 l 391 641 q 378 699 392 680 q 337 718 365 718 q 298 704 311 718 q 285 660 285 689 q 307 601 285 623 q 399 549 330 580 q 538 460 498 507 q 578 340 578 413 q 519 187 578 238 q 340 136 459 136 q 154 181 209 136 q 101 328 101 225 l 101 335 l 101 363 l 279 363 l 279 335 q 294 267 279 290 q 340 245 309 245 q 387 264 371 245 q 402 321 402 283 q 378 387 402 363 q 280 442 355 410 q 144 532 184 484 q 106 655 106 579 q 170 781 106 733 q 337 829 233 829 q 519 786 466 829 q 569 652 569 746 l 569 641 l 569 612 l 391 612 m 416 245 l 416 -37 l 264 -37 l 264 245 l 416 245 m 264 718 l 264 982 l 416 982 l 416 718 l 264 718 z "},"%":{"ha":922,"x_min":51,"x_max":872,"o":"m 212 452 q 85 491 119 452 q 51 637 51 530 l 51 820 q 89 938 51 902 q 212 975 126 975 l 212 975 q 335 938 297 975 q 372 820 372 902 l 372 637 q 338 491 372 530 q 212 452 304 452 l 212 452 m 212 892 q 174 876 184 892 q 164 814 164 859 l 164 631 q 173 551 164 570 q 212 532 182 532 l 212 532 q 250 551 241 532 q 259 631 259 570 l 259 814 q 250 878 259 863 q 212 892 241 892 l 212 892 m 187 -47 l 637 985 l 736 985 l 286 -47 l 187 -47 m 711 -9 q 585 30 618 -9 q 551 176 551 68 l 551 358 q 588 476 551 440 q 711 513 626 513 l 711 513 q 834 476 797 513 q 872 358 872 440 l 872 176 q 838 30 872 68 q 711 -9 804 -9 l 711 -9 m 711 431 q 674 414 684 431 q 664 352 664 397 l 664 170 q 673 89 664 108 q 711 70 682 70 l 711 70 q 750 89 741 70 q 759 170 759 108 l 759 352 q 750 416 759 401 q 711 431 741 431 l 711 431 z "},"&":{"ha":871,"x_min":58,"x_max":842,"o":"m 125 737 q 191 905 125 843 q 370 966 257 966 q 548 912 480 966 q 615 768 615 857 q 554 616 615 687 q 435 521 510 567 l 614 292 q 622 327 619 309 q 632 530 634 396 l 632 530 l 704 530 l 776 530 l 776 530 q 762 290 785 391 q 712 167 745 220 l 842 0 l 842 0 l 746 0 l 650 0 l 650 0 l 602 58 q 537 22 572 38 q 364 -14 458 -14 q 142 61 227 -14 q 58 260 58 136 q 105 425 58 362 q 225 530 140 471 q 163 624 186 582 q 125 737 125 692 m 391 109 q 490 132 449 109 l 524 156 l 309 423 q 261 381 279 402 q 225 272 225 338 q 271 153 225 199 q 391 109 316 109 m 292 757 q 315 686 292 726 q 357 622 330 661 q 408 663 388 642 q 448 753 448 705 q 427 819 448 794 q 370 844 406 844 q 313 821 334 844 q 292 757 292 797 z "},"'":{"ha":307,"x_min":64,"x_max":240,"o":"m 92 641 l 64 957 l 240 957 l 214 641 l 92 641 z "},"(":{"ha":307,"x_min":63,"x_max":291,"o":"m 63 422 q 92 691 63 545 q 170 951 121 836 l 291 951 q 229 713 252 859 q 205 422 205 568 q 229 113 205 266 q 291 -132 253 -39 l 170 -132 q 92 137 121 -16 q 63 422 63 289 z "},")":{"ha":307,"x_min":31,"x_max":260,"o":"m 260 397 q 230 130 260 275 q 153 -132 201 -16 l 31 -132 q 94 107 70 -38 q 117 397 117 253 q 94 706 117 553 q 31 951 70 859 l 153 951 q 231 682 201 835 q 260 397 260 530 z "},"*":{"ha":666,"x_min":118,"x_max":548,"o":"m 488 916 l 399 793 l 399 793 l 548 811 l 548 700 l 399 718 l 399 718 l 490 600 l 394 543 l 333 682 l 333 682 l 275 542 l 178 597 l 267 719 l 267 719 l 118 701 l 118 812 l 267 794 l 267 794 l 176 913 l 272 970 l 333 831 l 333 831 l 391 970 l 488 916 z "},"+":{"ha":922,"x_min":144,"x_max":775,"o":"m 409 303 l 144 303 l 144 405 l 409 405 l 409 669 l 511 669 l 511 405 l 775 405 l 775 303 l 511 303 l 511 39 l 409 39 l 409 303 z "},",":{"ha":307,"x_min":48,"x_max":259,"o":"m 48 -128 l 86 182 l 259 182 l 169 -128 l 48 -128 z "},"-":{"ha":307,"x_min":55,"x_max":256,"o":"m 55 406 l 256 406 l 256 276 l 55 276 l 55 406 z "},".":{"ha":307,"x_min":70,"x_max":246,"o":"m 70 176 l 246 176 l 246 0 l 70 0 l 70 176 z "},"/":{"ha":307,"x_min":40,"x_max":281,"o":"m 281 957 l 164 -124 l 40 -124 l 157 957 l 281 957 z "},":":{"ha":307,"x_min":70,"x_max":246,"o":"m 70 176 l 246 176 l 246 0 l 70 0 l 70 176 m 70 649 l 246 649 l 246 473 l 70 473 l 70 649 z "},";":{"ha":307,"x_min":48,"x_max":259,"o":"m 48 -128 l 86 182 l 259 182 l 169 -128 l 48 -128 m 83 649 l 259 649 l 259 473 l 83 473 l 83 649 z "},"<":{"ha":1383,"x_min":278,"x_max":1109,"o":"m 278 375 l 278 426 l 278 477 l 1109 847 l 1109 717 l 454 426 l 454 426 l 1109 130 l 1109 0 l 278 375 z "},"=":{"ha":922,"x_min":146,"x_max":774,"o":"m 146 296 l 774 296 l 774 194 l 146 194 l 146 296 m 146 515 l 774 515 l 774 413 l 146 413 l 146 515 z "},">":{"ha":1383,"x_min":278,"x_max":1109,"o":"m 1109 375 l 278 0 l 278 130 l 933 426 l 933 426 l 278 717 l 278 847 l 1109 477 l 1109 426 l 1109 375 z "},"?":{"ha":614,"x_min":68,"x_max":530,"o":"m 299 850 q 257 827 271 850 q 243 755 243 803 l 243 727 l 68 727 l 68 755 q 122 917 64 863 q 299 971 180 971 q 473 919 415 971 q 530 763 530 867 q 510 642 530 695 q 417 471 489 589 q 374 380 382 413 q 366 261 366 348 l 223 261 q 231 433 223 394 q 283 551 239 472 q 347 679 335 646 q 358 763 358 711 q 345 831 358 812 q 299 850 332 850 m 206 176 l 382 176 l 382 0 l 206 0 l 206 176 z "},"@":{"ha":922,"x_min":43,"x_max":878,"o":"m 694 206 q 724 224 715 206 q 732 284 732 242 l 732 583 q 670 788 732 727 q 461 850 608 850 q 252 772 314 850 q 189 514 189 695 l 189 286 q 250 26 189 104 q 454 -51 311 -51 q 569 -41 509 -51 q 661 -18 629 -32 l 661 -149 q 572 -165 639 -159 q 433 -172 506 -172 q 132 -67 222 -172 q 43 286 43 38 l 43 514 q 140 866 44 761 q 461 971 236 971 q 783 882 687 971 q 878 583 879 793 l 878 284 q 836 135 878 180 q 695 91 794 91 q 550 176 589 91 l 550 176 q 536 151 544 161 q 416 91 496 91 q 296 144 336 91 q 256 304 256 197 l 256 505 q 291 640 256 595 q 394 684 325 684 q 511 632 471 684 l 511 632 l 511 670 l 511 670 l 665 670 l 665 256 q 672 218 665 229 q 694 206 679 206 m 458 568 q 416 548 429 568 q 404 481 404 528 l 404 321 q 414 234 404 255 q 457 213 425 213 q 499 239 487 213 q 511 330 511 266 l 511 451 q 499 543 511 517 q 458 568 488 568 z "},"A":{"ha":768,"x_min":56,"x_max":719,"o":"m 56 0 l 273 957 l 387 957 l 503 957 l 719 0 l 719 0 l 625 0 l 530 0 l 530 0 l 492 207 l 492 207 l 283 207 l 283 207 l 245 0 l 245 0 l 151 0 l 56 0 l 56 0 m 389 778 l 310 349 l 310 349 l 467 349 l 467 349 l 389 778 l 389 778 l 389 778 z "},"B":{"ha":743,"x_min":90,"x_max":676,"o":"m 90 0 l 90 957 l 90 957 l 188 957 l 188 957 l 380 957 q 604 905 545 957 q 664 709 664 852 l 664 728 q 600 531 664 582 q 478 489 561 500 l 478 489 q 609 445 566 477 q 676 253 676 394 l 676 273 q 612 56 676 112 q 363 0 548 0 l 188 0 l 188 0 l 90 0 l 90 0 m 286 813 l 286 559 l 286 559 l 326 559 q 441 588 412 559 q 470 703 470 617 l 470 684 q 442 786 470 759 q 336 813 414 813 l 286 813 l 286 813 m 286 416 l 286 144 l 286 144 l 348 144 q 454 174 427 144 q 480 297 480 205 l 480 277 q 453 389 480 363 q 338 416 427 416 l 286 416 l 286 416 z "},"C":{"ha":717,"x_min":79,"x_max":662,"o":"m 662 326 l 662 297 q 600 57 665 129 q 379 -14 534 -14 q 147 63 214 -14 q 79 330 79 141 l 79 625 q 147 893 79 816 q 379 971 214 971 q 591 899 522 971 q 656 697 656 831 l 656 679 l 656 650 l 461 650 l 461 679 q 442 790 463 753 q 379 827 421 827 q 300 785 324 827 q 275 647 275 743 l 275 352 q 298 178 275 227 q 379 130 321 130 q 447 171 425 130 q 467 297 469 213 l 467 326 l 662 326 z "},"D":{"ha":768,"x_min":96,"x_max":695,"o":"m 96 0 l 96 957 l 96 957 l 193 957 l 193 957 l 353 957 q 616 884 538 957 q 695 640 695 811 l 695 372 q 626 78 696 157 q 364 0 557 0 l 193 0 l 193 0 l 96 0 l 96 0 m 292 144 l 292 144 l 343 144 q 467 181 435 144 q 499 327 499 219 l 499 643 q 464 777 499 740 q 333 813 428 813 l 292 813 l 292 813 l 292 144 z "},"E":{"ha":640,"x_min":94,"x_max":577,"o":"m 94 0 l 94 0 l 94 957 l 94 957 l 572 957 l 572 957 l 572 886 l 572 814 l 572 814 l 290 814 l 290 814 l 290 562 l 290 562 l 562 562 l 562 490 l 562 419 l 562 419 l 290 419 l 290 419 l 290 142 l 290 142 l 577 142 l 577 142 l 577 71 l 577 0 l 577 0 l 94 0 z "},"F":{"ha":614,"x_min":92,"x_max":551,"o":"m 92 0 l 92 957 l 92 957 l 551 957 l 551 957 l 551 886 l 551 814 l 551 814 l 288 814 l 288 814 l 288 554 l 288 554 l 536 554 l 536 483 l 536 412 l 536 412 l 288 412 l 288 412 l 288 0 l 191 0 l 92 0 z "},"G":{"ha":768,"x_min":86,"x_max":684,"o":"m 382 -14 q 152 72 217 -14 q 86 375 87 157 l 86 602 q 161 884 87 798 q 401 971 235 971 q 618 901 547 971 q 684 689 688 830 l 684 661 l 489 661 l 489 689 q 466 793 490 758 q 390 827 441 827 q 306 780 330 827 q 282 612 282 733 l 282 386 q 305 179 282 229 q 398 130 328 130 q 488 144 426 130 l 488 144 l 488 365 l 488 365 l 397 365 l 397 507 l 684 507 l 684 24 l 684 24 q 382 -14 528 -14 l 382 -14 z "},"H":{"ha":768,"x_min":96,"x_max":675,"o":"m 96 0 l 96 957 l 96 957 l 194 957 l 292 957 l 292 957 l 292 562 l 292 562 l 479 562 l 479 562 l 479 957 l 479 957 l 576 957 l 675 957 l 675 957 l 675 0 l 675 0 l 577 0 l 479 0 l 479 0 l 479 419 l 479 419 l 292 419 l 292 419 l 292 0 l 292 0 l 195 0 l 96 0 l 96 0 z "},"I":{"ha":359,"x_min":85,"x_max":281,"o":"m 85 0 l 85 957 l 85 957 l 182 957 l 281 957 l 281 957 l 281 0 l 281 0 l 183 0 l 85 0 l 85 0 z "},"J":{"ha":666,"x_min":44,"x_max":574,"o":"m 382 957 l 382 957 l 478 957 l 574 957 l 574 957 l 574 229 q 509 45 574 105 q 309 -14 444 -14 q 102 54 163 -14 q 44 283 41 122 l 44 311 l 239 311 l 239 283 q 254 164 238 198 q 310 131 269 131 q 364 156 346 131 q 382 229 382 180 l 382 229 l 382 957 z "},"K":{"ha":743,"x_min":98,"x_max":716,"o":"m 294 0 l 294 0 l 197 0 l 98 0 l 98 0 l 98 957 l 98 957 l 196 957 l 294 957 l 294 957 l 294 517 l 294 517 l 505 957 l 505 957 l 608 957 l 713 957 l 713 957 l 505 536 l 505 536 l 716 0 l 716 0 l 610 0 l 503 0 l 503 0 l 294 517 l 294 517 l 294 0 z "},"L":{"ha":589,"x_min":97,"x_max":542,"o":"m 97 0 l 97 0 l 97 957 l 97 957 l 195 957 l 293 957 l 293 957 l 293 142 l 293 142 l 542 142 l 542 142 l 542 71 l 542 0 l 542 0 l 97 0 z "},"M":{"ha":1025,"x_min":83,"x_max":936,"o":"m 244 0 l 244 0 l 164 0 l 83 0 l 83 0 l 83 957 l 83 957 l 220 957 l 358 957 l 358 957 l 511 224 l 511 224 l 511 224 l 663 957 l 663 957 l 799 957 l 936 957 l 936 957 l 936 0 l 936 0 l 856 0 l 775 0 l 775 0 l 775 804 l 775 804 l 608 0 l 510 0 l 412 0 l 244 807 l 244 807 l 244 0 z "},"N":{"ha":794,"x_min":96,"x_max":711,"o":"m 257 0 l 257 0 l 177 0 l 96 0 l 96 0 l 96 957 l 96 957 l 240 957 l 385 957 l 385 957 l 550 149 l 550 149 l 550 149 l 550 957 l 550 957 l 630 957 l 711 957 l 711 957 l 711 0 l 568 0 l 424 0 l 257 814 l 257 814 l 257 814 l 257 0 z "},"O":{"ha":768,"x_min":87,"x_max":684,"o":"m 385 -14 q 155 59 222 -14 q 87 311 87 132 l 87 705 q 162 905 87 838 q 385 971 236 971 q 609 905 534 971 q 684 705 684 838 l 684 311 q 616 59 684 132 q 385 -14 549 -14 l 385 -14 m 385 130 q 465 168 443 130 q 488 302 488 205 l 488 696 q 461 794 488 761 q 385 827 435 827 q 309 794 335 827 q 283 696 283 761 l 283 302 q 306 168 283 205 q 385 130 328 130 l 385 130 z "},"P":{"ha":717,"x_min":87,"x_max":666,"o":"m 87 0 l 87 957 l 87 957 l 184 957 l 184 957 l 377 957 q 600 892 533 957 q 666 674 666 827 q 599 441 666 501 q 338 381 532 381 l 283 381 l 283 381 l 283 0 l 283 0 l 185 0 l 87 0 l 87 0 m 283 525 l 283 525 l 338 525 q 444 554 417 525 q 470 671 470 583 q 443 783 470 753 q 338 813 415 813 l 283 813 l 283 813 l 283 525 z "},"Q":{"ha":794,"x_min":94,"x_max":746,"o":"m 391 971 q 620 895 549 971 q 690 646 690 818 l 690 370 q 600 121 690 208 l 600 121 l 746 130 l 746 0 l 587 0 l 391 -14 l 391 -14 q 154 60 213 -14 q 94 355 94 134 l 94 621 q 161 892 94 814 q 391 971 228 971 l 391 971 m 397 827 q 313 781 337 827 q 290 618 290 735 l 290 352 q 312 178 290 227 q 391 130 334 130 q 471 180 449 130 q 494 361 494 231 l 494 637 q 471 785 494 743 q 391 827 449 827 l 391 827 l 397 827 z "},"R":{"ha":717,"x_min":83,"x_max":667,"o":"m 83 0 l 83 957 l 83 957 l 181 957 l 181 957 l 371 957 q 591 900 525 957 q 656 709 656 843 q 590 504 656 557 q 488 463 557 477 l 488 463 l 498 463 q 620 410 578 463 q 656 260 661 357 q 654 144 654 204 q 659 49 656 81 q 667 1 661 17 l 569 1 l 471 1 q 465 48 467 16 q 463 144 463 80 l 463 260 q 435 361 464 332 q 336 391 407 391 l 279 391 l 279 391 l 279 0 l 279 0 l 182 0 l 83 0 l 83 0 m 279 537 l 279 537 l 334 537 q 435 565 410 537 q 460 677 460 593 q 434 785 460 756 q 334 813 407 813 l 279 813 l 279 813 l 279 537 z "},"S":{"ha":743,"x_min":71,"x_max":671,"o":"m 467 661 l 467 689 q 448 796 468 765 q 376 827 427 827 q 301 799 326 827 q 276 712 276 770 q 306 635 276 667 q 409 569 335 604 q 613 434 555 500 q 671 273 671 368 q 596 57 671 129 q 371 -14 522 -14 q 139 50 207 -14 q 71 259 71 114 l 71 268 l 71 296 l 264 296 l 264 268 q 289 164 262 199 q 371 130 316 130 q 451 161 425 130 q 477 255 477 192 q 445 336 477 302 q 333 408 413 370 q 138 537 193 473 q 82 694 82 600 q 157 902 82 833 q 382 971 232 971 q 601 907 537 971 q 660 710 661 846 l 660 689 l 660 661 l 467 661 z "},"T":{"ha":692,"x_min":43,"x_max":650,"o":"m 249 0 l 249 814 l 249 814 l 43 814 l 43 814 l 43 886 l 43 957 l 43 957 l 650 957 l 650 957 l 650 886 l 650 814 l 650 814 l 445 814 l 445 814 l 445 0 l 445 0 l 347 0 l 249 0 l 249 0 z "},"U":{"ha":768,"x_min":90,"x_max":678,"o":"m 678 269 q 605 56 678 127 q 384 -14 531 -14 q 163 56 237 -14 q 90 269 90 127 l 90 957 l 90 957 l 186 957 l 283 957 l 283 957 l 283 256 q 306 156 283 184 q 384 128 328 128 q 462 156 440 128 q 484 256 484 184 l 484 957 l 484 957 l 581 957 l 678 957 l 678 957 l 678 269 z "},"V":{"ha":717,"x_min":38,"x_max":681,"o":"m 38 957 l 38 957 l 135 957 l 233 957 l 233 957 l 366 215 l 366 215 l 366 215 l 494 957 l 494 957 l 587 957 l 681 957 l 681 957 l 475 0 l 360 0 l 245 0 l 38 957 z "},"W":{"ha":1076,"x_min":36,"x_max":1039,"o":"m 198 0 l 36 957 l 36 957 l 123 957 l 210 957 l 210 957 l 315 230 l 315 230 l 315 230 l 437 957 l 536 957 l 636 957 l 770 218 l 770 218 l 770 218 l 874 957 l 874 957 l 956 957 l 1039 957 l 1039 957 l 880 0 l 768 0 l 657 0 l 532 680 l 532 680 l 532 680 l 420 0 l 309 0 l 198 0 z "},"X":{"ha":768,"x_min":47,"x_max":718,"o":"m 47 0 l 269 497 l 269 497 l 67 957 l 67 957 l 168 957 l 268 957 l 268 957 l 394 641 l 394 641 l 394 641 l 521 957 l 521 957 l 614 957 l 708 957 l 708 957 l 501 488 l 501 488 l 718 0 l 718 0 l 623 0 l 528 0 l 528 0 l 385 336 l 385 336 l 385 336 l 236 0 l 236 0 l 142 0 l 47 0 l 47 0 z "},"Y":{"ha":717,"x_min":36,"x_max":678,"o":"m 260 357 l 260 357 l 36 957 l 36 957 l 140 957 l 245 957 l 245 957 l 358 576 l 358 576 l 482 957 l 482 957 l 580 957 l 678 957 l 678 957 l 456 365 l 456 365 l 456 0 l 358 0 l 260 0 l 260 357 z "},"Z":{"ha":640,"x_min":46,"x_max":594,"o":"m 46 184 l 380 773 l 404 814 l 404 814 l 61 814 l 61 814 l 61 886 l 61 957 l 61 957 l 594 957 l 594 865 l 594 773 l 260 184 l 236 142 l 236 142 l 591 142 l 591 142 l 591 71 l 591 0 l 591 0 l 46 0 l 46 92 l 46 184 z "},"[":{"ha":307,"x_min":63,"x_max":267,"o":"m 63 -132 l 63 951 l 63 951 l 267 951 l 267 860 l 199 860 l 199 860 l 199 -36 l 199 -36 l 267 -36 l 267 -132 l 63 -132 l 63 -132 z "},"\\":{"ha":307,"x_min":41,"x_max":281,"o":"m 157 -124 l 41 957 l 165 957 l 281 -124 l 157 -124 z "},"]":{"ha":307,"x_min":45,"x_max":250,"o":"m 250 -132 l 250 -132 l 45 -132 l 45 -36 l 114 -36 l 114 -36 l 114 860 l 114 860 l 45 860 l 45 951 l 250 951 l 250 951 l 250 -132 z "},"^":{"ha":692,"x_min":67,"x_max":627,"o":"m 382 1042 q 480 871 429 935 q 627 737 532 806 l 627 673 q 377 822 469 745 l 346 850 l 346 850 l 316 823 q 67 673 224 745 l 67 737 q 212 870 161 806 q 311 1042 264 935 l 347 1042 l 382 1042 z "},"_":{"ha":692,"x_min":0,"x_max":692,"o":"m 0 -347 l 0 -276 l 692 -276 l 692 -347 l 0 -347 z "},"`":{"ha":666,"x_min":184,"x_max":458,"o":"m 309 748 l 184 963 l 385 963 l 458 748 l 309 748 z "},"a":{"ha":614,"x_min":53,"x_max":542,"o":"m 215 -14 q 96 33 139 -14 q 53 162 53 79 l 53 203 q 111 370 53 321 q 313 418 170 418 l 366 418 l 366 418 l 366 500 q 352 556 366 537 q 311 575 338 575 q 260 555 276 575 q 245 494 243 534 l 245 474 l 70 474 l 70 494 q 125 635 68 591 q 306 680 182 680 q 484 630 426 680 q 542 476 542 581 l 542 0 l 542 0 l 542 0 l 372 0 l 372 0 l 372 55 l 372 55 l 364 46 q 215 -14 315 -14 m 366 223 l 366 315 l 366 315 l 343 315 q 255 288 281 315 q 229 197 229 262 l 229 156 q 245 107 229 125 q 290 90 262 90 q 347 123 328 90 q 366 223 366 157 l 366 223 z "},"b":{"ha":614,"x_min":64,"x_max":553,"o":"m 64 957 l 64 957 l 152 957 l 240 957 l 240 957 l 240 609 l 240 609 l 243 612 q 394 680 293 680 q 514 628 474 680 q 553 471 553 576 l 553 235 q 516 42 553 98 q 387 -14 479 -14 q 235 51 288 -14 l 235 51 l 235 0 l 235 0 l 64 0 l 64 0 l 64 957 m 310 105 q 367 136 353 105 q 381 263 381 167 l 381 430 q 366 532 381 503 q 311 561 350 561 q 257 526 273 561 q 240 410 240 490 l 240 410 l 240 256 l 240 256 q 255 134 241 164 q 310 105 269 105 z "},"c":{"ha":564,"x_min":55,"x_max":515,"o":"m 515 250 l 515 210 q 459 42 517 98 q 285 -14 401 -14 q 109 45 163 -14 q 55 239 55 105 l 55 427 q 109 621 55 561 q 285 680 163 680 q 461 624 406 680 q 515 454 515 570 l 515 446 l 515 426 l 340 426 l 340 446 q 330 534 343 505 q 287 563 317 563 q 242 536 254 563 q 229 440 229 510 l 229 253 q 240 132 229 161 q 285 103 251 103 q 330 128 317 103 q 340 210 343 153 l 340 250 l 515 250 z "},"d":{"ha":614,"x_min":65,"x_max":554,"o":"m 235 -14 q 105 41 144 -14 q 65 222 65 97 l 65 458 q 107 625 65 569 q 235 680 150 680 q 378 617 309 681 l 378 617 l 378 957 l 378 957 l 466 957 l 554 957 l 554 957 l 554 0 l 554 0 l 472 0 l 390 0 l 390 0 l 390 73 l 390 73 l 382 61 q 235 -14 333 -14 m 310 561 q 256 533 270 561 q 241 430 241 506 l 241 235 q 257 135 241 165 q 309 105 273 105 q 365 141 351 105 q 378 288 378 176 l 378 378 q 365 525 378 490 q 310 561 352 561 z "},"e":{"ha":589,"x_min":53,"x_max":544,"o":"m 283 -14 q 107 47 161 -14 q 53 246 53 108 l 53 378 q 108 612 53 544 q 298 680 163 680 q 492 621 441 680 q 544 399 544 562 l 544 302 l 544 302 l 227 302 l 227 302 l 227 281 q 241 128 227 165 q 298 91 255 91 q 356 118 340 91 q 370 207 372 144 l 370 227 l 544 227 l 544 207 q 481 41 546 96 q 283 -14 416 -14 m 370 404 l 370 404 l 370 441 q 355 547 370 519 q 298 575 340 575 q 242 541 257 575 q 227 413 227 507 l 227 404 l 227 404 l 370 404 z "},"f":{"ha":435,"x_min":33,"x_max":401,"o":"m 302 548 l 302 548 l 302 0 l 302 0 l 214 0 l 126 0 l 126 0 l 126 548 l 126 548 l 33 548 l 33 666 l 126 666 l 126 666 l 126 774 q 171 919 126 871 q 309 966 216 966 q 401 960 358 966 l 401 846 l 376 846 q 319 830 336 846 q 302 774 302 814 l 302 666 l 302 666 l 401 666 l 401 548 l 302 548 z "},"g":{"ha":614,"x_min":64,"x_max":553,"o":"m 302 -163 q 354 -137 339 -163 q 369 -50 369 -112 l 369 75 l 369 75 l 362 66 q 224 0 313 0 q 100 54 136 0 q 64 241 64 109 l 64 425 q 105 616 64 553 q 230 680 146 680 q 374 607 316 680 l 380 600 l 380 600 l 380 666 l 380 666 l 553 666 l 553 -50 q 491 -210 553 -157 q 308 -264 430 -264 q 123 -220 180 -264 q 68 -79 67 -177 l 68 -60 l 245 -60 l 245 -79 q 257 -141 243 -120 q 302 -163 272 -163 m 304 561 q 256 532 272 561 q 241 445 241 504 l 241 262 q 253 147 241 175 q 304 119 266 119 q 356 148 344 119 q 369 265 369 176 l 369 415 q 356 532 369 504 q 304 561 344 561 z "},"h":{"ha":640,"x_min":79,"x_max":568,"o":"m 79 0 l 79 957 l 79 957 l 166 957 l 254 957 l 254 957 l 254 608 l 254 608 l 254 608 q 416 680 313 680 q 526 631 484 680 q 568 503 568 583 l 568 0 l 568 0 l 480 0 l 392 0 l 392 0 l 392 484 q 377 543 392 525 q 330 562 363 562 q 270 525 288 562 q 254 408 252 488 l 254 408 l 254 0 l 254 0 l 167 0 l 79 0 l 79 0 z "},"i":{"ha":333,"x_min":80,"x_max":256,"o":"m 81 0 l 81 666 l 81 666 l 168 666 l 256 666 l 256 666 l 256 0 l 256 0 l 169 0 l 81 0 l 81 0 m 80 949 l 256 949 l 256 790 l 80 790 l 80 949 z "},"j":{"ha":333,"x_min":-6,"x_max":256,"o":"m 79 666 l 79 666 l 167 666 l 255 666 l 255 666 l 255 -83 q 203 -217 255 -170 q 56 -264 152 -264 q -6 -256 29 -264 l -6 -144 l -5 -144 q 62 -125 45 -144 q 79 -50 79 -106 l 79 -50 l 79 666 m 79 949 l 256 949 l 256 790 l 79 790 l 79 949 z "},"k":{"ha":614,"x_min":80,"x_max":578,"o":"m 256 957 l 256 0 l 256 0 l 168 0 l 80 0 l 80 0 l 80 957 l 80 957 l 168 957 l 256 957 l 256 957 m 397 0 l 256 363 l 256 363 l 389 666 l 389 666 l 484 666 l 578 666 l 578 666 l 436 374 l 436 374 l 578 0 l 578 0 l 488 0 l 397 0 l 397 0 z "},"l":{"ha":333,"x_min":81,"x_max":257,"o":"m 81 0 l 81 957 l 81 957 l 169 957 l 257 957 l 257 957 l 257 0 l 257 0 l 170 0 l 81 0 l 81 0 z "},"m":{"ha":922,"x_min":62,"x_max":868,"o":"m 62 0 l 62 666 l 62 666 l 144 666 l 227 666 l 227 666 l 227 602 l 227 602 l 227 602 q 380 680 279 680 q 510 634 467 680 q 537 591 527 616 l 537 591 q 552 614 544 605 q 699 680 603 680 q 826 631 783 680 q 868 481 868 581 l 868 0 l 868 0 l 781 0 l 692 0 l 692 0 l 692 468 q 676 537 692 513 q 630 562 660 562 q 573 533 592 562 q 553 448 553 505 l 553 448 l 553 0 l 553 0 l 466 0 l 378 0 l 378 0 l 378 467 q 361 537 378 512 q 315 562 345 562 q 252 527 269 562 q 237 408 235 492 l 237 408 l 237 0 l 237 0 l 150 0 l 62 0 l 62 0 z "},"n":{"ha":640,"x_min":78,"x_max":567,"o":"m 78 0 l 78 666 l 78 666 l 165 666 l 254 666 l 254 666 l 254 604 l 254 604 l 254 604 q 417 680 311 680 q 530 636 492 680 q 567 505 567 593 l 567 0 l 567 0 l 479 0 l 391 0 l 391 0 l 391 484 q 377 543 391 525 q 330 562 362 562 q 268 527 286 562 q 254 408 251 492 l 254 408 l 254 0 l 254 0 l 166 0 l 78 0 l 78 0 z "},"o":{"ha":614,"x_min":64,"x_max":553,"o":"m 309 -14 q 122 45 179 -14 q 64 239 64 105 l 64 427 q 122 621 64 561 q 309 680 179 680 q 496 621 438 680 q 553 427 553 561 l 553 239 q 496 45 553 105 q 309 -14 438 -14 l 309 -14 m 309 91 q 365 123 351 91 q 379 254 379 155 l 379 441 q 363 545 379 515 q 309 575 347 575 q 254 545 270 575 q 239 441 239 515 l 239 254 q 252 123 239 155 q 309 91 266 91 l 309 91 z "},"p":{"ha":614,"x_min":64,"x_max":553,"o":"m 64 666 l 64 666 l 152 666 l 240 666 l 240 666 l 240 609 l 240 609 l 243 612 q 394 680 293 680 q 514 628 474 680 q 553 471 553 576 l 553 235 q 517 42 553 98 q 390 -14 480 -14 q 240 50 292 -15 l 240 50 l 240 -263 l 240 -263 l 153 -263 l 64 -263 l 64 -263 l 64 666 m 310 105 q 367 136 353 105 q 381 263 381 167 l 381 430 q 366 532 381 503 q 311 561 350 561 q 257 526 273 561 q 240 410 240 490 l 240 410 l 240 256 l 240 256 q 255 135 241 164 q 310 105 269 105 z "},"q":{"ha":614,"x_min":64,"x_max":553,"o":"m 221 -14 q 101 41 138 -14 q 64 222 64 97 l 64 458 q 107 625 64 569 q 234 680 149 680 q 383 612 312 681 l 383 612 l 383 666 l 383 666 l 553 666 l 553 666 l 553 -263 l 553 -263 l 469 -263 l 383 -263 l 383 -263 l 383 68 l 383 68 l 378 61 q 221 -14 326 -14 m 309 561 q 256 531 271 561 q 241 430 241 502 l 241 235 q 256 135 241 165 q 309 105 272 105 q 364 141 351 105 q 378 288 378 176 l 378 378 q 365 525 378 490 q 309 561 351 561 z "},"r":{"ha":461,"x_min":81,"x_max":427,"o":"m 81 0 l 81 666 l 81 666 l 164 666 l 248 666 l 248 666 l 248 580 l 248 580 l 248 580 q 269 613 258 598 q 427 680 315 673 l 427 530 q 389 533 410 534 q 283 496 313 533 q 256 367 254 458 l 256 367 l 256 0 l 256 0 l 169 0 l 81 0 l 81 0 z "},"s":{"ha":564,"x_min":43,"x_max":523,"o":"m 336 466 l 336 486 q 325 553 338 530 q 281 575 311 575 q 236 559 251 575 q 222 509 222 543 q 242 457 222 479 q 313 414 262 436 q 481 315 439 359 q 523 192 523 271 q 463 37 523 89 q 283 -14 404 -14 q 98 36 155 -14 q 43 193 43 85 l 43 200 l 43 220 l 218 220 l 218 200 q 230 115 216 140 q 283 91 245 91 q 335 111 318 91 q 353 170 353 130 q 330 231 353 207 q 254 279 309 255 q 89 374 130 332 q 48 488 48 416 q 106 632 48 585 q 281 680 164 680 q 458 634 403 680 q 513 490 513 588 l 513 486 l 513 466 l 336 466 z "},"t":{"ha":435,"x_min":29,"x_max":408,"o":"m 408 -6 q 290 -14 356 -14 q 165 35 207 -14 q 123 183 123 85 l 123 548 l 123 548 l 29 548 l 29 666 l 123 666 l 123 666 l 123 772 l 298 845 l 298 666 l 298 666 l 408 666 l 408 548 l 298 548 l 298 548 l 298 183 q 309 120 298 135 q 353 105 319 105 q 408 109 382 106 l 408 -6 z "},"u":{"ha":640,"x_min":76,"x_max":567,"o":"m 252 666 l 252 199 q 267 127 252 149 q 315 104 281 104 q 377 139 359 104 q 391 258 394 174 l 391 258 l 391 666 l 391 666 l 479 666 l 567 666 l 567 666 l 567 0 l 567 0 l 485 0 l 402 0 l 402 0 l 402 66 l 402 66 l 402 66 q 241 -14 332 -14 q 117 34 158 -14 q 76 178 76 82 l 76 666 l 76 666 l 163 666 l 252 666 l 252 666 z "},"v":{"ha":614,"x_min":41,"x_max":581,"o":"m 41 666 l 41 666 l 130 666 l 220 666 l 220 666 l 313 172 l 313 172 l 313 172 l 406 666 l 406 666 l 493 666 l 581 666 l 581 666 l 425 0 l 311 0 l 197 0 l 41 666 z "},"w":{"ha":973,"x_min":22,"x_max":950,"o":"m 155 0 l 22 666 l 22 666 l 110 666 l 199 666 l 199 666 l 277 139 l 277 139 l 277 139 l 373 666 l 487 666 l 601 666 l 703 144 l 703 144 l 703 144 l 776 666 l 776 666 l 863 666 l 950 666 l 950 666 l 819 0 l 705 0 l 591 0 l 493 517 l 493 517 l 493 517 l 383 0 l 269 0 l 155 0 z "},"x":{"ha":614,"x_min":35,"x_max":578,"o":"m 35 0 l 207 344 l 207 344 l 52 666 l 52 666 l 139 666 l 227 666 l 227 666 l 314 467 l 314 467 l 314 467 l 409 666 l 409 666 l 494 666 l 578 666 l 578 666 l 408 349 l 408 349 l 578 0 l 578 0 l 496 0 l 412 0 l 412 0 l 312 215 l 312 215 l 312 215 l 206 0 l 206 0 l 121 0 l 35 0 l 35 0 z "},"y":{"ha":614,"x_min":37,"x_max":583,"o":"m 345 -248 l 345 -248 l 262 -248 l 178 -248 l 178 -248 l 236 -5 l 236 -5 l 37 666 l 37 666 l 124 666 l 212 666 l 212 666 l 311 256 l 311 256 l 311 256 l 414 666 l 414 666 l 498 666 l 583 666 l 583 666 l 345 -248 z "},"z":{"ha":512,"x_min":47,"x_max":469,"o":"m 47 154 l 283 528 l 297 549 l 297 549 l 67 549 l 67 549 l 67 608 l 67 666 l 67 666 l 465 666 l 465 597 l 465 528 l 241 154 l 218 117 l 218 117 l 469 117 l 469 117 l 469 58 l 469 0 l 469 0 l 47 0 l 47 77 l 47 154 z "},"{":{"ha":692,"x_min":109,"x_max":608,"o":"m 608 -321 q 350 -272 425 -330 q 275 -66 275 -214 l 275 113 q 235 245 275 199 q 109 304 195 291 l 109 433 q 233 495 191 446 q 275 625 275 543 l 275 804 q 345 1014 275 960 q 608 1059 414 1067 l 608 930 q 475 910 507 935 q 443 804 443 885 l 443 625 q 364 416 443 488 q 293 368 335 389 l 293 368 q 363 321 334 348 q 443 113 443 247 l 443 -66 q 478 -169 443 -142 q 608 -192 513 -196 l 608 -321 z "},"|":{"ha":692,"x_min":311,"x_max":382,"o":"m 311 -347 l 311 1042 l 382 1042 l 382 -347 l 311 -347 z "},"}":{"ha":692,"x_min":84,"x_max":582,"o":"m 84 -321 l 84 -192 q 214 -169 178 -196 q 249 -66 249 -142 l 249 113 q 329 321 249 247 q 399 368 358 349 l 399 368 q 328 416 356 389 q 249 625 249 488 l 249 804 q 217 910 249 885 q 84 930 184 935 l 84 1059 q 347 1014 277 1067 q 417 804 417 960 l 417 625 q 459 495 417 543 q 582 433 501 446 l 582 304 q 457 245 496 291 q 417 113 417 199 l 417 -66 q 342 -272 417 -214 q 84 -321 267 -330 z "},"~":{"ha":1383,"x_min":281,"x_max":1142,"o":"m 281 332 q 382 449 317 401 q 503 497 446 497 q 609 486 557 497 q 734 448 661 475 q 840 418 780 430 q 940 406 900 406 q 1043 430 991 406 q 1117 490 1095 454 l 1142 452 q 1054 328 1118 378 q 920 278 989 278 q 836 289 888 278 q 689 328 784 300 q 568 358 629 346 q 481 370 508 370 q 381 346 433 370 q 302 288 329 322 l 281 332 z "}," ":{"ha":307,"x_min":0,"x_max":0,"o":""},"¡":{"ha":410,"x_min":123,"x_max":300,"o":"m 279 401 l 298 -291 l 124 -291 l 143 401 l 279 401 m 300 490 l 123 490 l 123 666 l 300 666 l 300 490 z "},"¢":{"ha":666,"x_min":112,"x_max":574,"o":"m 574 397 l 574 358 q 518 191 576 246 q 342 135 460 135 q 160 188 209 135 q 112 388 112 241 l 112 574 q 166 768 112 709 q 342 828 220 828 q 520 772 465 828 q 574 602 574 718 l 574 593 l 574 574 l 393 574 l 393 593 q 384 687 396 656 q 346 718 372 718 q 303 692 313 718 q 293 587 293 667 l 293 400 q 303 271 293 302 q 346 240 313 240 q 386 264 376 240 q 393 358 396 288 l 393 397 l 574 397 m 416 240 l 416 -41 l 269 -41 l 269 240 l 416 240 m 269 718 l 269 985 l 416 985 l 416 718 l 269 718 z "},"£":{"ha":666,"x_min":85,"x_max":578,"o":"m 578 0 l 85 0 l 85 132 l 144 132 l 144 451 l 85 451 l 85 579 l 144 579 l 144 776 q 198 919 144 871 q 361 966 252 966 q 533 912 483 966 q 578 728 583 857 l 578 700 l 404 700 l 404 728 q 394 807 404 784 q 359 829 385 829 q 326 816 337 829 q 315 776 315 803 l 315 579 l 455 579 l 455 451 l 315 451 l 315 132 l 578 132 l 578 132 l 578 66 l 578 0 l 578 0 z "},"¤":{"ha":666,"x_min":-33,"x_max":700,"o":"m 526 475 q 470 611 526 555 q 334 667 414 667 q 197 611 253 667 q 141 475 141 555 q 197 338 141 394 q 334 282 253 282 q 470 338 414 282 q 526 475 526 394 m 334 146 q 149 201 230 146 l 149 201 l 57 109 l -33 198 l 60 290 l 60 290 q 5 475 5 371 q 59 660 7 579 l 59 660 l -33 751 l 57 841 l 149 749 l 149 749 q 334 803 229 803 q 518 749 438 803 l 518 749 l 610 841 l 700 751 l 608 659 l 608 659 q 662 475 662 578 q 607 291 663 371 l 607 291 l 700 198 l 610 109 l 518 201 l 518 201 q 334 146 438 147 z "},"¥":{"ha":666,"x_min":26,"x_max":654,"o":"m 90 245 l 90 309 l 243 309 l 243 309 l 243 361 l 243 361 l 26 957 l 26 957 l 130 957 l 235 957 l 235 957 l 341 583 l 341 583 l 459 957 l 459 957 l 557 957 l 654 957 l 654 957 l 439 364 l 439 364 l 439 309 l 439 309 l 592 309 l 592 245 l 439 245 l 439 245 l 439 185 l 439 185 l 592 185 l 592 121 l 439 121 l 439 121 l 439 0 l 439 0 l 341 0 l 243 0 l 243 0 l 243 121 l 243 121 l 90 121 l 90 185 l 243 185 l 243 185 l 243 245 l 243 245 l 90 245 z "},"¦":{"ha":692,"x_min":311,"x_max":382,"o":"m 311 -313 l 311 311 l 382 311 l 382 -313 l 311 -313 m 311 382 l 311 1006 l 382 1006 l 382 382 l 311 382 z "},"§":{"ha":666,"x_min":104,"x_max":559,"o":"m 351 976 q 426 970 387 976 q 510 952 466 964 l 510 952 l 510 831 l 510 831 q 426 849 463 844 q 359 855 388 855 q 289 842 312 855 q 265 801 265 828 q 293 751 265 774 q 388 699 320 728 q 521 613 483 658 q 559 499 559 568 q 496 371 559 420 q 438 339 471 351 q 514 285 488 312 q 559 169 559 239 q 497 20 559 69 q 311 -30 435 -30 q 214 -25 259 -30 q 131 -9 170 -20 l 131 -9 l 131 111 l 131 111 q 225 91 182 98 q 302 85 267 85 q 394 104 363 85 q 425 161 425 123 q 399 209 425 188 q 309 256 373 230 q 150 350 196 300 q 104 475 104 399 q 165 602 104 560 q 241 633 195 623 q 193 670 213 653 q 131 796 131 726 q 186 931 131 886 q 351 976 241 976 m 422 476 q 399 538 422 513 q 334 581 379 559 q 275 555 298 576 q 244 490 244 528 q 269 426 244 452 q 336 385 290 406 q 393 415 364 387 q 422 476 422 444 z "},"¨":{"ha":666,"x_min":146,"x_max":529,"o":"m 146 954 l 304 954 l 304 798 l 146 798 l 146 954 m 372 954 l 529 954 l 529 798 l 372 798 l 372 954 z "},"©":{"ha":692,"x_min":46,"x_max":694,"o":"m 370 1037 q 600 943 506 1037 q 694 713 694 849 q 600 483 694 577 q 370 389 506 389 q 140 483 234 389 q 46 713 46 577 q 140 943 46 849 q 370 1037 234 1037 l 370 1037 m 650 713 q 568 911 650 830 q 370 993 487 993 q 171 911 252 993 q 90 713 90 830 q 171 514 90 595 q 370 433 252 433 q 568 514 487 433 q 650 713 650 595 l 650 713 m 526 587 q 471 549 509 564 q 393 533 432 533 q 266 587 318 533 q 214 719 214 641 q 266 851 214 798 q 391 905 317 905 q 468 890 430 905 q 522 854 507 876 l 483 812 q 443 842 470 829 q 391 854 416 854 q 301 815 338 854 q 265 719 265 776 q 302 623 265 662 q 393 584 339 584 q 445 597 418 584 q 486 629 472 610 l 526 587 z "},"ª":{"ha":564,"x_min":98,"x_max":450,"o":"m 216 519 q 130 554 161 519 q 98 651 98 589 q 142 768 98 734 q 292 802 185 802 l 331 802 l 331 802 l 331 850 q 319 885 331 873 q 283 897 307 897 q 246 885 258 897 q 234 848 234 873 l 234 833 l 111 833 l 111 848 q 153 938 113 909 q 280 966 194 966 q 408 934 366 966 q 450 835 450 902 l 450 528 l 450 528 l 450 528 l 342 528 l 342 528 l 342 596 l 342 596 q 321 564 334 579 q 216 519 280 519 m 331 669 l 331 728 l 331 728 l 312 728 q 241 712 262 728 q 221 654 221 695 q 233 618 221 629 q 270 607 245 607 q 314 625 300 607 q 331 669 328 642 l 331 669 z "},"«":{"ha":614,"x_min":47,"x_max":566,"o":"m 304 586 l 203 335 l 203 335 l 304 83 l 166 83 l 47 335 l 47 335 l 162 586 l 304 586 m 566 586 l 465 335 l 465 335 l 566 83 l 428 83 l 309 335 l 309 335 l 424 586 l 566 586 z "},"¬":{"ha":922,"x_min":146,"x_max":774,"o":"m 672 442 l 146 442 l 146 544 l 774 544 l 774 178 l 672 178 l 672 442 z "},"­":{"ha":307,"x_min":55,"x_max":256,"o":"m 55 406 l 256 406 l 256 276 l 55 276 l 55 406 z "},"®":{"ha":692,"x_min":46,"x_max":694,"o":"m 370 1034 q 600 940 506 1034 q 694 709 694 846 q 600 480 694 574 q 370 386 506 386 q 140 480 234 386 q 46 709 46 574 q 140 940 46 846 q 370 1034 234 1034 l 370 1034 m 650 709 q 568 908 650 827 q 370 989 487 989 q 171 908 252 989 q 90 709 90 827 q 171 511 90 592 q 370 430 252 430 q 568 511 487 430 q 650 709 650 592 l 650 709 m 256 547 l 256 890 l 383 890 q 454 862 425 890 q 483 791 483 833 q 454 720 483 749 q 422 699 440 706 l 483 547 l 421 547 l 364 691 l 364 691 l 307 691 l 307 547 l 256 547 m 432 791 q 418 825 432 811 q 383 840 404 840 l 307 840 l 307 840 l 307 791 l 307 742 l 383 742 q 418 756 404 742 q 432 791 432 770 z "},"¯":{"ha":692,"x_min":0,"x_max":692,"o":"m 0 1035 l 0 1106 l 692 1106 l 692 1035 l 0 1035 z "},"°":{"ha":666,"x_min":118,"x_max":549,"o":"m 334 966 q 492 908 435 966 q 549 750 549 851 q 492 592 549 649 q 334 534 435 534 q 175 592 233 534 q 118 750 118 649 q 175 908 118 851 q 334 966 233 966 m 444 750 q 414 845 444 810 q 334 879 385 879 q 253 845 282 879 q 224 750 224 810 q 253 655 224 690 q 334 621 282 621 q 414 655 385 621 q 444 750 444 690 z "},"±":{"ha":922,"x_min":144,"x_max":775,"o":"m 409 303 l 144 303 l 144 405 l 409 405 l 409 669 l 511 669 l 511 405 l 775 405 l 775 303 l 511 303 l 511 39 l 409 39 l 409 303 m 144 -35 l 775 -35 l 775 -136 l 144 -136 l 144 -35 z "},"²":{"ha":435,"x_min":67,"x_max":383,"o":"m 377 838 q 326 696 377 769 q 188 538 286 640 l 188 538 l 383 538 l 383 459 l 67 459 l 67 498 l 67 538 q 218 724 172 653 q 264 842 264 795 q 255 876 264 865 q 225 886 245 886 q 193 872 203 886 q 186 827 184 857 l 186 812 l 76 812 l 76 827 q 106 932 68 897 q 227 966 144 966 q 342 936 307 966 q 377 838 377 906 z "},"³":{"ha":435,"x_min":69,"x_max":382,"o":"m 267 833 q 256 875 267 861 q 226 890 245 890 q 195 879 205 890 q 186 844 185 867 l 186 829 l 75 829 l 75 844 q 109 938 73 909 q 227 966 144 966 q 342 938 307 966 q 378 844 378 909 q 346 736 378 765 q 297 714 330 721 l 297 714 q 349 692 330 707 q 382 593 382 665 q 345 483 382 517 q 225 450 308 450 q 104 481 140 450 q 69 585 68 512 l 69 600 l 180 600 l 180 585 q 189 541 179 555 q 218 526 199 526 q 259 543 248 526 q 271 602 271 559 q 256 653 271 635 q 216 671 242 671 l 178 671 l 178 755 l 210 755 q 254 769 241 755 q 267 820 267 783 l 267 833 z "},"´":{"ha":666,"x_min":245,"x_max":519,"o":"m 245 748 l 327 963 l 519 963 l 391 748 l 245 748 z "},"µ":{"ha":819,"x_min":-83,"x_max":828,"o":"m 377 665 l 269 292 q 275 171 248 220 q 361 121 302 121 q 449 154 415 121 q 504 258 484 187 l 504 258 l 622 665 l 828 665 l 635 0 l 475 0 l 497 77 l 497 77 l 497 77 q 473 45 486 60 q 327 -14 420 -14 q 222 34 257 -14 q 205 71 211 52 l 205 71 l 113 -245 l -83 -245 l 30 146 l 180 665 l 377 665 z "},"¶":{"ha":666,"x_min":77,"x_max":652,"o":"m 383 384 l 383 384 q 157 494 237 410 q 77 709 77 578 q 187 945 77 855 q 475 1035 296 1035 l 652 1035 l 652 981 l 558 981 l 558 981 l 558 -221 l 504 -221 l 504 981 l 504 981 l 437 981 l 437 981 l 437 -221 l 383 -221 l 383 384 z "},"·":{"ha":307,"x_min":70,"x_max":246,"o":"m 70 547 l 246 547 l 246 371 l 70 371 l 70 547 z "},"¸":{"ha":666,"x_min":186,"x_max":426,"o":"m 186 -275 l 301 -72 l 426 -72 l 357 -275 l 186 -275 z "},"¹":{"ha":435,"x_min":97,"x_max":301,"o":"m 189 459 l 189 853 l 189 853 l 164 827 q 97 789 142 805 l 97 888 q 153 917 133 901 q 193 966 174 933 l 301 966 l 301 966 l 301 459 l 301 459 l 245 459 l 189 459 l 189 459 z "},"º":{"ha":564,"x_min":105,"x_max":456,"o":"m 281 519 q 146 554 188 519 q 105 669 105 589 l 105 816 q 146 931 105 896 q 281 966 188 966 q 415 931 374 966 q 456 816 456 896 l 456 669 q 419 551 456 583 q 281 519 381 519 l 281 519 m 281 607 q 324 623 312 607 q 336 679 336 639 l 336 826 q 323 868 336 855 q 281 882 310 882 q 240 868 254 882 q 227 826 227 854 l 227 679 q 240 624 227 642 q 281 607 253 607 l 281 607 z "},"»":{"ha":614,"x_min":47,"x_max":566,"o":"m 47 83 l 149 334 l 149 334 l 47 586 l 185 586 l 304 334 l 304 334 l 189 83 l 47 83 m 309 83 l 410 334 l 410 334 l 309 586 l 447 586 l 566 334 l 566 334 l 451 83 l 309 83 z "},"∕":{"ha":154,"x_min":-203,"x_max":351,"o":"m 351 985 l -104 -48 l -203 -48 l 252 985 l 351 985 z "},"⁴":{"ha":435,"x_min":45,"x_max":401,"o":"m 224 568 l 45 568 l 45 617 l 45 666 l 174 957 l 254 957 l 334 957 l 334 648 l 334 648 l 401 648 l 401 568 l 334 568 l 334 568 l 334 459 l 224 459 l 224 568 l 224 568 m 224 648 l 224 648 l 224 876 l 224 876 l 224 876 l 140 666 l 132 648 l 132 648 l 224 648 z "},"¼":{"ha":922,"x_min":97,"x_max":820,"o":"m 701 985 l 247 -48 l 148 -48 l 602 985 l 701 985 m 189 459 l 189 853 l 189 853 l 164 827 q 97 789 142 805 l 97 888 q 153 917 133 901 q 193 966 174 933 l 301 966 l 301 966 l 301 459 l 301 459 l 245 459 l 189 459 l 189 459 m 642 109 l 463 109 l 463 158 l 463 207 l 593 498 l 672 498 l 752 498 l 752 189 l 752 189 l 820 189 l 820 109 l 752 109 l 752 109 l 752 0 l 642 0 l 642 109 l 642 109 m 642 189 l 642 189 l 642 416 l 642 416 l 642 416 l 558 207 l 551 189 l 551 189 l 642 189 z "},"½":{"ha":922,"x_min":79,"x_max":817,"o":"m 688 985 l 233 -48 l 134 -48 l 589 985 l 688 985 m 171 459 l 171 853 l 171 853 l 146 827 q 79 789 124 805 l 79 888 q 136 917 115 901 q 176 966 156 933 l 283 966 l 283 966 l 283 459 l 283 459 l 227 459 l 171 459 l 171 459 m 810 378 q 760 237 810 310 q 621 79 720 180 l 621 79 l 817 79 l 817 0 l 500 0 l 500 39 l 500 79 q 651 265 605 194 q 697 383 697 336 q 688 417 697 406 q 659 427 679 427 q 627 413 636 427 q 620 368 617 398 l 620 353 l 509 353 l 509 368 q 539 473 502 438 q 660 507 577 507 q 775 477 740 507 q 810 378 810 447 z "},"¾":{"ha":922,"x_min":69,"x_max":865,"o":"m 744 985 l 290 -48 l 191 -48 l 645 985 l 744 985 m 267 833 q 256 875 267 861 q 226 890 245 890 q 195 879 205 890 q 186 844 185 867 l 186 829 l 75 829 l 75 844 q 109 938 73 909 q 227 966 144 966 q 342 938 307 966 q 378 844 378 909 q 346 736 378 765 q 297 714 330 721 l 297 714 q 349 692 330 707 q 382 593 382 665 q 345 483 382 517 q 225 450 308 450 q 104 481 140 450 q 69 585 68 512 l 69 600 l 180 600 l 180 585 q 189 541 179 555 q 218 526 199 526 q 259 543 248 526 q 271 602 271 559 q 256 653 271 635 q 216 671 242 671 l 178 671 l 178 755 l 210 755 q 254 769 241 755 q 267 820 267 783 l 267 833 m 687 109 l 508 109 l 508 158 l 508 207 l 637 498 l 717 498 l 797 498 l 797 189 l 797 189 l 865 189 l 865 109 l 797 109 l 797 109 l 797 0 l 687 0 l 687 109 l 687 109 m 687 189 l 687 189 l 687 416 l 687 416 l 687 416 l 603 207 l 595 189 l 595 189 l 687 189 z "},"¿":{"ha":614,"x_min":87,"x_max":549,"o":"m 318 -186 q 360 -162 347 -186 q 374 -91 374 -138 l 374 -62 l 549 -62 l 549 -91 q 495 -253 553 -199 q 318 -307 437 -307 q 144 -255 202 -307 q 87 -98 87 -203 q 107 23 87 -31 q 200 194 128 76 q 243 284 235 252 q 252 404 252 317 l 394 404 q 386 232 394 271 q 334 114 378 193 q 271 -14 282 18 q 259 -98 259 -46 q 272 -167 259 -147 q 318 -186 285 -186 m 411 489 l 235 489 l 235 665 l 411 665 l 411 489 z "},"À":{"ha":768,"x_min":56,"x_max":719,"o":"m 56 0 l 273 957 l 387 957 l 503 957 l 719 0 l 719 0 l 625 0 l 530 0 l 530 0 l 492 207 l 492 207 l 283 207 l 283 207 l 245 0 l 245 0 l 151 0 l 56 0 l 56 0 m 389 778 l 310 349 l 310 349 l 467 349 l 467 349 l 389 778 l 389 778 l 389 778 m 344 1031 l 170 1214 l 375 1214 l 490 1031 l 344 1031 z "},"Á":{"ha":768,"x_min":56,"x_max":719,"o":"m 56 0 l 273 957 l 387 957 l 503 957 l 719 0 l 719 0 l 625 0 l 530 0 l 530 0 l 492 207 l 492 207 l 283 207 l 283 207 l 245 0 l 245 0 l 151 0 l 56 0 l 56 0 m 389 778 l 310 349 l 310 349 l 467 349 l 467 349 l 389 778 l 389 778 l 389 778 m 285 1031 l 404 1214 l 606 1214 l 427 1031 l 285 1031 z "},"Â":{"ha":768,"x_min":56,"x_max":719,"o":"m 56 0 l 273 957 l 387 957 l 503 957 l 719 0 l 719 0 l 625 0 l 530 0 l 530 0 l 492 207 l 492 207 l 283 207 l 283 207 l 245 0 l 245 0 l 151 0 l 56 0 l 56 0 m 389 778 l 310 349 l 310 349 l 467 349 l 467 349 l 389 778 l 389 778 l 389 778 m 487 1213 l 616 1031 l 468 1031 l 389 1147 l 389 1147 l 307 1031 l 158 1031 l 288 1213 l 387 1213 l 487 1213 z "},"Ã":{"ha":768,"x_min":56,"x_max":719,"o":"m 56 0 l 273 957 l 387 957 l 503 957 l 719 0 l 719 0 l 625 0 l 530 0 l 530 0 l 492 207 l 492 207 l 283 207 l 283 207 l 245 0 l 245 0 l 151 0 l 56 0 l 56 0 m 389 778 l 310 349 l 310 349 l 467 349 l 467 349 l 389 778 l 389 778 l 389 778 m 176 1056 q 195 1184 174 1147 q 266 1221 215 1221 q 326 1213 294 1221 q 406 1187 357 1206 q 441 1176 420 1182 q 467 1169 463 1169 q 489 1184 479 1169 q 498 1221 498 1199 l 599 1221 q 581 1090 599 1125 q 511 1056 562 1056 q 452 1063 484 1056 q 369 1090 420 1071 q 311 1107 321 1107 q 287 1092 297 1107 q 277 1056 277 1078 l 176 1056 z "},"Ä":{"ha":768,"x_min":56,"x_max":719,"o":"m 56 0 l 273 957 l 387 957 l 503 957 l 719 0 l 719 0 l 625 0 l 530 0 l 530 0 l 492 207 l 492 207 l 283 207 l 283 207 l 245 0 l 245 0 l 151 0 l 56 0 l 56 0 m 389 778 l 310 349 l 310 349 l 467 349 l 467 349 l 389 778 l 389 778 l 389 778 m 179 1189 l 334 1189 l 334 1035 l 179 1035 l 179 1189 m 441 1189 l 596 1189 l 596 1035 l 441 1035 l 441 1189 z "},"Å":{"ha":768,"x_min":56,"x_max":719,"o":"m 56 0 l 273 957 l 387 957 l 503 957 l 719 0 l 719 0 l 625 0 l 530 0 l 530 0 l 492 207 l 492 207 l 283 207 l 283 207 l 245 0 l 245 0 l 151 0 l 56 0 l 56 0 m 389 778 l 310 349 l 310 349 l 467 349 l 467 349 l 389 778 l 389 778 l 389 778 m 387 1034 q 287 1075 328 1034 q 245 1175 245 1116 q 287 1276 245 1235 q 387 1317 328 1317 q 488 1276 447 1317 q 529 1175 529 1235 q 488 1075 529 1116 q 387 1034 447 1034 l 387 1034 m 387 1112 q 433 1130 414 1112 q 452 1175 452 1149 q 433 1220 452 1202 q 387 1239 414 1239 q 341 1220 360 1239 q 323 1175 323 1202 q 341 1130 323 1149 q 387 1112 360 1112 l 387 1112 z "},"Æ":{"ha":1076,"x_min":22,"x_max":1013,"o":"m 569 0 l 569 0 l 544 207 l 544 207 l 291 207 l 291 207 l 224 0 l 224 0 l 123 0 l 22 0 l 22 0 l 373 957 l 373 957 l 628 957 l 628 957 l 1013 957 l 1013 957 l 1013 886 l 1013 814 l 1013 814 l 648 814 l 648 814 l 685 562 l 685 562 l 1000 562 l 1000 490 l 1000 419 l 1000 419 l 706 419 l 706 419 l 746 142 l 746 142 l 1013 142 l 1013 142 l 1013 71 l 1013 0 l 1013 0 l 766 0 l 766 0 l 569 0 m 476 773 l 338 349 l 338 349 l 528 349 l 528 349 l 476 773 l 476 773 z "},"Ç":{"ha":717,"x_min":79,"x_max":662,"o":"m 662 326 l 662 297 q 600 57 665 129 q 379 -14 534 -14 q 147 63 214 -14 q 79 330 79 141 l 79 625 q 147 893 79 816 q 379 971 214 971 q 591 899 522 971 q 656 697 656 831 l 656 679 l 656 650 l 461 650 l 461 679 q 442 790 463 753 q 379 827 421 827 q 300 785 324 827 q 275 647 275 743 l 275 352 q 298 178 275 227 q 379 130 321 130 q 447 171 425 130 q 467 297 469 213 l 467 326 l 662 326 m 201 -290 l 315 -90 l 443 -90 l 372 -290 l 201 -290 z "},"È":{"ha":640,"x_min":94,"x_max":577,"o":"m 94 0 l 94 0 l 94 957 l 94 957 l 572 957 l 572 957 l 572 886 l 572 814 l 572 814 l 290 814 l 290 814 l 290 562 l 290 562 l 562 562 l 562 490 l 562 419 l 562 419 l 290 419 l 290 419 l 290 142 l 290 142 l 577 142 l 577 142 l 577 71 l 577 0 l 577 0 l 94 0 m 290 1031 l 115 1214 l 321 1214 l 435 1031 l 290 1031 z "},"É":{"ha":640,"x_min":94,"x_max":577,"o":"m 94 0 l 94 0 l 94 957 l 94 957 l 572 957 l 572 957 l 572 886 l 572 814 l 572 814 l 290 814 l 290 814 l 290 562 l 290 562 l 562 562 l 562 490 l 562 419 l 562 419 l 290 419 l 290 419 l 290 142 l 290 142 l 577 142 l 577 142 l 577 71 l 577 0 l 577 0 l 94 0 m 231 1031 l 350 1214 l 551 1214 l 373 1031 l 231 1031 z "},"Ê":{"ha":640,"x_min":94,"x_max":577,"o":"m 94 0 l 94 0 l 94 957 l 94 957 l 572 957 l 572 957 l 572 886 l 572 814 l 572 814 l 290 814 l 290 814 l 290 562 l 290 562 l 562 562 l 562 490 l 562 419 l 562 419 l 290 419 l 290 419 l 290 142 l 290 142 l 577 142 l 577 142 l 577 71 l 577 0 l 577 0 l 94 0 m 433 1213 l 562 1031 l 414 1031 l 335 1147 l 335 1147 l 252 1031 l 104 1031 l 233 1213 l 333 1213 l 433 1213 z "},"Ë":{"ha":640,"x_min":94,"x_max":577,"o":"m 94 0 l 94 0 l 94 957 l 94 957 l 572 957 l 572 957 l 572 886 l 572 814 l 572 814 l 290 814 l 290 814 l 290 562 l 290 562 l 562 562 l 562 490 l 562 419 l 562 419 l 290 419 l 290 419 l 290 142 l 290 142 l 577 142 l 577 142 l 577 71 l 577 0 l 577 0 l 94 0 m 125 1189 l 279 1189 l 279 1035 l 125 1035 l 125 1189 m 387 1189 l 542 1189 l 542 1035 l 387 1035 l 387 1189 z "},"Ì":{"ha":359,"x_min":-44,"x_max":276,"o":"m 76 0 l 76 957 l 76 957 l 174 957 l 272 957 l 272 957 l 272 0 l 272 0 l 174 0 l 76 0 l 76 0 m 130 1031 l -44 1214 l 161 1214 l 276 1031 l 130 1031 z "},"Í":{"ha":359,"x_min":71,"x_max":391,"o":"m 75 0 l 75 957 l 75 957 l 173 957 l 271 957 l 271 957 l 271 0 l 271 0 l 174 0 l 75 0 l 75 0 m 71 1031 l 190 1214 l 391 1214 l 213 1031 l 71 1031 z "},"Î":{"ha":359,"x_min":-46,"x_max":412,"o":"m 85 0 l 85 957 l 85 957 l 183 957 l 281 957 l 281 957 l 281 0 l 281 0 l 184 0 l 85 0 l 85 0 m 283 1213 l 412 1031 l 264 1031 l 185 1147 l 185 1147 l 102 1031 l -46 1031 l 83 1213 l 183 1213 l 283 1213 z "},"Ï":{"ha":359,"x_min":-31,"x_max":387,"o":"m 80 0 l 80 957 l 80 957 l 178 957 l 276 957 l 276 957 l 276 0 l 276 0 l 178 0 l 80 0 l 80 0 m -31 1189 l 124 1189 l 124 1035 l -31 1035 l -31 1189 m 232 1189 l 387 1189 l 387 1035 l 232 1035 l 232 1189 z "},"Ð":{"ha":768,"x_min":21,"x_max":696,"o":"m 106 0 l 106 0 l 106 408 l 106 408 l 21 408 l 21 550 l 106 550 l 106 550 l 106 957 l 106 957 l 203 957 l 203 957 l 361 957 q 619 884 542 957 q 696 640 696 811 l 696 372 q 628 78 696 157 q 371 0 559 0 l 203 0 l 203 0 l 106 0 m 302 813 l 302 813 l 302 550 l 302 550 l 391 550 l 391 408 l 302 408 l 302 408 l 302 144 l 302 144 l 351 144 q 469 181 439 144 q 500 327 500 219 l 500 643 q 466 777 500 740 q 341 813 431 813 l 302 813 z "},"Ñ":{"ha":794,"x_min":96,"x_max":711,"o":"m 257 0 l 257 0 l 177 0 l 96 0 l 96 0 l 96 957 l 96 957 l 240 957 l 385 957 l 385 957 l 550 149 l 550 149 l 550 149 l 550 957 l 550 957 l 630 957 l 711 957 l 711 957 l 711 0 l 568 0 l 424 0 l 257 814 l 257 814 l 257 814 l 257 0 m 192 1056 q 211 1184 191 1147 q 282 1221 231 1221 q 342 1213 311 1221 q 422 1187 373 1206 q 457 1176 436 1182 q 483 1169 479 1169 q 505 1184 496 1169 q 514 1221 514 1199 l 615 1221 q 597 1090 615 1125 q 528 1056 578 1056 q 469 1063 500 1056 q 385 1090 437 1071 q 328 1107 337 1107 q 303 1092 313 1107 q 293 1056 293 1078 l 192 1056 z "},"Ò":{"ha":768,"x_min":87,"x_max":684,"o":"m 385 -14 q 155 59 222 -14 q 87 311 87 132 l 87 705 q 162 905 87 838 q 385 971 236 971 q 609 905 534 971 q 684 705 684 838 l 684 311 q 616 59 684 132 q 385 -14 549 -14 l 385 -14 m 385 130 q 465 168 443 130 q 488 302 488 205 l 488 696 q 461 794 488 761 q 385 827 435 827 q 309 794 335 827 q 283 696 283 761 l 283 302 q 306 168 283 205 q 385 130 328 130 l 385 130 m 342 1031 l 168 1214 l 373 1214 l 488 1031 l 342 1031 z "},"Ó":{"ha":768,"x_min":87,"x_max":684,"o":"m 385 -14 q 155 59 222 -14 q 87 311 87 132 l 87 705 q 162 905 87 838 q 385 971 236 971 q 609 905 534 971 q 684 705 684 838 l 684 311 q 616 59 684 132 q 385 -14 549 -14 l 385 -14 m 385 130 q 465 168 443 130 q 488 302 488 205 l 488 696 q 461 794 488 761 q 385 827 435 827 q 309 794 335 827 q 283 696 283 761 l 283 302 q 306 168 283 205 q 385 130 328 130 l 385 130 m 283 1031 l 402 1214 l 604 1214 l 425 1031 l 283 1031 z "},"Ô":{"ha":768,"x_min":87,"x_max":684,"o":"m 385 -14 q 155 59 222 -14 q 87 311 87 132 l 87 705 q 162 905 87 838 q 385 971 236 971 q 609 905 534 971 q 684 705 684 838 l 684 311 q 616 59 684 132 q 385 -14 549 -14 l 385 -14 m 385 130 q 465 168 443 130 q 488 302 488 205 l 488 696 q 461 794 488 761 q 385 827 435 827 q 309 794 335 827 q 283 696 283 761 l 283 302 q 306 168 283 205 q 385 130 328 130 l 385 130 m 485 1213 l 614 1031 l 466 1031 l 387 1147 l 387 1147 l 304 1031 l 156 1031 l 286 1213 l 385 1213 l 485 1213 z "},"Õ":{"ha":768,"x_min":87,"x_max":684,"o":"m 385 -14 q 155 59 222 -14 q 87 311 87 132 l 87 705 q 162 905 87 838 q 385 971 236 971 q 609 905 534 971 q 684 705 684 838 l 684 311 q 616 59 684 132 q 385 -14 549 -14 l 385 -14 m 385 130 q 465 168 443 130 q 488 302 488 205 l 488 696 q 461 794 488 761 q 385 827 435 827 q 309 794 335 827 q 283 696 283 761 l 283 302 q 306 168 283 205 q 385 130 328 130 l 385 130 m 174 1056 q 193 1184 172 1147 q 264 1221 213 1221 q 323 1213 292 1221 q 404 1187 355 1206 q 439 1176 418 1182 q 465 1169 460 1169 q 487 1184 477 1169 q 496 1221 496 1199 l 597 1221 q 578 1090 597 1125 q 509 1056 560 1056 q 450 1063 482 1056 q 367 1090 418 1071 q 309 1107 319 1107 q 285 1092 295 1107 q 275 1056 275 1078 l 174 1056 z "},"Ö":{"ha":768,"x_min":87,"x_max":684,"o":"m 385 -14 q 155 59 222 -14 q 87 311 87 132 l 87 705 q 162 905 87 838 q 385 971 236 971 q 609 905 534 971 q 684 705 684 838 l 684 311 q 616 59 684 132 q 385 -14 549 -14 l 385 -14 m 385 130 q 465 168 443 130 q 488 302 488 205 l 488 696 q 461 794 488 761 q 385 827 435 827 q 309 794 335 827 q 283 696 283 761 l 283 302 q 306 168 283 205 q 385 130 328 130 l 385 130 m 177 1189 l 332 1189 l 332 1035 l 177 1035 l 177 1189 m 439 1189 l 594 1189 l 594 1035 l 439 1035 l 439 1189 z "},"×":{"ha":922,"x_min":176,"x_max":751,"o":"m 463 282 l 248 66 l 176 138 l 391 354 l 176 570 l 248 642 l 463 426 l 679 642 l 751 570 l 535 354 l 751 138 l 679 66 l 463 282 z "},"Ø":{"ha":768,"x_min":87,"x_max":684,"o":"m 171 -87 l 541 1053 l 600 1034 l 229 -105 l 171 -87 m 385 -14 q 162 67 236 -14 q 87 311 87 148 l 87 705 q 162 905 87 838 q 385 971 236 971 q 609 905 534 971 q 684 705 684 838 l 684 311 q 609 67 684 148 q 385 -14 534 -14 l 385 -14 m 385 130 q 465 163 443 130 q 488 281 488 197 l 488 675 q 464 792 488 756 q 385 827 439 827 q 310 788 336 827 q 283 675 283 749 l 283 281 q 308 166 283 203 q 385 130 332 130 l 385 130 z "},"Ù":{"ha":768,"x_min":90,"x_max":678,"o":"m 678 269 q 605 56 678 127 q 384 -14 531 -14 q 163 56 237 -14 q 90 269 90 127 l 90 957 l 90 957 l 186 957 l 283 957 l 283 957 l 283 256 q 306 156 283 184 q 384 128 328 128 q 462 156 440 128 q 484 256 484 184 l 484 957 l 484 957 l 581 957 l 678 957 l 678 957 l 678 269 m 340 1031 l 166 1214 l 372 1214 l 486 1031 l 340 1031 z "},"Ú":{"ha":768,"x_min":90,"x_max":678,"o":"m 678 269 q 605 56 678 127 q 384 -14 531 -14 q 163 56 237 -14 q 90 269 90 127 l 90 957 l 90 957 l 186 957 l 283 957 l 283 957 l 283 256 q 306 156 283 184 q 384 128 328 128 q 462 156 440 128 q 484 256 484 184 l 484 957 l 484 957 l 581 957 l 678 957 l 678 957 l 678 269 m 281 1031 l 401 1214 l 602 1214 l 424 1031 l 281 1031 z "},"Û":{"ha":768,"x_min":90,"x_max":678,"o":"m 678 269 q 605 56 678 127 q 384 -14 531 -14 q 163 56 237 -14 q 90 269 90 127 l 90 957 l 90 957 l 186 957 l 283 957 l 283 957 l 283 256 q 306 156 283 184 q 384 128 328 128 q 462 156 440 128 q 484 256 484 184 l 484 957 l 484 957 l 581 957 l 678 957 l 678 957 l 678 269 m 484 1213 l 613 1031 l 465 1031 l 386 1147 l 386 1147 l 303 1031 l 155 1031 l 284 1213 l 384 1213 l 484 1213 z "},"Ü":{"ha":768,"x_min":90,"x_max":678,"o":"m 678 269 q 605 56 678 127 q 384 -14 531 -14 q 163 56 237 -14 q 90 269 90 127 l 90 957 l 90 957 l 186 957 l 283 957 l 283 957 l 283 256 q 306 156 283 184 q 384 128 328 128 q 462 156 440 128 q 484 256 484 184 l 484 957 l 484 957 l 581 957 l 678 957 l 678 957 l 678 269 m 176 1189 l 330 1189 l 330 1035 l 176 1035 l 176 1189 m 438 1189 l 593 1189 l 593 1035 l 438 1035 l 438 1189 z "},"Ý":{"ha":717,"x_min":36,"x_max":678,"o":"m 260 357 l 260 357 l 36 957 l 36 957 l 140 957 l 245 957 l 245 957 l 358 576 l 358 576 l 482 957 l 482 957 l 580 957 l 678 957 l 678 957 l 456 365 l 456 365 l 456 0 l 358 0 l 260 0 l 260 357 m 254 1031 l 374 1214 l 575 1214 l 397 1031 l 254 1031 z "},"Þ":{"ha":717,"x_min":87,"x_max":665,"o":"m 87 0 l 87 951 l 87 951 l 184 951 l 283 951 l 283 951 l 283 787 l 283 787 l 358 787 q 599 726 533 787 q 665 505 665 666 l 665 528 q 599 279 665 347 q 358 212 533 212 l 283 212 l 283 212 l 283 0 l 283 0 l 185 0 l 87 0 l 87 0 m 473 496 q 447 613 473 584 q 341 643 420 643 l 283 643 l 283 643 l 283 355 l 283 355 l 341 355 q 447 388 420 355 q 473 518 473 420 l 473 496 z "},"ß":{"ha":692,"x_min":79,"x_max":659,"o":"m 255 744 l 255 0 l 255 0 l 168 0 l 79 0 l 79 0 l 79 744 l 79 744 q 146 911 79 857 q 352 966 213 966 q 536 921 475 966 q 597 785 597 876 q 582 687 597 722 q 524 608 568 651 q 498 573 509 593 q 486 543 486 553 q 504 490 486 525 q 547 425 522 456 q 637 294 616 339 q 659 191 659 249 q 605 37 659 88 q 440 -14 550 -14 q 364 -13 395 -14 q 312 -7 334 -11 l 312 -7 l 312 110 l 312 110 q 348 105 329 106 q 388 103 366 103 q 459 128 433 103 q 485 197 485 153 q 473 254 485 229 q 424 326 461 279 q 334 451 355 411 q 312 531 312 490 q 322 585 312 564 q 362 635 332 606 q 410 697 398 671 q 422 764 422 723 q 401 826 422 804 q 341 848 379 848 q 277 821 299 848 q 255 744 255 795 z "},"à":{"ha":614,"x_min":53,"x_max":542,"o":"m 215 -14 q 96 33 139 -14 q 53 162 53 79 l 53 203 q 111 370 53 321 q 313 418 170 418 l 366 418 l 366 418 l 366 500 q 352 556 366 537 q 311 575 338 575 q 260 555 276 575 q 245 494 243 534 l 245 474 l 70 474 l 70 494 q 125 635 68 591 q 306 680 182 680 q 484 630 426 680 q 542 476 542 581 l 542 0 l 542 0 l 542 0 l 372 0 l 372 0 l 372 55 l 372 55 l 364 46 q 215 -14 315 -14 m 366 223 l 366 315 l 366 315 l 343 315 q 255 288 281 315 q 229 197 229 262 l 229 156 q 245 107 229 125 q 290 90 262 90 q 347 123 328 90 q 366 223 366 157 l 366 223 m 252 748 l 126 963 l 327 963 l 400 748 l 252 748 z "},"á":{"ha":614,"x_min":53,"x_max":542,"o":"m 215 -14 q 96 33 139 -14 q 53 162 53 79 l 53 203 q 111 370 53 321 q 313 418 170 418 l 366 418 l 366 418 l 366 500 q 352 556 366 537 q 311 575 338 575 q 260 555 276 575 q 245 494 243 534 l 245 474 l 70 474 l 70 494 q 125 635 68 591 q 306 680 182 680 q 484 630 426 680 q 542 476 542 581 l 542 0 l 542 0 l 542 0 l 372 0 l 372 0 l 372 55 l 372 55 l 364 46 q 215 -14 315 -14 m 366 223 l 366 315 l 366 315 l 343 315 q 255 288 281 315 q 229 197 229 262 l 229 156 q 245 107 229 125 q 290 90 262 90 q 347 123 328 90 q 366 223 366 157 l 366 223 m 224 748 l 305 963 l 498 963 l 370 748 l 224 748 z "},"â":{"ha":614,"x_min":53,"x_max":542,"o":"m 215 -14 q 96 33 139 -14 q 53 162 53 79 l 53 203 q 111 370 53 321 q 313 418 170 418 l 366 418 l 366 418 l 366 500 q 352 556 366 537 q 311 575 338 575 q 260 555 276 575 q 245 494 243 534 l 245 474 l 70 474 l 70 494 q 125 635 68 591 q 306 680 182 680 q 484 630 426 680 q 542 476 542 581 l 542 0 l 542 0 l 542 0 l 372 0 l 372 0 l 372 55 l 372 55 l 364 46 q 215 -14 315 -14 m 366 223 l 366 315 l 366 315 l 343 315 q 255 288 281 315 q 229 197 229 262 l 229 156 q 245 107 229 125 q 290 90 262 90 q 347 123 328 90 q 366 223 366 157 l 366 223 m 408 963 l 489 748 l 376 748 l 312 871 l 312 871 l 248 748 l 135 748 l 216 963 l 312 963 l 408 963 z "},"ã":{"ha":614,"x_min":53,"x_max":542,"o":"m 215 -14 q 96 33 139 -14 q 53 162 53 79 l 53 203 q 111 370 53 321 q 313 418 170 418 l 366 418 l 366 418 l 366 500 q 352 556 366 537 q 311 575 338 575 q 260 555 276 575 q 245 494 243 534 l 245 474 l 70 474 l 70 494 q 125 635 68 591 q 306 680 182 680 q 484 630 426 680 q 542 476 542 581 l 542 0 l 542 0 l 542 0 l 372 0 l 372 0 l 372 55 l 372 55 l 364 46 q 215 -14 315 -14 m 366 223 l 366 315 l 366 315 l 343 315 q 255 288 281 315 q 229 197 229 262 l 229 156 q 245 107 229 125 q 290 90 262 90 q 347 123 328 90 q 366 223 366 157 l 366 223 m 132 754 q 149 903 129 860 q 219 946 168 946 q 266 935 239 946 q 339 897 293 924 q 354 891 343 894 q 371 888 366 888 q 385 905 380 888 q 388 946 389 922 l 492 946 q 474 794 493 835 q 402 754 456 754 q 361 765 388 754 q 285 804 335 777 q 270 810 280 807 q 256 812 260 812 q 240 795 246 812 q 236 754 235 779 l 132 754 z "},"ä":{"ha":614,"x_min":53,"x_max":542,"o":"m 215 -14 q 96 33 139 -14 q 53 162 53 79 l 53 203 q 111 370 53 321 q 313 418 170 418 l 366 418 l 366 418 l 366 500 q 352 556 366 537 q 311 575 338 575 q 260 555 276 575 q 245 494 243 534 l 245 474 l 70 474 l 70 494 q 125 635 68 591 q 306 680 182 680 q 484 630 426 680 q 542 476 542 581 l 542 0 l 542 0 l 542 0 l 372 0 l 372 0 l 372 55 l 372 55 l 364 46 q 215 -14 315 -14 m 366 223 l 366 315 l 366 315 l 343 315 q 255 288 281 315 q 229 197 229 262 l 229 156 q 245 107 229 125 q 290 90 262 90 q 347 123 328 90 q 366 223 366 157 l 366 223 m 121 954 l 278 954 l 278 798 l 121 798 l 121 954 m 346 954 l 503 954 l 503 798 l 346 798 l 346 954 z "},"å":{"ha":614,"x_min":53,"x_max":542,"o":"m 215 -14 q 96 33 139 -14 q 53 162 53 79 l 53 203 q 111 370 53 321 q 313 418 170 418 l 366 418 l 366 418 l 366 500 q 352 556 366 537 q 311 575 338 575 q 260 555 276 575 q 245 494 243 534 l 245 474 l 70 474 l 70 494 q 125 635 68 591 q 306 680 182 680 q 484 630 426 680 q 542 476 542 581 l 542 0 l 542 0 l 542 0 l 372 0 l 372 0 l 372 55 l 372 55 l 364 46 q 215 -14 315 -14 m 366 223 l 366 315 l 366 315 l 343 315 q 255 288 281 315 q 229 197 229 262 l 229 156 q 245 107 229 125 q 290 90 262 90 q 347 123 328 90 q 366 223 366 157 l 366 223 m 312 750 q 214 790 254 750 q 174 888 174 830 q 214 985 174 945 q 312 1025 254 1025 q 410 985 370 1025 q 450 888 450 945 q 410 790 450 830 q 312 750 370 750 l 312 750 m 312 828 q 355 845 337 828 q 372 888 372 863 q 355 930 372 913 q 312 947 337 947 q 269 930 287 947 q 252 888 252 913 q 269 845 252 863 q 312 828 287 828 l 312 828 z "},"æ":{"ha":922,"x_min":55,"x_max":851,"o":"m 292 680 q 436 627 397 680 q 459 578 450 608 l 459 578 q 478 612 468 597 q 641 680 525 680 q 807 621 763 680 q 851 399 851 562 l 851 309 l 851 309 l 545 309 l 545 309 l 545 281 q 558 128 545 165 q 611 91 571 91 q 665 121 650 91 q 677 220 680 151 l 677 240 l 851 240 l 851 220 q 797 44 853 103 q 628 -14 741 -14 q 477 47 524 -14 q 448 106 459 71 l 448 106 q 415 45 435 71 q 269 -14 366 -14 q 112 37 168 -14 q 55 178 55 88 l 55 182 q 114 361 55 309 q 317 413 173 413 l 370 413 l 370 413 l 370 429 q 356 538 370 502 q 313 575 342 575 q 260 553 277 575 q 245 487 243 531 l 245 467 l 69 467 l 69 487 q 121 634 68 587 q 292 680 175 680 m 370 208 l 370 309 l 370 309 l 347 309 q 257 279 283 309 q 231 176 231 250 l 231 173 q 248 112 231 134 q 293 90 264 90 q 351 123 332 90 q 370 208 368 153 l 370 208 m 677 410 l 677 410 l 677 441 q 663 547 677 519 q 611 575 649 575 q 559 541 573 575 q 545 413 545 507 l 545 410 l 545 410 l 677 410 z "},"ç":{"ha":564,"x_min":55,"x_max":515,"o":"m 515 250 l 515 210 q 459 42 517 98 q 285 -14 401 -14 q 109 45 163 -14 q 55 239 55 105 l 55 427 q 109 621 55 561 q 285 680 163 680 q 461 624 406 680 q 515 454 515 570 l 515 446 l 515 426 l 340 426 l 340 446 q 330 534 343 505 q 287 563 317 563 q 242 536 254 563 q 229 440 229 510 l 229 253 q 240 132 229 161 q 285 103 251 103 q 330 128 317 103 q 340 210 343 153 l 340 250 l 515 250 m 134 -275 l 249 -72 l 374 -72 l 305 -275 l 134 -275 z "},"è":{"ha":589,"x_min":53,"x_max":544,"o":"m 283 -14 q 107 47 161 -14 q 53 246 53 108 l 53 378 q 108 612 53 544 q 298 680 163 680 q 492 621 441 680 q 544 399 544 562 l 544 302 l 544 302 l 227 302 l 227 302 l 227 281 q 241 128 227 165 q 298 91 255 91 q 356 118 340 91 q 370 207 372 144 l 370 227 l 544 227 l 544 207 q 481 41 546 96 q 283 -14 416 -14 m 370 404 l 370 404 l 370 441 q 355 547 370 519 q 298 575 340 575 q 242 541 257 575 q 227 413 227 507 l 227 404 l 227 404 l 370 404 m 248 748 l 122 963 l 323 963 l 396 748 l 248 748 z "},"é":{"ha":589,"x_min":53,"x_max":544,"o":"m 283 -14 q 107 47 161 -14 q 53 246 53 108 l 53 378 q 108 612 53 544 q 298 680 163 680 q 492 621 441 680 q 544 399 544 562 l 544 302 l 544 302 l 227 302 l 227 302 l 227 281 q 241 128 227 165 q 298 91 255 91 q 356 118 340 91 q 370 207 372 144 l 370 227 l 544 227 l 544 207 q 481 41 546 96 q 283 -14 416 -14 m 370 404 l 370 404 l 370 441 q 355 547 370 519 q 298 575 340 575 q 242 541 257 575 q 227 413 227 507 l 227 404 l 227 404 l 370 404 m 220 748 l 301 963 l 494 963 l 366 748 l 220 748 z "},"ê":{"ha":589,"x_min":53,"x_max":544,"o":"m 283 -14 q 107 47 161 -14 q 53 246 53 108 l 53 378 q 108 612 53 544 q 298 680 163 680 q 492 621 441 680 q 544 399 544 562 l 544 302 l 544 302 l 227 302 l 227 302 l 227 281 q 241 128 227 165 q 298 91 255 91 q 356 118 340 91 q 370 207 372 144 l 370 227 l 544 227 l 544 207 q 481 41 546 96 q 283 -14 416 -14 m 370 404 l 370 404 l 370 441 q 355 547 370 519 q 298 575 340 575 q 242 541 257 575 q 227 413 227 507 l 227 404 l 227 404 l 370 404 m 404 963 l 485 748 l 372 748 l 308 871 l 308 871 l 244 748 l 131 748 l 212 963 l 308 963 l 404 963 z "},"ë":{"ha":589,"x_min":53,"x_max":544,"o":"m 283 -14 q 107 47 161 -14 q 53 246 53 108 l 53 378 q 108 612 53 544 q 298 680 163 680 q 492 621 441 680 q 544 399 544 562 l 544 302 l 544 302 l 227 302 l 227 302 l 227 281 q 241 128 227 165 q 298 91 255 91 q 356 118 340 91 q 370 207 372 144 l 370 227 l 544 227 l 544 207 q 481 41 546 96 q 283 -14 416 -14 m 370 404 l 370 404 l 370 441 q 355 547 370 519 q 298 575 340 575 q 242 541 257 575 q 227 413 227 507 l 227 404 l 227 404 l 370 404 m 117 954 l 274 954 l 274 798 l 117 798 l 117 954 m 342 954 l 499 954 l 499 798 l 342 798 l 342 954 z "},"ı":{"ha":333,"x_min":80,"x_max":256,"o":"m 80 0 l 80 666 l 80 666 l 168 666 l 256 666 l 256 666 l 256 0 l 256 0 l 168 0 l 80 0 l 80 0 z "},"ì":{"ha":333,"x_min":-18,"x_max":256,"o":"m 80 0 l 80 666 l 80 666 l 168 666 l 256 666 l 256 666 l 256 0 l 256 0 l 168 0 l 80 0 l 80 0 m 107 748 l -18 963 l 182 963 l 256 748 l 107 748 z "},"í":{"ha":333,"x_min":79,"x_max":353,"o":"m 79 0 l 79 666 l 79 666 l 167 666 l 255 666 l 255 666 l 255 0 l 255 0 l 168 0 l 79 0 l 79 0 m 79 748 l 160 963 l 353 963 l 224 748 l 79 748 z "},"î":{"ha":333,"x_min":-15,"x_max":339,"o":"m 75 0 l 75 666 l 75 666 l 162 666 l 250 666 l 250 666 l 250 0 l 250 0 l 163 0 l 75 0 l 75 0 m 258 963 l 339 748 l 226 748 l 162 871 l 162 871 l 98 748 l -15 748 l 66 963 l 162 963 l 258 963 z "},"ï":{"ha":333,"x_min":-28,"x_max":355,"o":"m 76 0 l 76 666 l 76 666 l 163 666 l 252 666 l 252 666 l 252 0 l 252 0 l 164 0 l 76 0 l 76 0 m -28 954 l 130 954 l 130 798 l -28 798 l -28 954 m 197 954 l 355 954 l 355 798 l 197 798 l 197 954 z "},"ð":{"ha":614,"x_min":64,"x_max":553,"o":"m 309 -14 q 122 45 179 -14 q 64 239 64 104 l 64 425 q 116 619 64 559 q 284 679 168 679 q 387 650 335 680 l 387 650 q 201 923 328 804 l 318 976 q 498 754 443 882 q 553 434 554 627 l 553 429 l 553 234 q 496 44 553 102 q 309 -14 438 -14 m 239 253 q 255 135 239 168 q 311 101 271 101 q 368 135 352 101 q 385 253 385 168 l 385 439 q 367 533 385 503 q 311 564 349 564 q 256 533 274 564 q 239 439 239 503 l 239 253 m 172 814 l 515 977 l 548 901 l 204 739 l 172 814 z "},"ñ":{"ha":640,"x_min":78,"x_max":567,"o":"m 78 0 l 78 666 l 78 666 l 165 666 l 254 666 l 254 666 l 254 604 l 254 604 l 254 604 q 417 680 311 680 q 530 636 492 680 q 567 505 567 593 l 567 0 l 567 0 l 479 0 l 391 0 l 391 0 l 391 484 q 377 543 391 525 q 330 562 362 562 q 268 527 286 562 q 254 408 251 492 l 254 408 l 254 0 l 254 0 l 166 0 l 78 0 l 78 0 m 142 754 q 159 903 139 860 q 229 946 178 946 q 276 935 250 946 q 349 897 303 924 q 365 891 353 894 q 381 888 376 888 q 395 905 390 888 q 398 946 399 922 l 502 946 q 485 794 503 835 q 412 754 466 754 q 372 765 398 754 q 295 804 345 777 q 280 810 290 807 q 266 812 270 812 q 251 795 256 812 q 246 754 245 779 l 142 754 z "},"ò":{"ha":614,"x_min":64,"x_max":553,"o":"m 309 -14 q 122 45 179 -14 q 64 239 64 105 l 64 427 q 122 621 64 561 q 309 680 179 680 q 496 621 438 680 q 553 427 553 561 l 553 239 q 496 45 553 105 q 309 -14 438 -14 l 309 -14 m 309 91 q 365 123 351 91 q 379 254 379 155 l 379 441 q 363 545 379 515 q 309 575 347 575 q 254 545 270 575 q 239 441 239 515 l 239 254 q 252 123 239 155 q 309 91 266 91 l 309 91 m 248 748 l 123 963 l 323 963 l 397 748 l 248 748 z "},"ó":{"ha":614,"x_min":64,"x_max":553,"o":"m 309 -14 q 122 45 179 -14 q 64 239 64 105 l 64 427 q 122 621 64 561 q 309 680 179 680 q 496 621 438 680 q 553 427 553 561 l 553 239 q 496 45 553 105 q 309 -14 438 -14 l 309 -14 m 309 91 q 365 123 351 91 q 379 254 379 155 l 379 441 q 363 545 379 515 q 309 575 347 575 q 254 545 270 575 q 239 441 239 515 l 239 254 q 252 123 239 155 q 309 91 266 91 l 309 91 m 220 748 l 302 963 l 494 963 l 366 748 l 220 748 z "},"ô":{"ha":614,"x_min":64,"x_max":553,"o":"m 309 -14 q 122 45 179 -14 q 64 239 64 105 l 64 427 q 122 621 64 561 q 309 680 179 680 q 496 621 438 680 q 553 427 553 561 l 553 239 q 496 45 553 105 q 309 -14 438 -14 l 309 -14 m 309 91 q 365 123 351 91 q 379 254 379 155 l 379 441 q 363 545 379 515 q 309 575 347 575 q 254 545 270 575 q 239 441 239 515 l 239 254 q 252 123 239 155 q 309 91 266 91 l 309 91 m 404 963 l 486 748 l 372 748 l 309 871 l 309 871 l 245 748 l 132 748 l 213 963 l 309 963 l 404 963 z "},"õ":{"ha":614,"x_min":64,"x_max":553,"o":"m 309 -14 q 122 45 179 -14 q 64 239 64 105 l 64 427 q 122 621 64 561 q 309 680 179 680 q 496 621 438 680 q 553 427 553 561 l 553 239 q 496 45 553 105 q 309 -14 438 -14 l 309 -14 m 309 91 q 365 123 351 91 q 379 254 379 155 l 379 441 q 363 545 379 515 q 309 575 347 575 q 254 545 270 575 q 239 441 239 515 l 239 254 q 252 123 239 155 q 309 91 266 91 l 309 91 m 129 754 q 145 903 125 860 q 216 946 165 946 q 263 935 236 946 q 336 897 290 924 q 351 891 340 894 q 368 888 362 888 q 381 905 376 888 q 385 946 386 922 l 488 946 q 471 794 490 835 q 399 754 452 754 q 358 765 385 754 q 281 804 332 777 q 267 810 277 807 q 252 812 256 812 q 237 795 243 812 q 233 754 231 779 l 129 754 z "},"ö":{"ha":614,"x_min":64,"x_max":553,"o":"m 309 -14 q 122 45 179 -14 q 64 239 64 105 l 64 427 q 122 621 64 561 q 309 680 179 680 q 496 621 438 680 q 553 427 553 561 l 553 239 q 496 45 553 105 q 309 -14 438 -14 l 309 -14 m 309 91 q 365 123 351 91 q 379 254 379 155 l 379 441 q 363 545 379 515 q 309 575 347 575 q 254 545 270 575 q 239 441 239 515 l 239 254 q 252 123 239 155 q 309 91 266 91 l 309 91 m 117 954 l 275 954 l 275 798 l 117 798 l 117 954 m 342 954 l 500 954 l 500 798 l 342 798 l 342 954 z "},"÷":{"ha":922,"x_min":145,"x_max":780,"o":"m 463 229 q 517 207 495 229 q 540 151 540 184 q 517 96 540 119 q 463 74 495 74 q 408 96 430 74 q 385 151 385 119 q 408 207 385 184 q 463 229 430 229 m 145 405 l 780 405 l 780 303 l 145 303 l 145 405 m 463 634 q 517 611 495 634 q 540 556 540 589 q 517 501 540 524 q 463 479 495 479 q 408 501 430 479 q 385 556 385 524 q 408 611 385 589 q 463 634 430 634 z "},"ø":{"ha":614,"x_min":64,"x_max":553,"o":"m 162 -101 l 413 753 l 455 741 l 204 -113 l 162 -101 m 309 -14 q 122 45 179 -14 q 64 239 64 105 l 64 427 q 122 621 64 561 q 309 680 179 680 q 496 621 438 680 q 553 427 553 561 l 553 239 q 496 45 553 105 q 309 -14 438 -14 l 309 -14 m 309 91 q 365 123 351 91 q 379 254 379 155 l 379 441 q 365 549 379 523 q 309 575 351 575 q 252 549 266 575 q 239 441 239 523 l 239 254 q 252 123 239 155 q 309 91 266 91 l 309 91 z "},"ù":{"ha":640,"x_min":76,"x_max":567,"o":"m 252 666 l 252 199 q 267 127 252 149 q 315 104 281 104 q 377 139 359 104 q 391 258 394 174 l 391 258 l 391 666 l 391 666 l 479 666 l 567 666 l 567 666 l 567 0 l 567 0 l 485 0 l 402 0 l 402 0 l 402 66 l 402 66 l 402 66 q 241 -14 332 -14 q 117 34 158 -14 q 76 178 76 82 l 76 666 l 76 666 l 163 666 l 252 666 l 252 666 m 261 748 l 136 963 l 336 963 l 410 748 l 261 748 z "},"ú":{"ha":640,"x_min":76,"x_max":567,"o":"m 252 666 l 252 199 q 267 127 252 149 q 315 104 281 104 q 377 139 359 104 q 391 258 394 174 l 391 258 l 391 666 l 391 666 l 479 666 l 567 666 l 567 666 l 567 0 l 567 0 l 485 0 l 402 0 l 402 0 l 402 66 l 402 66 l 402 66 q 241 -14 332 -14 q 117 34 158 -14 q 76 178 76 82 l 76 666 l 76 666 l 163 666 l 252 666 l 252 666 m 233 748 l 315 963 l 507 963 l 379 748 l 233 748 z "},"û":{"ha":640,"x_min":76,"x_max":567,"o":"m 252 666 l 252 199 q 267 127 252 149 q 315 104 281 104 q 377 139 359 104 q 391 258 394 174 l 391 258 l 391 666 l 391 666 l 479 666 l 567 666 l 567 666 l 567 0 l 567 0 l 485 0 l 402 0 l 402 0 l 402 66 l 402 66 l 402 66 q 241 -14 332 -14 q 117 34 158 -14 q 76 178 76 82 l 76 666 l 76 666 l 163 666 l 252 666 l 252 666 m 417 963 l 498 748 l 385 748 l 321 871 l 321 871 l 258 748 l 144 748 l 226 963 l 321 963 l 417 963 z "},"ü":{"ha":640,"x_min":76,"x_max":567,"o":"m 252 666 l 252 199 q 267 127 252 149 q 315 104 281 104 q 377 139 359 104 q 391 258 394 174 l 391 258 l 391 666 l 391 666 l 479 666 l 567 666 l 567 666 l 567 0 l 567 0 l 485 0 l 402 0 l 402 0 l 402 66 l 402 66 l 402 66 q 241 -14 332 -14 q 117 34 158 -14 q 76 178 76 82 l 76 666 l 76 666 l 163 666 l 252 666 l 252 666 m 130 954 l 288 954 l 288 798 l 130 798 l 130 954 m 355 954 l 513 954 l 513 798 l 355 798 l 355 954 z "},"ý":{"ha":614,"x_min":37,"x_max":583,"o":"m 345 -248 l 345 -248 l 262 -248 l 178 -248 l 178 -248 l 236 -5 l 236 -5 l 37 666 l 37 666 l 124 666 l 212 666 l 212 666 l 311 256 l 311 256 l 311 256 l 414 666 l 414 666 l 498 666 l 583 666 l 583 666 l 345 -248 m 222 748 l 303 963 l 496 963 l 368 748 l 222 748 z "},"þ":{"ha":614,"x_min":64,"x_max":553,"o":"m 64 957 l 64 957 l 152 957 l 240 957 l 240 957 l 240 609 l 240 609 l 243 612 q 394 680 293 680 q 514 628 474 680 q 553 471 553 576 l 553 235 q 516 42 553 98 q 387 -14 479 -14 q 240 43 294 -14 l 240 43 l 240 -263 l 240 -263 l 153 -263 l 64 -263 l 64 -263 l 64 957 m 310 105 q 367 136 353 105 q 381 263 381 167 l 381 430 q 366 532 381 503 q 311 561 350 561 q 257 526 273 561 q 240 410 240 490 l 240 410 l 240 256 l 240 256 q 255 135 241 164 q 310 105 269 105 z "},"ÿ":{"ha":614,"x_min":37,"x_max":583,"o":"m 345 -248 l 345 -248 l 262 -248 l 178 -248 l 178 -248 l 236 -5 l 236 -5 l 37 666 l 37 666 l 124 666 l 212 666 l 212 666 l 311 256 l 311 256 l 311 256 l 414 666 l 414 666 l 498 666 l 583 666 l 583 666 l 345 -248 m 119 954 l 276 954 l 276 798 l 119 798 l 119 954 m 344 954 l 501 954 l 501 798 l 344 798 l 344 954 z "},"Ā":{"ha":768,"x_min":56,"x_max":719,"o":"m 56 0 l 273 957 l 387 957 l 503 957 l 719 0 l 719 0 l 625 0 l 530 0 l 530 0 l 492 207 l 492 207 l 283 207 l 283 207 l 245 0 l 245 0 l 151 0 l 56 0 l 56 0 m 389 778 l 310 349 l 310 349 l 467 349 l 467 349 l 389 778 l 389 778 l 389 778 m 164 1162 l 610 1162 l 610 1042 l 164 1042 l 164 1162 z "},"ā":{"ha":614,"x_min":53,"x_max":542,"o":"m 215 -14 q 96 33 139 -14 q 53 162 53 79 l 53 203 q 111 370 53 321 q 313 418 170 418 l 366 418 l 366 418 l 366 500 q 352 556 366 537 q 311 575 338 575 q 260 555 276 575 q 245 494 243 534 l 245 474 l 70 474 l 70 494 q 125 635 68 591 q 306 680 182 680 q 484 630 426 680 q 542 476 542 581 l 542 0 l 542 0 l 542 0 l 372 0 l 372 0 l 372 55 l 372 55 l 364 46 q 215 -14 315 -14 m 366 223 l 366 315 l 366 315 l 343 315 q 255 288 281 315 q 229 197 229 262 l 229 156 q 245 107 229 125 q 290 90 262 90 q 347 123 328 90 q 366 223 366 157 l 366 223 m 89 923 l 535 923 l 535 799 l 89 799 l 89 923 z "},"Ă":{"ha":768,"x_min":56,"x_max":719,"o":"m 56 0 l 273 957 l 387 957 l 503 957 l 719 0 l 719 0 l 625 0 l 530 0 l 530 0 l 492 207 l 492 207 l 283 207 l 283 207 l 245 0 l 245 0 l 151 0 l 56 0 l 56 0 m 389 778 l 310 349 l 310 349 l 467 349 l 467 349 l 389 778 l 389 778 l 389 778 m 387 1031 q 243 1080 292 1031 q 193 1223 193 1129 l 322 1223 q 337 1145 322 1168 q 387 1123 351 1123 q 438 1145 423 1123 q 453 1223 453 1168 l 582 1223 q 532 1080 582 1129 q 387 1031 483 1031 z "},"ă":{"ha":614,"x_min":53,"x_max":542,"o":"m 215 -14 q 96 33 139 -14 q 53 162 53 79 l 53 203 q 111 370 53 321 q 313 418 170 418 l 366 418 l 366 418 l 366 500 q 352 556 366 537 q 311 575 338 575 q 260 555 276 575 q 245 494 243 534 l 245 474 l 70 474 l 70 494 q 125 635 68 591 q 306 680 182 680 q 484 630 426 680 q 542 476 542 581 l 542 0 l 542 0 l 542 0 l 372 0 l 372 0 l 372 55 l 372 55 l 364 46 q 215 -14 315 -14 m 366 223 l 366 315 l 366 315 l 343 315 q 255 288 281 315 q 229 197 229 262 l 229 156 q 245 107 229 125 q 290 90 262 90 q 347 123 328 90 q 366 223 366 157 l 366 223 m 312 744 q 171 797 217 744 q 125 959 125 849 l 245 959 q 260 862 245 890 q 312 833 275 833 q 363 862 349 833 q 378 959 378 890 l 498 959 q 453 797 498 849 q 312 744 407 744 z "},"Ą":{"ha":768,"x_min":56,"x_max":719,"o":"m 56 0 l 273 957 l 387 957 l 503 957 l 719 0 l 719 0 l 625 0 l 530 0 l 530 0 l 492 207 l 492 207 l 283 207 l 283 207 l 245 0 l 245 0 l 151 0 l 56 0 l 56 0 m 389 778 l 310 349 l 310 349 l 467 349 l 467 349 l 389 778 l 389 778 l 389 778 m 450 -129 q 502 -19 450 -68 q 640 49 554 30 l 647 9 q 587 -30 609 -3 q 566 -94 566 -58 q 585 -134 566 -119 q 635 -150 604 -150 q 669 -149 665 -150 l 669 -250 q 639 -252 655 -251 q 610 -252 623 -252 q 492 -220 534 -252 q 450 -129 450 -187 z "},"ą":{"ha":614,"x_min":53,"x_max":542,"o":"m 215 -14 q 96 33 139 -14 q 53 162 53 79 l 53 203 q 111 370 53 321 q 313 418 170 418 l 366 418 l 366 418 l 366 500 q 352 556 366 537 q 311 575 338 575 q 260 555 276 575 q 245 494 243 534 l 245 474 l 70 474 l 70 494 q 125 635 68 591 q 306 680 182 680 q 484 630 426 680 q 542 476 542 581 l 542 0 l 542 0 l 542 0 l 372 0 l 372 0 l 372 55 l 372 55 l 364 46 q 215 -14 315 -14 m 366 223 l 366 315 l 366 315 l 343 315 q 255 288 281 315 q 229 197 229 262 l 229 156 q 245 107 229 125 q 290 90 262 90 q 347 123 328 90 q 366 223 366 157 l 366 223 m 327 -107 q 351 -39 327 -72 q 418 16 375 -7 l 505 16 q 448 -32 466 -9 q 429 -79 429 -55 q 448 -113 429 -100 q 498 -125 467 -125 q 532 -125 526 -125 l 532 -221 q 506 -224 521 -223 q 476 -225 490 -225 q 368 -193 409 -225 q 327 -107 327 -160 z "},"Ć":{"ha":717,"x_min":79,"x_max":662,"o":"m 662 326 l 662 297 q 600 57 665 129 q 379 -14 534 -14 q 147 63 214 -14 q 79 330 79 141 l 79 625 q 147 893 79 816 q 379 971 214 971 q 591 899 522 971 q 656 697 656 831 l 656 679 l 656 650 l 461 650 l 461 679 q 442 790 463 753 q 379 827 421 827 q 300 785 324 827 q 275 647 275 743 l 275 352 q 298 178 275 227 q 379 130 321 130 q 447 171 425 130 q 467 297 469 213 l 467 326 l 662 326 m 315 1031 l 434 1214 l 635 1214 l 457 1031 l 315 1031 z "},"ć":{"ha":564,"x_min":55,"x_max":515,"o":"m 515 250 l 515 210 q 459 42 517 98 q 285 -14 401 -14 q 109 45 163 -14 q 55 239 55 105 l 55 427 q 109 621 55 561 q 285 680 163 680 q 461 624 406 680 q 515 454 515 570 l 515 446 l 515 426 l 340 426 l 340 446 q 330 534 343 505 q 287 563 317 563 q 242 536 254 563 q 229 440 229 510 l 229 253 q 240 132 229 161 q 285 103 251 103 q 330 128 317 103 q 340 210 343 153 l 340 250 l 515 250 m 197 748 l 278 963 l 471 963 l 342 748 l 197 748 z "},"Č":{"ha":717,"x_min":79,"x_max":662,"o":"m 662 326 l 662 297 q 600 57 665 129 q 379 -14 534 -14 q 147 63 214 -14 q 79 330 79 141 l 79 625 q 147 893 79 816 q 379 971 214 971 q 591 899 522 971 q 656 697 656 831 l 656 679 l 656 650 l 461 650 l 461 679 q 442 790 463 753 q 379 827 421 827 q 300 785 324 827 q 275 647 275 743 l 275 352 q 298 178 275 227 q 379 130 321 130 q 447 171 425 130 q 467 297 469 213 l 467 326 l 662 326 m 279 1031 l 150 1213 l 298 1213 l 377 1098 l 377 1098 l 460 1213 l 608 1213 l 479 1031 l 379 1031 l 279 1031 z "},"č":{"ha":564,"x_min":55,"x_max":515,"o":"m 515 250 l 515 210 q 459 42 517 98 q 285 -14 401 -14 q 109 45 163 -14 q 55 239 55 105 l 55 427 q 109 621 55 561 q 285 680 163 680 q 461 624 406 680 q 515 454 515 570 l 515 446 l 515 426 l 340 426 l 340 446 q 330 534 343 505 q 287 563 317 563 q 242 536 254 563 q 229 440 229 510 l 229 253 q 240 132 229 161 q 285 103 251 103 q 330 128 317 103 q 340 210 343 153 l 340 250 l 515 250 m 189 749 l 108 964 l 221 964 l 285 841 l 285 841 l 349 964 l 462 964 l 380 749 l 285 749 l 189 749 z "},"Ď":{"ha":768,"x_min":96,"x_max":695,"o":"m 96 0 l 96 957 l 96 957 l 193 957 l 193 957 l 353 957 q 616 884 538 957 q 695 640 695 811 l 695 372 q 626 78 696 157 q 364 0 557 0 l 193 0 l 193 0 l 96 0 l 96 0 m 292 144 l 292 144 l 343 144 q 467 181 435 144 q 499 327 499 219 l 499 643 q 464 777 499 740 q 333 813 428 813 l 292 813 l 292 813 l 292 144 m 284 1031 l 155 1213 l 303 1213 l 382 1098 l 382 1098 l 465 1213 l 613 1213 l 484 1031 l 384 1031 l 284 1031 z "},"ď":{"ha":768,"x_min":65,"x_max":768,"o":"m 235 -14 q 105 41 144 -14 q 65 222 65 97 l 65 458 q 107 625 65 569 q 235 680 150 680 q 378 617 309 681 l 378 617 l 378 957 l 378 957 l 466 957 l 554 957 l 554 957 l 554 0 l 554 0 l 472 0 l 390 0 l 390 0 l 390 73 l 390 73 l 382 61 q 235 -14 333 -14 m 310 561 q 256 533 270 561 q 241 430 241 506 l 241 235 q 257 135 241 165 q 309 105 273 105 q 365 141 351 105 q 378 288 378 176 l 378 378 q 365 525 378 490 q 310 561 352 561 m 612 724 l 640 957 l 768 957 l 703 724 l 612 724 z "},"Đ":{"ha":768,"x_min":21,"x_max":696,"o":"m 106 0 l 106 0 l 106 408 l 106 408 l 21 408 l 21 550 l 106 550 l 106 550 l 106 957 l 106 957 l 203 957 l 203 957 l 361 957 q 619 884 542 957 q 696 640 696 811 l 696 372 q 628 78 696 157 q 371 0 559 0 l 203 0 l 203 0 l 106 0 m 302 813 l 302 813 l 302 550 l 302 550 l 391 550 l 391 408 l 302 408 l 302 408 l 302 144 l 302 144 l 351 144 q 469 181 439 144 q 500 327 500 219 l 500 643 q 466 777 500 740 q 341 813 431 813 l 302 813 z "},"đ":{"ha":614,"x_min":65,"x_max":623,"o":"m 235 -14 q 105 41 144 -14 q 65 222 65 97 l 65 458 q 107 625 65 569 q 235 680 150 680 q 378 617 309 681 l 378 617 l 378 957 l 378 957 l 466 957 l 554 957 l 554 957 l 554 0 l 554 0 l 472 0 l 390 0 l 390 0 l 390 73 l 390 73 l 382 61 q 235 -14 333 -14 m 310 561 q 256 533 270 561 q 241 430 241 506 l 241 235 q 257 135 241 165 q 309 105 273 105 q 365 141 351 105 q 378 288 378 176 l 378 378 q 365 525 378 490 q 310 561 352 561 m 262 848 l 623 848 l 623 733 l 262 733 l 262 848 z "},"Ē":{"ha":640,"x_min":94,"x_max":577,"o":"m 94 0 l 94 0 l 94 957 l 94 957 l 572 957 l 572 957 l 572 886 l 572 814 l 572 814 l 290 814 l 290 814 l 290 562 l 290 562 l 562 562 l 562 490 l 562 419 l 562 419 l 290 419 l 290 419 l 290 142 l 290 142 l 577 142 l 577 142 l 577 71 l 577 0 l 577 0 l 94 0 m 110 1162 l 556 1162 l 556 1042 l 110 1042 l 110 1162 z "},"ē":{"ha":589,"x_min":53,"x_max":544,"o":"m 283 -14 q 107 47 161 -14 q 53 246 53 108 l 53 378 q 108 612 53 544 q 298 680 163 680 q 492 621 441 680 q 544 399 544 562 l 544 302 l 544 302 l 227 302 l 227 302 l 227 281 q 241 128 227 165 q 298 91 255 91 q 356 118 340 91 q 370 207 372 144 l 370 227 l 544 227 l 544 207 q 481 41 546 96 q 283 -14 416 -14 m 370 404 l 370 404 l 370 441 q 355 547 370 519 q 298 575 340 575 q 242 541 257 575 q 227 413 227 507 l 227 404 l 227 404 l 370 404 m 85 923 l 531 923 l 531 799 l 85 799 l 85 923 z "},"Ė":{"ha":640,"x_min":94,"x_max":577,"o":"m 94 0 l 94 0 l 94 957 l 94 957 l 572 957 l 572 957 l 572 886 l 572 814 l 572 814 l 290 814 l 290 814 l 290 562 l 290 562 l 562 562 l 562 490 l 562 419 l 562 419 l 290 419 l 290 419 l 290 142 l 290 142 l 577 142 l 577 142 l 577 71 l 577 0 l 577 0 l 94 0 m 247 1202 l 419 1202 l 419 1042 l 247 1042 l 247 1202 z "},"ė":{"ha":589,"x_min":53,"x_max":544,"o":"m 283 -14 q 107 47 161 -14 q 53 246 53 108 l 53 378 q 108 612 53 544 q 298 680 163 680 q 492 621 441 680 q 544 399 544 562 l 544 302 l 544 302 l 227 302 l 227 302 l 227 281 q 241 128 227 165 q 298 91 255 91 q 356 118 340 91 q 370 207 372 144 l 370 227 l 544 227 l 544 207 q 481 41 546 96 q 283 -14 416 -14 m 370 404 l 370 404 l 370 441 q 355 547 370 519 q 298 575 340 575 q 242 541 257 575 q 227 413 227 507 l 227 404 l 227 404 l 370 404 m 220 962 l 395 962 l 395 799 l 220 799 l 220 962 z "},"Ę":{"ha":640,"x_min":94,"x_max":577,"o":"m 94 0 l 94 0 l 94 957 l 94 957 l 572 957 l 572 957 l 572 886 l 572 814 l 572 814 l 290 814 l 290 814 l 290 562 l 290 562 l 562 562 l 562 490 l 562 419 l 562 419 l 290 419 l 290 419 l 290 142 l 290 142 l 577 142 l 577 142 l 577 71 l 577 0 l 577 0 l 94 0 m 333 -129 q 385 -19 333 -68 q 523 49 437 30 l 530 9 q 471 -30 492 -3 q 449 -94 449 -58 q 468 -134 449 -119 q 518 -150 487 -150 q 552 -149 549 -150 l 552 -250 q 522 -252 538 -251 q 493 -252 506 -252 q 375 -220 418 -252 q 333 -129 333 -187 z "},"ę":{"ha":589,"x_min":53,"x_max":544,"o":"m 283 -14 q 107 47 161 -14 q 53 246 53 108 l 53 378 q 108 612 53 544 q 298 680 163 680 q 492 621 441 680 q 544 399 544 562 l 544 302 l 544 302 l 227 302 l 227 302 l 227 281 q 241 128 227 165 q 298 91 255 91 q 356 118 340 91 q 370 207 372 144 l 370 227 l 544 227 l 544 207 q 481 41 546 96 q 283 -14 416 -14 m 370 404 l 370 404 l 370 441 q 355 547 370 519 q 298 575 340 575 q 242 541 257 575 q 227 413 227 507 l 227 404 l 227 404 l 370 404 m 231 -107 q 255 -39 231 -72 q 321 16 279 -7 l 409 16 q 351 -32 370 -9 q 333 -79 333 -55 q 352 -113 333 -100 q 401 -125 371 -125 q 435 -125 429 -125 l 435 -221 q 409 -224 425 -223 q 380 -225 394 -225 q 271 -193 313 -225 q 231 -107 231 -160 z "},"Ě":{"ha":640,"x_min":94,"x_max":577,"o":"m 94 0 l 94 0 l 94 957 l 94 957 l 572 957 l 572 957 l 572 886 l 572 814 l 572 814 l 290 814 l 290 814 l 290 562 l 290 562 l 562 562 l 562 490 l 562 419 l 562 419 l 290 419 l 290 419 l 290 142 l 290 142 l 577 142 l 577 142 l 577 71 l 577 0 l 577 0 l 94 0 m 233 1031 l 104 1213 l 252 1213 l 331 1098 l 331 1098 l 414 1213 l 562 1213 l 433 1031 l 333 1031 l 233 1031 z "},"ě":{"ha":589,"x_min":53,"x_max":544,"o":"m 283 -14 q 107 47 161 -14 q 53 246 53 108 l 53 378 q 108 612 53 544 q 298 680 163 680 q 492 621 441 680 q 544 399 544 562 l 544 302 l 544 302 l 227 302 l 227 302 l 227 281 q 241 128 227 165 q 298 91 255 91 q 356 118 340 91 q 370 207 372 144 l 370 227 l 544 227 l 544 207 q 481 41 546 96 q 283 -14 416 -14 m 370 404 l 370 404 l 370 441 q 355 547 370 519 q 298 575 340 575 q 242 541 257 575 q 227 413 227 507 l 227 404 l 227 404 l 370 404 m 212 749 l 131 964 l 244 964 l 308 841 l 308 841 l 372 964 l 485 964 l 404 749 l 308 749 l 212 749 z "},"Ğ":{"ha":768,"x_min":86,"x_max":684,"o":"m 382 -14 q 152 72 217 -14 q 86 375 87 157 l 86 602 q 161 884 87 798 q 401 971 235 971 q 618 901 547 971 q 684 689 688 830 l 684 661 l 489 661 l 489 689 q 466 793 490 758 q 390 827 441 827 q 306 780 330 827 q 282 612 282 733 l 282 386 q 305 179 282 229 q 398 130 328 130 q 488 144 426 130 l 488 144 l 488 365 l 488 365 l 397 365 l 397 507 l 684 507 l 684 24 l 684 24 q 382 -14 528 -14 l 382 -14 m 401 1031 q 257 1080 307 1031 q 208 1223 208 1129 l 336 1223 q 351 1145 336 1168 q 401 1123 366 1123 q 452 1145 437 1123 q 467 1223 467 1168 l 596 1223 q 547 1080 596 1129 q 401 1031 497 1031 z "},"ğ":{"ha":614,"x_min":64,"x_max":553,"o":"m 302 -163 q 354 -137 339 -163 q 369 -50 369 -112 l 369 75 l 369 75 l 362 66 q 224 0 313 0 q 100 54 136 0 q 64 241 64 109 l 64 425 q 105 616 64 553 q 230 680 146 680 q 374 607 316 680 l 380 600 l 380 600 l 380 666 l 380 666 l 553 666 l 553 -50 q 491 -210 553 -157 q 308 -264 430 -264 q 123 -220 180 -264 q 68 -79 67 -177 l 68 -60 l 245 -60 l 245 -79 q 257 -141 243 -120 q 302 -163 272 -163 m 304 561 q 256 532 272 561 q 241 445 241 504 l 241 262 q 253 147 241 175 q 304 119 266 119 q 356 148 344 119 q 369 265 369 176 l 369 415 q 356 532 369 504 q 304 561 344 561 m 328 744 q 187 797 233 744 q 141 959 141 849 l 261 959 q 276 862 261 890 q 328 833 291 833 q 379 862 364 833 q 394 959 394 890 l 514 959 q 468 797 514 849 q 328 744 422 744 z "},"Ģ":{"ha":768,"x_min":86,"x_max":684,"o":"m 382 -14 q 152 72 217 -14 q 86 375 87 157 l 86 602 q 161 884 87 798 q 401 971 235 971 q 618 901 547 971 q 684 689 688 830 l 684 661 l 489 661 l 489 689 q 466 793 490 758 q 390 827 441 827 q 306 780 330 827 q 282 612 282 733 l 282 386 q 305 179 282 229 q 398 130 328 130 q 488 144 426 130 l 488 144 l 488 365 l 488 365 l 397 365 l 397 507 l 684 507 l 684 24 l 684 24 q 382 -14 528 -14 l 382 -14 m 204 -290 l 319 -90 l 446 -90 l 376 -290 l 204 -290 z "},"ģ":{"ha":614,"x_min":64,"x_max":553,"o":"m 302 -163 q 354 -137 339 -163 q 369 -50 369 -112 l 369 75 l 369 75 l 362 66 q 224 0 313 0 q 100 54 136 0 q 64 241 64 109 l 64 425 q 105 616 64 553 q 230 680 146 680 q 374 607 316 680 l 380 600 l 380 600 l 380 666 l 380 666 l 553 666 l 553 -50 q 491 -210 553 -157 q 308 -264 430 -264 q 123 -220 180 -264 q 68 -79 67 -177 l 68 -60 l 245 -60 l 245 -79 q 257 -141 243 -120 q 302 -163 272 -163 m 304 561 q 256 532 272 561 q 241 445 241 504 l 241 262 q 253 147 241 175 q 304 119 266 119 q 356 148 344 119 q 369 265 369 176 l 369 415 q 356 532 369 504 q 304 561 344 561 m 471 954 l 406 748 l 231 748 l 345 954 l 471 954 z "},"Ī":{"ha":359,"x_min":-37,"x_max":409,"o":"m 88 0 l 88 957 l 88 957 l 186 957 l 284 957 l 284 957 l 284 0 l 284 0 l 186 0 l 88 0 l 88 0 m -37 1162 l 409 1162 l 409 1042 l -37 1042 l -37 1162 z "},"ī":{"ha":333,"x_min":-54,"x_max":392,"o":"m 81 0 l 81 666 l 81 666 l 169 666 l 257 666 l 257 666 l 257 0 l 257 0 l 170 0 l 81 0 l 81 0 m -54 923 l 392 923 l 392 799 l -54 799 l -54 923 z "},"Į":{"ha":359,"x_min":85,"x_max":304,"o":"m 86 0 l 86 957 l 86 957 l 184 957 l 282 957 l 282 957 l 282 0 l 282 0 l 184 0 l 86 0 l 86 0 m 85 -129 q 137 -19 85 -68 q 275 49 189 30 l 282 9 q 222 -30 244 -3 q 201 -94 201 -58 q 220 -134 201 -119 q 270 -150 239 -150 q 304 -149 300 -150 l 304 -250 q 274 -252 290 -251 q 245 -252 258 -252 q 127 -220 170 -252 q 85 -129 85 -187 z "},"į":{"ha":333,"x_min":73,"x_max":278,"o":"m 79 0 l 79 666 l 79 666 l 167 666 l 255 666 l 255 666 l 255 0 l 255 0 l 168 0 l 79 0 l 79 0 m 79 949 l 255 949 l 255 790 l 79 790 l 79 949 m 73 -107 q 97 -39 73 -72 q 164 16 121 -7 l 252 16 q 194 -32 212 -9 q 176 -79 176 -55 q 195 -113 176 -100 q 244 -125 214 -125 q 278 -125 272 -125 l 278 -221 q 252 -224 267 -223 q 222 -225 237 -225 q 114 -193 155 -225 q 73 -107 73 -160 z "},"İ":{"ha":359,"x_min":85,"x_max":281,"o":"m 85 0 l 85 957 l 85 957 l 182 957 l 281 957 l 281 957 l 281 0 l 281 0 l 183 0 l 85 0 l 85 0 m 96 1202 l 269 1202 l 269 1042 l 96 1042 l 96 1202 z "},"Ķ":{"ha":743,"x_min":98,"x_max":716,"o":"m 294 0 l 294 0 l 197 0 l 98 0 l 98 0 l 98 957 l 98 957 l 196 957 l 294 957 l 294 957 l 294 517 l 294 517 l 505 957 l 505 957 l 608 957 l 713 957 l 713 957 l 505 536 l 505 536 l 716 0 l 716 0 l 610 0 l 503 0 l 503 0 l 294 517 l 294 517 l 294 0 m 220 -290 l 335 -90 l 463 -90 l 392 -290 l 220 -290 z "},"ķ":{"ha":614,"x_min":80,"x_max":578,"o":"m 256 957 l 256 0 l 256 0 l 168 0 l 80 0 l 80 0 l 80 957 l 80 957 l 168 957 l 256 957 l 256 957 m 397 0 l 256 363 l 256 363 l 389 666 l 389 666 l 484 666 l 578 666 l 578 666 l 436 374 l 436 374 l 578 0 l 578 0 l 488 0 l 397 0 l 397 0 m 148 -290 l 262 -90 l 390 -90 l 319 -290 l 148 -290 z "},"Ĺ":{"ha":589,"x_min":97,"x_max":547,"o":"m 102 0 l 102 0 l 102 957 l 102 957 l 199 957 l 298 957 l 298 957 l 298 142 l 298 142 l 547 142 l 547 142 l 547 71 l 547 0 l 547 0 l 102 0 m 97 1031 l 216 1214 l 418 1214 l 239 1031 l 97 1031 z "},"ĺ":{"ha":333,"x_min":81,"x_max":402,"o":"m 96 0 l 96 957 l 96 957 l 184 957 l 272 957 l 272 957 l 272 0 l 272 0 l 184 0 l 96 0 l 96 0 m 81 1031 l 201 1214 l 402 1214 l 224 1031 l 81 1031 z "},"Ļ":{"ha":589,"x_min":97,"x_max":542,"o":"m 97 0 l 97 0 l 97 957 l 97 957 l 195 957 l 293 957 l 293 957 l 293 142 l 293 142 l 542 142 l 542 142 l 542 71 l 542 0 l 542 0 l 97 0 m 141 -290 l 256 -90 l 383 -90 l 313 -290 l 141 -290 z "},"ļ":{"ha":333,"x_min":-9,"x_max":257,"o":"m 81 0 l 81 957 l 81 957 l 169 957 l 257 957 l 257 957 l 257 0 l 257 0 l 170 0 l 81 0 l 81 0 m -9 -290 l 105 -90 l 233 -90 l 162 -290 l -9 -290 z "},"Ľ":{"ha":589,"x_min":97,"x_max":542,"o":"m 97 0 l 97 0 l 97 957 l 97 957 l 195 957 l 293 957 l 293 957 l 293 142 l 293 142 l 542 142 l 542 142 l 542 71 l 542 0 l 542 0 l 97 0 m 375 724 l 404 957 l 532 957 l 466 724 l 375 724 z "},"ľ":{"ha":461,"x_min":81,"x_max":495,"o":"m 81 0 l 81 957 l 81 957 l 169 957 l 257 957 l 257 957 l 257 0 l 257 0 l 170 0 l 81 0 l 81 0 m 338 724 l 367 957 l 495 957 l 429 724 l 338 724 z "},"Ł":{"ha":614,"x_min":17,"x_max":557,"o":"m 113 0 l 113 0 l 113 957 l 113 957 l 210 957 l 309 957 l 309 957 l 309 142 l 309 142 l 557 142 l 557 142 l 557 71 l 557 0 l 557 0 l 113 0 m 17 432 l 429 854 l 429 659 l 17 236 l 17 432 z "},"ł":{"ha":359,"x_min":11,"x_max":353,"o":"m 94 0 l 94 957 l 94 957 l 182 957 l 270 957 l 270 957 l 270 0 l 270 0 l 182 0 l 94 0 l 94 0 m 11 412 l 353 819 l 353 622 l 11 215 l 11 412 z "},"Ń":{"ha":794,"x_min":96,"x_max":711,"o":"m 257 0 l 257 0 l 177 0 l 96 0 l 96 0 l 96 957 l 96 957 l 240 957 l 385 957 l 385 957 l 550 149 l 550 149 l 550 149 l 550 957 l 550 957 l 630 957 l 711 957 l 711 957 l 711 0 l 568 0 l 424 0 l 257 814 l 257 814 l 257 814 l 257 0 m 330 1031 l 449 1214 l 650 1214 l 472 1031 l 330 1031 z "},"ń":{"ha":640,"x_min":78,"x_max":567,"o":"m 78 0 l 78 666 l 78 666 l 165 666 l 254 666 l 254 666 l 254 604 l 254 604 l 254 604 q 417 680 311 680 q 530 636 492 680 q 567 505 567 593 l 567 0 l 567 0 l 479 0 l 391 0 l 391 0 l 391 484 q 377 543 391 525 q 330 562 362 562 q 268 527 286 562 q 254 408 251 492 l 254 408 l 254 0 l 254 0 l 166 0 l 78 0 l 78 0 m 234 748 l 315 963 l 508 963 l 380 748 l 234 748 z "},"Ņ":{"ha":794,"x_min":96,"x_max":711,"o":"m 257 0 l 257 0 l 177 0 l 96 0 l 96 0 l 96 957 l 96 957 l 240 957 l 385 957 l 385 957 l 550 149 l 550 149 l 550 149 l 550 957 l 550 957 l 630 957 l 711 957 l 711 957 l 711 0 l 568 0 l 424 0 l 257 814 l 257 814 l 257 814 l 257 0 m 225 -290 l 340 -90 l 467 -90 l 397 -290 l 225 -290 z "},"ņ":{"ha":640,"x_min":78,"x_max":567,"o":"m 78 0 l 78 666 l 78 666 l 165 666 l 254 666 l 254 666 l 254 604 l 254 604 l 254 604 q 417 680 311 680 q 530 636 492 680 q 567 505 567 593 l 567 0 l 567 0 l 479 0 l 391 0 l 391 0 l 391 484 q 377 543 391 525 q 330 562 362 562 q 268 527 286 562 q 254 408 251 492 l 254 408 l 254 0 l 254 0 l 166 0 l 78 0 l 78 0 m 144 -290 l 258 -90 l 386 -90 l 315 -290 l 144 -290 z "},"Ň":{"ha":794,"x_min":96,"x_max":711,"o":"m 257 0 l 257 0 l 177 0 l 96 0 l 96 0 l 96 957 l 96 957 l 240 957 l 385 957 l 385 957 l 550 149 l 550 149 l 550 149 l 550 957 l 550 957 l 630 957 l 711 957 l 711 957 l 711 0 l 568 0 l 424 0 l 257 814 l 257 814 l 257 814 l 257 0 m 323 1031 l 193 1213 l 342 1213 l 420 1098 l 420 1098 l 503 1213 l 652 1213 l 522 1031 l 422 1031 l 323 1031 z "},"ň":{"ha":640,"x_min":78,"x_max":567,"o":"m 78 0 l 78 666 l 78 666 l 165 666 l 254 666 l 254 666 l 254 604 l 254 604 l 254 604 q 417 680 311 680 q 530 636 492 680 q 567 505 567 593 l 567 0 l 567 0 l 479 0 l 391 0 l 391 0 l 391 484 q 377 543 391 525 q 330 562 362 562 q 268 527 286 562 q 254 408 251 492 l 254 408 l 254 0 l 254 0 l 166 0 l 78 0 l 78 0 m 227 749 l 145 964 l 258 964 l 322 841 l 322 841 l 386 964 l 499 964 l 418 749 l 322 749 l 227 749 z "},"Ō":{"ha":768,"x_min":87,"x_max":684,"o":"m 385 -14 q 155 59 222 -14 q 87 311 87 132 l 87 705 q 162 905 87 838 q 385 971 236 971 q 609 905 534 971 q 684 705 684 838 l 684 311 q 616 59 684 132 q 385 -14 549 -14 l 385 -14 m 385 130 q 465 168 443 130 q 488 302 488 205 l 488 696 q 461 794 488 761 q 385 827 435 827 q 309 794 335 827 q 283 696 283 761 l 283 302 q 306 168 283 205 q 385 130 328 130 l 385 130 m 162 1162 l 608 1162 l 608 1042 l 162 1042 l 162 1162 z "},"ō":{"ha":614,"x_min":64,"x_max":553,"o":"m 309 -14 q 122 45 179 -14 q 64 239 64 105 l 64 427 q 122 621 64 561 q 309 680 179 680 q 496 621 438 680 q 553 427 553 561 l 553 239 q 496 45 553 105 q 309 -14 438 -14 l 309 -14 m 309 91 q 365 123 351 91 q 379 254 379 155 l 379 441 q 363 545 379 515 q 309 575 347 575 q 254 545 270 575 q 239 441 239 515 l 239 254 q 252 123 239 155 q 309 91 266 91 l 309 91 m 85 923 l 532 923 l 532 799 l 85 799 l 85 923 z "},"Ő":{"ha":768,"x_min":87,"x_max":784,"o":"m 385 -14 q 155 59 222 -14 q 87 311 87 132 l 87 705 q 162 905 87 838 q 385 971 236 971 q 609 905 534 971 q 684 705 684 838 l 684 311 q 616 59 684 132 q 385 -14 549 -14 l 385 -14 m 385 130 q 465 168 443 130 q 488 302 488 205 l 488 696 q 461 794 488 761 q 385 827 435 827 q 309 794 335 827 q 283 696 283 761 l 283 302 q 306 168 283 205 q 385 130 328 130 l 385 130 m 191 1031 l 310 1214 l 511 1214 l 333 1031 l 191 1031 m 463 1031 l 583 1214 l 784 1214 l 606 1031 l 463 1031 z "},"ő":{"ha":614,"x_min":64,"x_max":658,"o":"m 309 -14 q 122 45 179 -14 q 64 239 64 105 l 64 427 q 122 621 64 561 q 309 680 179 680 q 496 621 438 680 q 553 427 553 561 l 553 239 q 496 45 553 105 q 309 -14 438 -14 l 309 -14 m 309 91 q 365 123 351 91 q 379 254 379 155 l 379 441 q 363 545 379 515 q 309 575 347 575 q 254 545 270 575 q 239 441 239 515 l 239 254 q 252 123 239 155 q 309 91 266 91 l 309 91 m 138 744 l 219 959 l 412 959 l 283 744 l 138 744 m 384 744 l 465 959 l 658 959 l 530 744 l 384 744 z "},"Œ":{"ha":1076,"x_min":87,"x_max":1013,"o":"m 448 964 q 504 963 479 964 q 535 961 530 962 q 566 958 541 959 q 622 957 591 957 l 725 957 l 725 957 l 1013 957 l 1013 957 l 1013 886 l 1013 814 l 1013 814 l 725 814 l 725 814 l 725 562 l 725 562 l 998 562 l 998 490 l 998 419 l 998 419 l 725 419 l 725 419 l 725 142 l 725 142 l 1013 142 l 1013 142 l 1013 71 l 1013 0 l 1013 0 l 725 0 l 725 0 l 622 0 q 553 -1 583 0 q 519 -3 523 -1 q 415 -5 511 -5 q 164 70 241 -5 q 87 315 87 145 l 87 605 q 161 891 87 817 q 448 964 235 964 m 455 821 q 321 782 359 821 q 283 645 283 743 l 283 355 q 318 186 283 234 q 441 139 353 139 q 529 147 508 139 l 529 147 l 529 815 l 529 815 q 455 821 509 821 z "},"œ":{"ha":922,"x_min":64,"x_max":860,"o":"m 279 680 q 444 617 393 680 q 470 570 459 597 l 470 570 q 492 612 479 595 q 652 680 538 680 q 816 621 772 680 q 860 399 860 562 l 860 302 l 860 302 l 554 302 l 554 302 l 554 281 q 567 128 554 165 q 620 91 580 91 q 673 118 659 91 q 686 207 688 144 l 686 227 l 860 227 l 860 207 q 807 41 862 96 q 640 -14 751 -14 q 490 47 536 -14 q 467 90 477 66 l 467 90 q 443 48 458 67 q 279 -14 393 -14 q 115 48 165 -14 q 64 253 64 111 l 64 412 q 115 617 64 554 q 279 680 165 680 m 309 575 q 253 539 267 575 q 239 393 239 504 l 239 302 q 253 132 239 174 q 309 91 267 91 q 367 125 353 91 q 380 268 380 160 l 380 427 q 366 547 380 517 q 309 575 353 575 m 686 404 l 686 404 l 686 441 q 672 547 686 519 q 620 575 658 575 q 568 541 582 575 q 554 413 554 507 l 554 404 l 554 404 l 686 404 z "},"Ŕ":{"ha":717,"x_min":83,"x_max":667,"o":"m 83 0 l 83 957 l 83 957 l 181 957 l 181 957 l 371 957 q 591 900 525 957 q 656 709 656 843 q 590 504 656 557 q 488 463 557 477 l 488 463 l 498 463 q 620 410 578 463 q 656 260 661 357 q 654 144 654 204 q 659 49 656 81 q 667 1 661 17 l 569 1 l 471 1 q 465 48 467 16 q 463 144 463 80 l 463 260 q 435 361 464 332 q 336 391 407 391 l 279 391 l 279 391 l 279 0 l 279 0 l 182 0 l 83 0 l 83 0 m 279 537 l 279 537 l 334 537 q 435 565 410 537 q 460 677 460 593 q 434 785 460 756 q 334 813 407 813 l 279 813 l 279 813 l 279 537 m 239 1031 l 358 1214 l 559 1214 l 381 1031 l 239 1031 z "},"ŕ":{"ha":461,"x_min":81,"x_max":439,"o":"m 81 0 l 81 666 l 81 666 l 164 666 l 248 666 l 248 666 l 248 580 l 248 580 l 248 580 q 269 613 258 598 q 427 680 315 673 l 427 530 q 389 533 410 534 q 283 496 313 533 q 256 367 254 458 l 256 367 l 256 0 l 256 0 l 169 0 l 81 0 l 81 0 m 165 748 l 247 963 l 439 963 l 311 748 l 165 748 z "},"Ŗ":{"ha":717,"x_min":83,"x_max":667,"o":"m 83 0 l 83 957 l 83 957 l 181 957 l 181 957 l 371 957 q 591 900 525 957 q 656 709 656 843 q 590 504 656 557 q 488 463 557 477 l 488 463 l 498 463 q 620 410 578 463 q 656 260 661 357 q 654 144 654 204 q 659 49 656 81 q 667 1 661 17 l 569 1 l 471 1 q 465 48 467 16 q 463 144 463 80 l 463 260 q 435 361 464 332 q 336 391 407 391 l 279 391 l 279 391 l 279 0 l 279 0 l 182 0 l 83 0 l 83 0 m 279 537 l 279 537 l 334 537 q 435 565 410 537 q 460 677 460 593 q 434 785 460 756 q 334 813 407 813 l 279 813 l 279 813 l 279 537 m 197 -290 l 311 -90 l 439 -90 l 368 -290 l 197 -290 z "},"ŗ":{"ha":461,"x_min":-47,"x_max":391,"o":"m 44 0 l 44 666 l 44 666 l 127 666 l 212 666 l 212 666 l 212 580 l 212 580 l 212 580 q 232 613 221 598 q 391 680 279 673 l 391 530 q 353 533 374 534 q 247 496 277 533 q 220 367 217 458 l 220 367 l 220 0 l 220 0 l 132 0 l 44 0 l 44 0 m -47 -290 l 68 -90 l 195 -90 l 125 -290 l -47 -290 z "},"Ř":{"ha":717,"x_min":83,"x_max":667,"o":"m 83 0 l 83 957 l 83 957 l 181 957 l 181 957 l 371 957 q 591 900 525 957 q 656 709 656 843 q 590 504 656 557 q 488 463 557 477 l 488 463 l 498 463 q 620 410 578 463 q 656 260 661 357 q 654 144 654 204 q 659 49 656 81 q 667 1 661 17 l 569 1 l 471 1 q 465 48 467 16 q 463 144 463 80 l 463 260 q 435 361 464 332 q 336 391 407 391 l 279 391 l 279 391 l 279 0 l 279 0 l 182 0 l 83 0 l 83 0 m 279 537 l 279 537 l 334 537 q 435 565 410 537 q 460 677 460 593 q 434 785 460 756 q 334 813 407 813 l 279 813 l 279 813 l 279 537 m 241 1031 l 112 1213 l 260 1213 l 339 1098 l 339 1098 l 422 1213 l 570 1213 l 441 1031 l 341 1031 l 241 1031 z "},"ř":{"ha":461,"x_min":72,"x_max":426,"o":"m 76 0 l 76 666 l 76 666 l 159 666 l 243 666 l 243 666 l 243 580 l 243 580 l 243 580 q 264 613 253 598 q 422 680 311 673 l 422 530 q 385 533 406 534 q 279 496 309 533 q 252 367 249 458 l 252 367 l 252 0 l 252 0 l 164 0 l 76 0 l 76 0 m 153 749 l 72 964 l 185 964 l 249 841 l 249 841 l 313 964 l 426 964 l 345 749 l 249 749 l 153 749 z "},"Ś":{"ha":743,"x_min":71,"x_max":671,"o":"m 467 661 l 467 689 q 448 796 468 765 q 376 827 427 827 q 301 799 326 827 q 276 712 276 770 q 306 635 276 667 q 409 569 335 604 q 613 434 555 500 q 671 273 671 368 q 596 57 671 129 q 371 -14 522 -14 q 139 50 207 -14 q 71 259 71 114 l 71 268 l 71 296 l 264 296 l 264 268 q 289 164 262 199 q 371 130 316 130 q 451 161 425 130 q 477 255 477 192 q 445 336 477 302 q 333 408 413 370 q 138 537 193 473 q 82 694 82 600 q 157 902 82 833 q 382 971 232 971 q 601 907 537 971 q 660 710 661 846 l 660 689 l 660 661 l 467 661 m 280 1031 l 399 1214 l 601 1214 l 422 1031 l 280 1031 z "},"ś":{"ha":564,"x_min":43,"x_max":523,"o":"m 336 466 l 336 486 q 325 553 338 530 q 281 575 311 575 q 236 559 251 575 q 222 509 222 543 q 242 457 222 479 q 313 414 262 436 q 481 315 439 359 q 523 192 523 271 q 463 37 523 89 q 283 -14 404 -14 q 98 36 155 -14 q 43 193 43 85 l 43 200 l 43 220 l 218 220 l 218 200 q 230 115 216 140 q 283 91 245 91 q 335 111 318 91 q 353 170 353 130 q 330 231 353 207 q 254 279 309 255 q 89 374 130 332 q 48 488 48 416 q 106 632 48 585 q 281 680 164 680 q 458 634 403 680 q 513 490 513 588 l 513 486 l 513 466 l 336 466 m 193 748 l 274 963 l 467 963 l 338 748 l 193 748 z "},"Ş":{"ha":743,"x_min":71,"x_max":671,"o":"m 467 661 l 467 689 q 448 796 468 765 q 376 827 427 827 q 301 799 326 827 q 276 712 276 770 q 306 635 276 667 q 409 569 335 604 q 613 434 555 500 q 671 273 671 368 q 596 57 671 129 q 371 -14 522 -14 q 139 50 207 -14 q 71 259 71 114 l 71 268 l 71 296 l 264 296 l 264 268 q 289 164 262 199 q 371 130 316 130 q 451 161 425 130 q 477 255 477 192 q 445 336 477 302 q 333 408 413 370 q 138 537 193 473 q 82 694 82 600 q 157 902 82 833 q 382 971 232 971 q 601 907 537 971 q 660 710 661 846 l 660 689 l 660 661 l 467 661 m 193 -290 l 307 -90 l 435 -90 l 364 -290 l 193 -290 z "},"ş":{"ha":564,"x_min":43,"x_max":523,"o":"m 336 466 l 336 486 q 325 553 338 530 q 281 575 311 575 q 236 559 251 575 q 222 509 222 543 q 242 457 222 479 q 313 414 262 436 q 481 315 439 359 q 523 192 523 271 q 463 37 523 89 q 283 -14 404 -14 q 98 36 155 -14 q 43 193 43 85 l 43 200 l 43 220 l 218 220 l 218 200 q 230 115 216 140 q 283 91 245 91 q 335 111 318 91 q 353 170 353 130 q 330 231 353 207 q 254 279 309 255 q 89 374 130 332 q 48 488 48 416 q 106 632 48 585 q 281 680 164 680 q 458 634 403 680 q 513 490 513 588 l 513 486 l 513 466 l 336 466 m 133 -275 l 248 -72 l 372 -72 l 304 -275 l 133 -275 z "},"Š":{"ha":743,"x_min":71,"x_max":671,"o":"m 467 661 l 467 689 q 448 796 468 765 q 376 827 427 827 q 301 799 326 827 q 276 712 276 770 q 306 635 276 667 q 409 569 335 604 q 613 434 555 500 q 671 273 671 368 q 596 57 671 129 q 371 -14 522 -14 q 139 50 207 -14 q 71 259 71 114 l 71 268 l 71 296 l 264 296 l 264 268 q 289 164 262 199 q 371 130 316 130 q 451 161 425 130 q 477 255 477 192 q 445 336 477 302 q 333 408 413 370 q 138 537 193 473 q 82 694 82 600 q 157 902 82 833 q 382 971 232 971 q 601 907 537 971 q 660 710 661 846 l 660 689 l 660 661 l 467 661 m 283 1031 l 153 1213 l 302 1213 l 380 1098 l 380 1098 l 463 1213 l 612 1213 l 482 1031 l 382 1031 l 283 1031 z "},"š":{"ha":564,"x_min":43,"x_max":523,"o":"m 336 466 l 336 486 q 325 553 338 530 q 281 575 311 575 q 236 559 251 575 q 222 509 222 543 q 242 457 222 479 q 313 414 262 436 q 481 315 439 359 q 523 192 523 271 q 463 37 523 89 q 283 -14 404 -14 q 98 36 155 -14 q 43 193 43 85 l 43 200 l 43 220 l 218 220 l 218 200 q 230 115 216 140 q 283 91 245 91 q 335 111 318 91 q 353 170 353 130 q 330 231 353 207 q 254 279 309 255 q 89 374 130 332 q 48 488 48 416 q 106 632 48 585 q 281 680 164 680 q 458 634 403 680 q 513 490 513 588 l 513 486 l 513 466 l 336 466 m 185 749 l 104 964 l 217 964 l 281 841 l 281 841 l 345 964 l 458 964 l 376 749 l 281 749 l 185 749 z "},"Ţ":{"ha":692,"x_min":43,"x_max":650,"o":"m 249 0 l 249 814 l 249 814 l 43 814 l 43 814 l 43 886 l 43 957 l 43 957 l 650 957 l 650 957 l 650 886 l 650 814 l 650 814 l 445 814 l 445 814 l 445 0 l 445 0 l 347 0 l 249 0 l 249 0 m 168 -290 l 283 -90 l 410 -90 l 340 -290 l 168 -290 z "},"ţ":{"ha":435,"x_min":29,"x_max":408,"o":"m 408 -6 q 290 -14 356 -14 q 165 35 207 -14 q 123 183 123 85 l 123 548 l 123 548 l 29 548 l 29 666 l 123 666 l 123 666 l 123 772 l 298 845 l 298 666 l 298 666 l 408 666 l 408 548 l 298 548 l 298 548 l 298 183 q 309 120 298 135 q 353 105 319 105 q 408 109 382 106 l 408 -6 m 106 -275 l 220 -72 l 345 -72 l 277 -275 l 106 -275 z "},"Ť":{"ha":692,"x_min":43,"x_max":650,"o":"m 249 0 l 249 814 l 249 814 l 43 814 l 43 814 l 43 886 l 43 957 l 43 957 l 650 957 l 650 957 l 650 886 l 650 814 l 650 814 l 445 814 l 445 814 l 445 0 l 445 0 l 347 0 l 249 0 l 249 0 m 247 1031 l 117 1213 l 266 1213 l 345 1098 l 345 1098 l 427 1213 l 576 1213 l 446 1031 l 347 1031 l 247 1031 z "},"ť":{"ha":512,"x_min":29,"x_max":522,"o":"m 408 -6 q 290 -14 356 -14 q 165 35 207 -14 q 123 183 123 85 l 123 548 l 123 548 l 29 548 l 29 666 l 123 666 l 123 666 l 123 772 l 298 845 l 298 666 l 298 666 l 408 666 l 408 548 l 298 548 l 298 548 l 298 183 q 309 120 298 135 q 353 105 319 105 q 408 109 382 106 l 408 -6 m 365 722 l 393 955 l 522 955 l 456 722 l 365 722 z "},"Ū":{"ha":768,"x_min":90,"x_max":678,"o":"m 678 269 q 605 56 678 127 q 384 -14 531 -14 q 163 56 237 -14 q 90 269 90 127 l 90 957 l 90 957 l 186 957 l 283 957 l 283 957 l 283 256 q 306 156 283 184 q 384 128 328 128 q 462 156 440 128 q 484 256 484 184 l 484 957 l 484 957 l 581 957 l 678 957 l 678 957 l 678 269 m 161 1162 l 607 1162 l 607 1042 l 161 1042 l 161 1162 z "},"ū":{"ha":640,"x_min":76,"x_max":567,"o":"m 252 666 l 252 199 q 267 127 252 149 q 315 104 281 104 q 377 139 359 104 q 391 258 394 174 l 391 258 l 391 666 l 391 666 l 479 666 l 567 666 l 567 666 l 567 0 l 567 0 l 485 0 l 402 0 l 402 0 l 402 66 l 402 66 l 402 66 q 241 -14 332 -14 q 117 34 158 -14 q 76 178 76 82 l 76 666 l 76 666 l 163 666 l 252 666 l 252 666 m 98 923 l 545 923 l 545 799 l 98 799 l 98 923 z "},"Ů":{"ha":768,"x_min":90,"x_max":678,"o":"m 678 269 q 605 56 678 127 q 384 -14 531 -14 q 163 56 237 -14 q 90 269 90 127 l 90 957 l 90 957 l 186 957 l 283 957 l 283 957 l 283 256 q 306 156 283 184 q 384 128 328 128 q 462 156 440 128 q 484 256 484 184 l 484 957 l 484 957 l 581 957 l 678 957 l 678 957 l 678 269 m 384 1034 q 283 1075 324 1034 q 242 1175 242 1116 q 283 1276 242 1235 q 384 1317 324 1317 q 485 1276 444 1317 q 526 1175 526 1235 q 485 1075 526 1116 q 384 1034 444 1034 l 384 1034 m 384 1112 q 430 1130 411 1112 q 448 1175 448 1149 q 430 1220 448 1202 q 384 1239 411 1239 q 338 1220 357 1239 q 319 1175 319 1202 q 338 1130 319 1149 q 384 1112 357 1112 l 384 1112 z "},"ů":{"ha":640,"x_min":76,"x_max":567,"o":"m 252 666 l 252 199 q 267 127 252 149 q 315 104 281 104 q 377 139 359 104 q 391 258 394 174 l 391 258 l 391 666 l 391 666 l 479 666 l 567 666 l 567 666 l 567 0 l 567 0 l 485 0 l 402 0 l 402 0 l 402 66 l 402 66 l 402 66 q 241 -14 332 -14 q 117 34 158 -14 q 76 178 76 82 l 76 666 l 76 666 l 163 666 l 252 666 l 252 666 m 321 750 q 224 790 264 750 q 184 888 184 830 q 224 985 184 945 q 321 1025 264 1025 q 419 985 379 1025 q 459 888 459 945 q 419 790 459 830 q 321 750 379 750 l 321 750 m 321 828 q 364 845 347 828 q 382 888 382 863 q 364 930 382 913 q 321 947 347 947 q 279 930 296 947 q 261 888 261 913 q 279 845 261 863 q 321 828 296 828 l 321 828 z "},"Ű":{"ha":768,"x_min":90,"x_max":783,"o":"m 678 269 q 605 56 678 127 q 384 -14 531 -14 q 163 56 237 -14 q 90 269 90 127 l 90 957 l 90 957 l 186 957 l 283 957 l 283 957 l 283 256 q 306 156 283 184 q 384 128 328 128 q 462 156 440 128 q 484 256 484 184 l 484 957 l 484 957 l 581 957 l 678 957 l 678 957 l 678 269 m 189 1031 l 309 1214 l 510 1214 l 332 1031 l 189 1031 m 462 1031 l 581 1214 l 783 1214 l 604 1031 l 462 1031 z "},"ű":{"ha":640,"x_min":76,"x_max":671,"o":"m 252 666 l 252 199 q 267 127 252 149 q 315 104 281 104 q 377 139 359 104 q 391 258 394 174 l 391 258 l 391 666 l 391 666 l 479 666 l 567 666 l 567 666 l 567 0 l 567 0 l 485 0 l 402 0 l 402 0 l 402 66 l 402 66 l 402 66 q 241 -14 332 -14 q 117 34 158 -14 q 76 178 76 82 l 76 666 l 76 666 l 163 666 l 252 666 l 252 666 m 151 744 l 232 959 l 425 959 l 296 744 l 151 744 m 397 744 l 478 959 l 671 959 l 543 744 l 397 744 z "},"Ų":{"ha":768,"x_min":90,"x_max":678,"o":"m 678 269 q 605 56 678 127 q 384 -14 531 -14 q 163 56 237 -14 q 90 269 90 127 l 90 957 l 90 957 l 186 957 l 283 957 l 283 957 l 283 256 q 306 156 283 184 q 384 128 328 128 q 462 156 440 128 q 484 256 484 184 l 484 957 l 484 957 l 581 957 l 678 957 l 678 957 l 678 269 m 326 -129 q 378 -19 326 -68 q 516 49 431 30 l 524 9 q 464 -30 486 -3 q 442 -94 442 -58 q 461 -134 442 -119 q 511 -150 480 -150 q 545 -149 542 -150 l 545 -250 q 515 -252 532 -251 q 486 -252 499 -252 q 368 -220 411 -252 q 326 -129 326 -187 z "},"ų":{"ha":640,"x_min":76,"x_max":567,"o":"m 252 666 l 252 199 q 267 127 252 149 q 315 104 281 104 q 377 139 359 104 q 391 258 394 174 l 391 258 l 391 666 l 391 666 l 479 666 l 567 666 l 567 666 l 567 0 l 567 0 l 485 0 l 402 0 l 402 0 l 402 66 l 402 66 l 402 66 q 241 -14 332 -14 q 117 34 158 -14 q 76 178 76 82 l 76 666 l 76 666 l 163 666 l 252 666 l 252 666 m 352 -107 q 376 -39 352 -72 q 443 16 400 -7 l 530 16 q 473 -32 491 -9 q 454 -79 454 -55 q 473 -113 454 -100 q 523 -125 492 -125 q 557 -125 551 -125 l 557 -221 q 531 -224 546 -223 q 501 -225 515 -225 q 393 -193 434 -225 q 352 -107 352 -160 z "},"Ÿ":{"ha":717,"x_min":36,"x_max":678,"o":"m 260 357 l 260 357 l 36 957 l 36 957 l 140 957 l 245 957 l 245 957 l 358 576 l 358 576 l 482 957 l 482 957 l 580 957 l 678 957 l 678 957 l 456 365 l 456 365 l 456 0 l 358 0 l 260 0 l 260 357 m 149 1189 l 303 1189 l 303 1035 l 149 1035 l 149 1189 m 411 1189 l 566 1189 l 566 1035 l 411 1035 l 411 1189 z "},"Ź":{"ha":640,"x_min":46,"x_max":594,"o":"m 46 184 l 380 773 l 404 814 l 404 814 l 61 814 l 61 814 l 61 886 l 61 957 l 61 957 l 594 957 l 594 865 l 594 773 l 260 184 l 236 142 l 236 142 l 591 142 l 591 142 l 591 71 l 591 0 l 591 0 l 46 0 l 46 92 l 46 184 m 225 1031 l 345 1214 l 546 1214 l 368 1031 l 225 1031 z "},"ź":{"ha":512,"x_min":47,"x_max":469,"o":"m 47 154 l 283 528 l 297 549 l 297 549 l 67 549 l 67 549 l 67 608 l 67 666 l 67 666 l 465 666 l 465 597 l 465 528 l 241 154 l 218 117 l 218 117 l 469 117 l 469 117 l 469 58 l 469 0 l 469 0 l 47 0 l 47 77 l 47 154 m 178 748 l 259 963 l 452 963 l 323 748 l 178 748 z "},"Ż":{"ha":640,"x_min":46,"x_max":594,"o":"m 46 184 l 380 773 l 404 814 l 404 814 l 61 814 l 61 814 l 61 886 l 61 957 l 61 957 l 594 957 l 594 865 l 594 773 l 260 184 l 236 142 l 236 142 l 591 142 l 591 142 l 591 71 l 591 0 l 591 0 l 46 0 l 46 92 l 46 184 m 241 1202 l 414 1202 l 414 1042 l 241 1042 l 241 1202 z "},"ż":{"ha":512,"x_min":47,"x_max":469,"o":"m 47 154 l 283 528 l 297 549 l 297 549 l 67 549 l 67 549 l 67 608 l 67 666 l 67 666 l 465 666 l 465 597 l 465 528 l 241 154 l 218 117 l 218 117 l 469 117 l 469 117 l 469 58 l 469 0 l 469 0 l 47 0 l 47 77 l 47 154 m 178 962 l 353 962 l 353 799 l 178 799 l 178 962 z "},"Ž":{"ha":640,"x_min":46,"x_max":594,"o":"m 46 184 l 380 773 l 404 814 l 404 814 l 61 814 l 61 814 l 61 886 l 61 957 l 61 957 l 594 957 l 594 865 l 594 773 l 260 184 l 236 142 l 236 142 l 591 142 l 591 142 l 591 71 l 591 0 l 591 0 l 46 0 l 46 92 l 46 184 m 228 1031 l 98 1213 l 247 1213 l 326 1098 l 326 1098 l 408 1213 l 557 1213 l 427 1031 l 328 1031 l 228 1031 z "},"ž":{"ha":512,"x_min":47,"x_max":469,"o":"m 47 154 l 283 528 l 297 549 l 297 549 l 67 549 l 67 549 l 67 608 l 67 666 l 67 666 l 465 666 l 465 597 l 465 528 l 241 154 l 218 117 l 218 117 l 469 117 l 469 117 l 469 58 l 469 0 l 469 0 l 47 0 l 47 77 l 47 154 m 170 749 l 89 964 l 202 964 l 266 841 l 266 841 l 330 964 l 443 964 l 361 749 l 266 749 l 170 749 z "},"ƒ":{"ha":666,"x_min":57,"x_max":625,"o":"m 399 548 l 399 548 l 241 0 l 241 0 l 149 0 l 57 0 l 57 0 l 216 548 l 216 548 l 122 548 l 157 666 l 250 666 l 250 666 l 281 774 q 368 923 312 880 q 530 966 424 966 q 625 955 581 966 l 593 845 q 567 846 581 847 q 500 830 523 846 q 465 774 477 814 l 434 666 l 434 666 l 535 666 l 500 548 l 399 548 z "},"ˆ":{"ha":666,"x_min":162,"x_max":516,"o":"m 435 963 l 516 748 l 403 748 l 339 871 l 339 871 l 275 748 l 162 748 l 243 963 l 339 963 l 435 963 z "},"ˇ":{"ha":666,"x_min":162,"x_max":516,"o":"m 243 749 l 162 964 l 275 964 l 339 841 l 339 841 l 403 964 l 516 964 l 435 749 l 339 749 l 243 749 z "},"ˉ":{"ha":666,"x_min":119,"x_max":566,"o":"m 119 923 l 566 923 l 566 799 l 119 799 l 119 923 z "},"˘":{"ha":666,"x_min":150,"x_max":523,"o":"m 336 744 q 196 797 241 744 q 150 959 150 849 l 270 959 q 285 862 270 890 q 336 833 300 833 q 388 862 373 833 q 403 959 403 890 l 523 959 q 477 797 523 849 q 336 744 431 744 z "},"˙":{"ha":666,"x_min":247,"x_max":422,"o":"m 247 962 l 422 962 l 422 799 l 247 799 l 247 962 z "},"˚":{"ha":666,"x_min":194,"x_max":469,"o":"m 332 750 q 234 790 274 750 q 194 888 194 830 q 234 985 194 945 q 332 1025 274 1025 q 429 985 389 1025 q 469 888 469 945 q 429 790 469 830 q 332 750 389 750 l 332 750 m 332 828 q 374 845 357 828 q 392 888 392 863 q 374 930 392 913 q 332 947 357 947 q 289 930 307 947 q 271 888 271 913 q 289 845 271 863 q 332 828 307 828 l 332 828 z "},"˛":{"ha":666,"x_min":365,"x_max":570,"o":"m 365 -107 q 389 -39 365 -72 q 456 16 413 -7 l 543 16 q 486 -32 504 -9 q 467 -79 467 -55 q 486 -113 467 -100 q 536 -125 505 -125 q 570 -125 564 -125 l 570 -221 q 544 -224 559 -223 q 514 -225 528 -225 q 406 -193 447 -225 q 365 -107 365 -160 z "},"˜":{"ha":666,"x_min":171,"x_max":530,"o":"m 171 754 q 187 903 168 860 q 258 946 207 946 q 305 935 278 946 q 378 897 332 924 q 393 891 382 894 q 410 888 404 888 q 423 905 418 888 q 427 946 428 922 l 530 946 q 513 794 532 835 q 441 754 494 754 q 400 765 427 754 q 323 804 374 777 q 309 810 319 807 q 294 812 298 812 q 279 795 285 812 q 275 754 273 779 l 171 754 z "},"˝":{"ha":666,"x_min":150,"x_max":670,"o":"m 150 744 l 231 959 l 424 959 l 296 744 l 150 744 m 396 744 l 477 959 l 670 959 l 542 744 l 396 744 z "},"Е":{"ha":640,"x_min":94,"x_max":577,"o":"m 94 0 l 94 0 l 94 957 l 94 957 l 572 957 l 572 957 l 572 886 l 572 814 l 572 814 l 290 814 l 290 814 l 290 562 l 290 562 l 562 562 l 562 490 l 562 419 l 562 419 l 290 419 l 290 419 l 290 142 l 290 142 l 577 142 l 577 142 l 577 71 l 577 0 l 577 0 l 94 0 z "},"Ё":{"ha":640,"x_min":94,"x_max":577,"o":"m 94 0 l 94 0 l 94 957 l 94 957 l 572 957 l 572 957 l 572 886 l 572 814 l 572 814 l 290 814 l 290 814 l 290 562 l 290 562 l 562 562 l 562 490 l 562 419 l 562 419 l 290 419 l 290 419 l 290 142 l 290 142 l 577 142 l 577 142 l 577 71 l 577 0 l 577 0 l 94 0 m 125 1189 l 279 1189 l 279 1035 l 125 1035 l 125 1189 m 387 1189 l 542 1189 l 542 1035 l 387 1035 l 387 1189 z "},"Ђ":{"ha":884,"x_min":43,"x_max":811,"o":"m 532 523 q 483 510 507 523 q 445 477 458 498 l 445 477 l 445 0 l 445 0 l 347 0 l 249 0 l 249 0 l 249 814 l 249 814 l 43 814 l 43 814 l 43 886 l 43 957 l 43 957 l 650 957 l 650 957 l 650 886 l 650 814 l 650 814 l 445 814 l 445 814 l 445 600 l 445 600 l 445 600 l 453 604 q 593 644 526 644 q 754 568 700 644 q 811 338 808 492 q 747 74 812 162 q 554 -14 683 -14 q 536 -13 544 -14 q 522 -9 528 -12 l 522 -9 l 522 132 l 522 132 q 545 130 527 130 q 600 178 585 130 q 615 348 615 226 q 595 482 615 441 q 532 523 576 523 z "},"Г":{"ha":653,"x_min":96,"x_max":589,"o":"m 292 0 l 292 0 l 195 0 l 96 0 l 96 0 l 96 957 l 96 957 l 589 957 l 589 886 l 589 814 l 589 814 l 292 814 l 292 814 l 292 0 z "},"Ѓ":{"ha":653,"x_min":96,"x_max":589,"o":"m 292 0 l 292 0 l 195 0 l 96 0 l 96 0 l 96 957 l 96 957 l 589 957 l 589 886 l 589 814 l 589 814 l 292 814 l 292 814 l 292 0 m 254 1031 l 336 1246 l 528 1246 l 400 1031 l 254 1031 z "},"Є":{"ha":717,"x_min":79,"x_max":662,"o":"m 662 326 l 662 297 q 600 57 665 129 q 379 -14 534 -14 q 147 63 214 -14 q 79 330 79 141 l 79 625 q 147 893 79 816 q 379 971 214 971 q 591 899 522 971 q 656 697 656 831 l 656 679 l 656 650 l 461 650 l 461 679 q 442 790 463 753 q 379 827 421 827 q 300 785 324 827 q 275 647 275 743 l 275 562 l 275 562 l 469 562 l 469 419 l 275 419 l 275 419 l 275 352 q 298 178 275 227 q 379 130 321 130 q 447 171 425 130 q 467 297 469 213 l 467 326 l 662 326 z "},"Ѕ":{"ha":743,"x_min":71,"x_max":671,"o":"m 467 661 l 467 689 q 448 796 468 765 q 376 827 427 827 q 301 799 326 827 q 276 712 276 770 q 306 635 276 667 q 409 569 335 604 q 613 434 555 500 q 671 273 671 368 q 596 57 671 129 q 371 -14 522 -14 q 139 50 207 -14 q 71 259 71 114 l 71 268 l 71 296 l 264 296 l 264 268 q 289 164 262 199 q 371 130 316 130 q 451 161 425 130 q 477 255 477 192 q 445 336 477 302 q 333 408 413 370 q 138 537 193 473 q 82 694 82 600 q 157 902 82 833 q 382 971 232 971 q 601 907 537 971 q 660 710 661 846 l 660 689 l 660 661 l 467 661 z "},"І":{"ha":359,"x_min":85,"x_max":281,"o":"m 85 0 l 85 957 l 85 957 l 182 957 l 281 957 l 281 957 l 281 0 l 281 0 l 183 0 l 85 0 l 85 0 z "},"Ї":{"ha":359,"x_min":-31,"x_max":387,"o":"m 80 0 l 80 957 l 80 957 l 178 957 l 276 957 l 276 957 l 276 0 l 276 0 l 178 0 l 80 0 l 80 0 m -31 1189 l 124 1189 l 124 1035 l -31 1035 l -31 1189 m 232 1189 l 387 1189 l 387 1035 l 232 1035 l 232 1189 z "},"Ј":{"ha":666,"x_min":44,"x_max":574,"o":"m 382 957 l 382 957 l 478 957 l 574 957 l 574 957 l 574 229 q 509 45 574 105 q 309 -14 444 -14 q 102 54 163 -14 q 44 283 41 122 l 44 311 l 239 311 l 239 283 q 254 164 238 198 q 310 131 269 131 q 364 156 346 131 q 382 229 382 180 l 382 229 l 382 957 z "},"Љ":{"ha":1111,"x_min":44,"x_max":1044,"o":"m 458 814 l 458 814 l 321 814 l 321 814 l 321 243 q 264 46 321 107 q 78 -14 207 -14 l 44 -14 l 44 151 l 62 151 q 111 172 96 151 q 125 243 125 194 l 125 243 l 125 957 l 125 957 l 654 957 l 654 957 l 654 591 l 654 591 l 723 591 q 976 533 909 591 q 1044 313 1044 475 q 976 64 1044 128 q 713 0 908 0 l 555 0 l 458 0 l 458 0 l 458 814 m 654 448 l 654 144 l 654 144 l 718 144 q 830 176 802 144 q 858 304 858 208 q 831 417 858 387 q 728 448 804 448 l 654 448 l 654 448 z "},"Њ":{"ha":1134,"x_min":96,"x_max":1067,"o":"m 96 0 l 96 957 l 96 957 l 194 957 l 292 957 l 292 957 l 292 562 l 292 562 l 481 562 l 481 562 l 481 957 l 481 957 l 579 957 l 677 957 l 677 957 l 677 573 l 677 573 l 747 573 q 1000 516 932 573 q 1067 303 1067 460 q 1000 62 1067 124 q 736 0 932 0 l 579 0 l 481 0 l 481 0 l 481 419 l 481 419 l 292 419 l 292 419 l 292 0 l 292 0 l 195 0 l 96 0 l 96 0 m 677 429 l 677 144 l 677 144 l 742 144 q 854 174 826 144 q 882 295 882 204 q 854 401 882 373 q 752 429 827 429 l 677 429 l 677 429 z "},"Ћ":{"ha":884,"x_min":43,"x_max":811,"o":"m 532 523 q 483 510 507 523 q 445 477 458 498 l 445 477 l 445 0 l 445 0 l 347 0 l 249 0 l 249 0 l 249 814 l 249 814 l 43 814 l 43 814 l 43 886 l 43 957 l 43 957 l 650 957 l 650 957 l 650 886 l 650 814 l 650 814 l 445 814 l 445 814 l 445 600 l 445 600 l 445 600 l 453 604 q 593 644 526 644 q 757 587 703 644 q 811 415 811 530 l 811 0 l 811 0 l 713 0 l 615 0 l 615 0 l 615 418 q 595 498 615 474 q 532 523 576 523 z "},"К":{"ha":743,"x_min":98,"x_max":716,"o":"m 98 0 l 98 957 l 98 957 l 196 957 l 294 957 l 294 957 l 294 593 l 294 593 q 420 624 380 594 q 462 727 460 654 l 463 766 q 515 912 468 867 q 662 957 562 957 l 703 957 l 703 793 l 682 793 q 647 777 659 793 q 634 727 635 760 l 633 700 q 559 542 630 583 q 522 526 544 533 l 522 526 q 590 498 565 515 q 673 316 661 451 l 688 153 q 700 65 693 100 q 716 1 706 31 l 621 1 l 526 1 q 510 63 516 31 q 499 144 504 96 l 486 289 q 441 409 478 373 q 328 445 405 445 l 294 445 l 294 445 l 294 0 l 294 0 l 197 0 l 98 0 l 98 0 z "},"Ќ":{"ha":743,"x_min":98,"x_max":716,"o":"m 98 0 l 98 957 l 98 957 l 196 957 l 294 957 l 294 957 l 294 593 l 294 593 q 420 624 380 594 q 462 727 460 654 l 463 766 q 515 912 468 867 q 662 957 562 957 l 703 957 l 703 793 l 682 793 q 647 777 659 793 q 634 727 635 760 l 633 700 q 559 542 630 583 q 522 526 544 533 l 522 526 q 590 498 565 515 q 673 316 661 451 l 688 153 q 700 65 693 100 q 716 1 706 31 l 621 1 l 526 1 q 510 63 516 31 q 499 144 504 96 l 486 289 q 441 409 478 373 q 328 445 405 445 l 294 445 l 294 445 l 294 0 l 294 0 l 197 0 l 98 0 l 98 0 m 315 1031 l 397 1246 l 589 1246 l 461 1031 l 315 1031 z "},"У":{"ha":717,"x_min":36,"x_max":678,"o":"m 347 0 l 347 0 l 255 0 l 163 0 l 163 0 l 266 297 l 266 297 l 36 957 l 36 957 l 137 957 l 238 957 l 238 957 l 358 561 l 358 561 l 358 561 l 494 957 l 494 957 l 586 957 l 678 957 l 678 957 l 347 0 z "},"Ў":{"ha":717,"x_min":36,"x_max":678,"o":"m 347 0 l 347 0 l 255 0 l 163 0 l 163 0 l 266 297 l 266 297 l 36 957 l 36 957 l 137 957 l 238 957 l 238 957 l 358 561 l 358 561 l 358 561 l 494 957 l 494 957 l 586 957 l 678 957 l 678 957 l 347 0 m 357 1031 q 212 1080 262 1031 q 163 1223 163 1129 l 292 1223 q 306 1145 292 1168 q 357 1123 321 1123 q 408 1145 393 1123 q 422 1223 422 1168 l 551 1223 q 502 1080 551 1129 q 357 1031 452 1031 z "},"Џ":{"ha":768,"x_min":96,"x_max":675,"o":"m 96 0 l 96 0 l 96 957 l 96 957 l 194 957 l 292 957 l 292 957 l 292 142 l 292 142 l 479 142 l 479 142 l 479 957 l 479 957 l 576 957 l 675 957 l 675 957 l 675 0 l 675 0 l 483 0 l 483 -200 l 287 -200 l 287 0 l 96 0 z "},"А":{"ha":768,"x_min":56,"x_max":719,"o":"m 56 0 l 273 957 l 387 957 l 503 957 l 719 0 l 719 0 l 625 0 l 530 0 l 530 0 l 492 207 l 492 207 l 283 207 l 283 207 l 245 0 l 245 0 l 151 0 l 56 0 l 56 0 m 389 778 l 310 349 l 310 349 l 467 349 l 467 349 l 389 778 l 389 778 l 389 778 z "},"Б":{"ha":743,"x_min":90,"x_max":676,"o":"m 90 0 l 90 957 l 90 957 l 618 957 l 618 957 l 618 886 l 618 814 l 618 814 l 286 814 l 286 814 l 286 591 l 286 591 l 355 591 q 609 533 541 591 q 676 313 676 475 q 608 64 676 128 q 345 0 541 0 l 188 0 l 90 0 m 286 448 l 286 144 l 286 144 l 351 144 q 463 176 435 144 q 490 304 490 208 q 463 417 490 387 q 361 448 436 448 l 286 448 l 286 448 z "},"В":{"ha":743,"x_min":90,"x_max":676,"o":"m 90 0 l 90 957 l 90 957 l 188 957 l 188 957 l 380 957 q 604 905 545 957 q 664 709 664 852 l 664 728 q 600 531 664 582 q 478 489 561 500 l 478 489 q 609 445 566 477 q 676 253 676 394 l 676 273 q 612 56 676 112 q 363 0 548 0 l 188 0 l 188 0 l 90 0 l 90 0 m 286 813 l 286 559 l 286 559 l 326 559 q 441 588 412 559 q 470 703 470 617 l 470 684 q 442 786 470 759 q 336 813 414 813 l 286 813 l 286 813 m 286 416 l 286 144 l 286 144 l 348 144 q 454 174 427 144 q 480 297 480 205 l 480 277 q 453 389 480 363 q 338 416 427 416 l 286 416 l 286 416 z "},"Д":{"ha":844,"x_min":44,"x_max":829,"o":"m 192 957 l 192 957 l 733 957 l 733 957 l 733 142 l 829 142 l 829 -200 l 633 -200 l 633 0 l 240 0 l 240 -200 l 44 -200 l 44 142 l 134 142 q 158 298 146 206 q 192 957 192 576 m 537 814 l 537 814 l 376 814 l 376 814 q 343 298 372 523 q 319 142 332 208 l 319 142 l 537 142 l 537 142 l 537 814 z "},"Ж":{"ha":1116,"x_min":47,"x_max":1102,"o":"m 673 445 l 673 0 l 575 0 l 477 0 l 477 0 l 477 445 l 477 445 l 443 445 q 328 409 365 445 q 281 289 291 373 l 266 144 q 254 63 260 95 q 237 1 248 31 l 142 1 l 47 1 q 64 65 58 31 q 77 153 71 100 l 95 316 q 181 498 110 451 q 247 526 205 515 l 247 526 q 206 542 222 532 q 130 700 134 583 l 130 727 q 116 777 128 760 q 81 793 104 793 l 60 793 l 60 957 l 102 957 q 250 912 203 957 q 302 766 297 867 l 303 727 q 347 623 305 654 q 477 593 387 594 l 477 593 l 477 957 l 477 957 l 574 957 l 673 957 l 673 957 l 673 593 l 673 593 q 803 624 762 594 q 846 727 844 654 l 847 766 q 899 912 852 867 q 1048 957 946 957 l 1089 957 l 1089 793 l 1069 793 q 1033 777 1045 793 q 1019 727 1021 760 l 1019 700 q 943 542 1015 583 q 903 526 926 533 l 903 526 q 968 498 944 514 q 1054 316 1039 451 l 1072 153 q 1084 65 1078 100 q 1102 1 1091 31 l 1007 1 l 912 1 q 895 63 901 31 q 883 144 888 95 l 867 289 q 821 409 858 373 q 706 445 784 445 l 673 445 l 673 445 z "},"З":{"ha":743,"x_min":71,"x_max":671,"o":"m 371 -14 q 137 57 206 -14 q 71 297 68 129 l 71 326 l 265 326 l 265 297 q 290 171 264 213 q 369 130 315 130 q 452 160 429 130 q 475 273 475 191 l 475 300 q 453 399 475 373 q 369 426 431 426 l 281 426 l 281 568 l 378 568 q 456 593 436 568 q 475 693 475 618 l 475 718 q 453 803 475 778 q 378 827 431 827 q 306 790 330 827 q 283 679 282 753 l 283 650 l 89 650 l 89 679 q 157 898 84 825 q 380 971 230 971 q 600 917 528 971 q 671 750 671 863 l 671 726 q 612 526 671 578 q 555 496 590 508 l 555 496 q 608 469 587 485 q 671 281 671 419 l 671 254 q 602 47 671 109 q 371 -14 533 -14 l 371 -14 z "},"И":{"ha":768,"x_min":96,"x_max":675,"o":"m 355 0 l 226 0 l 96 0 l 96 957 l 96 957 l 176 957 l 257 957 l 257 957 l 257 377 q 255 226 257 309 q 250 120 253 142 l 250 120 q 268 227 253 144 q 296 373 282 309 l 416 957 l 545 957 l 675 957 l 675 0 l 675 0 l 595 0 l 514 0 l 514 0 l 514 580 q 516 732 514 649 q 521 837 518 816 l 521 837 q 504 730 518 812 q 475 584 489 648 l 355 0 z "},"Й":{"ha":768,"x_min":96,"x_max":675,"o":"m 355 0 l 226 0 l 96 0 l 96 957 l 96 957 l 176 957 l 257 957 l 257 957 l 257 377 q 255 226 257 309 q 250 120 253 142 l 250 120 q 268 227 253 144 q 296 373 282 309 l 416 957 l 545 957 l 675 957 l 675 0 l 675 0 l 595 0 l 514 0 l 514 0 l 514 580 q 516 732 514 649 q 521 837 518 816 l 521 837 q 504 730 518 812 q 475 584 489 648 l 355 0 m 385 1031 q 241 1080 290 1031 q 191 1223 191 1129 l 320 1223 q 335 1145 320 1168 q 385 1123 349 1123 q 436 1145 421 1123 q 451 1223 451 1168 l 580 1223 q 530 1080 580 1129 q 385 1031 481 1031 z "},"Л":{"ha":769,"x_min":44,"x_max":675,"o":"m 479 814 l 479 814 l 321 814 l 321 814 l 321 243 q 264 46 321 107 q 78 -14 207 -14 l 44 -14 l 44 151 l 62 151 q 111 172 96 151 q 125 243 125 194 l 125 243 l 125 957 l 125 957 l 675 957 l 675 957 l 675 0 l 577 0 l 479 0 l 479 0 l 479 814 z "},"М":{"ha":1025,"x_min":83,"x_max":936,"o":"m 244 0 l 244 0 l 164 0 l 83 0 l 83 0 l 83 957 l 83 957 l 220 957 l 358 957 l 358 957 l 511 224 l 511 224 l 511 224 l 663 957 l 663 957 l 799 957 l 936 957 l 936 957 l 936 0 l 936 0 l 856 0 l 775 0 l 775 0 l 775 804 l 775 804 l 608 0 l 510 0 l 412 0 l 244 807 l 244 807 l 244 0 z "},"Н":{"ha":768,"x_min":96,"x_max":675,"o":"m 96 0 l 96 957 l 96 957 l 194 957 l 292 957 l 292 957 l 292 562 l 292 562 l 479 562 l 479 562 l 479 957 l 479 957 l 576 957 l 675 957 l 675 957 l 675 0 l 675 0 l 577 0 l 479 0 l 479 0 l 479 419 l 479 419 l 292 419 l 292 419 l 292 0 l 292 0 l 195 0 l 96 0 l 96 0 z "},"О":{"ha":768,"x_min":87,"x_max":684,"o":"m 385 -14 q 155 59 222 -14 q 87 311 87 132 l 87 705 q 162 905 87 838 q 385 971 236 971 q 609 905 534 971 q 684 705 684 838 l 684 311 q 616 59 684 132 q 385 -14 549 -14 l 385 -14 m 385 130 q 465 168 443 130 q 488 302 488 205 l 488 696 q 461 794 488 761 q 385 827 435 827 q 309 794 335 827 q 283 696 283 761 l 283 302 q 306 168 283 205 q 385 130 328 130 l 385 130 z "},"П":{"ha":768,"x_min":96,"x_max":675,"o":"m 292 0 l 195 0 l 96 0 l 96 0 l 96 957 l 96 957 l 675 957 l 675 957 l 675 0 l 675 0 l 577 0 l 479 0 l 479 0 l 479 814 l 479 814 l 292 814 l 292 814 l 292 0 l 292 0 z "},"Р":{"ha":717,"x_min":87,"x_max":666,"o":"m 87 0 l 87 957 l 87 957 l 184 957 l 184 957 l 377 957 q 600 892 533 957 q 666 674 666 827 q 599 441 666 501 q 338 381 532 381 l 283 381 l 283 381 l 283 0 l 283 0 l 185 0 l 87 0 l 87 0 m 283 525 l 283 525 l 338 525 q 444 554 417 525 q 470 671 470 583 q 443 783 470 753 q 338 813 415 813 l 283 813 l 283 813 l 283 525 z "},"С":{"ha":717,"x_min":79,"x_max":662,"o":"m 662 326 l 662 297 q 600 57 665 129 q 379 -14 534 -14 q 147 63 214 -14 q 79 330 79 141 l 79 625 q 147 893 79 816 q 379 971 214 971 q 591 899 522 971 q 656 697 656 831 l 656 679 l 656 650 l 461 650 l 461 679 q 442 790 463 753 q 379 827 421 827 q 300 785 324 827 q 275 647 275 743 l 275 352 q 298 178 275 227 q 379 130 321 130 q 447 171 425 130 q 467 297 469 213 l 467 326 l 662 326 z "},"Т":{"ha":692,"x_min":43,"x_max":650,"o":"m 249 0 l 249 814 l 249 814 l 43 814 l 43 814 l 43 886 l 43 957 l 43 957 l 650 957 l 650 957 l 650 886 l 650 814 l 650 814 l 445 814 l 445 814 l 445 0 l 445 0 l 347 0 l 249 0 l 249 0 z "},"Ф":{"ha":983,"x_min":87,"x_max":899,"o":"m 591 957 l 591 957 l 591 861 l 591 861 q 810 790 734 850 q 899 577 899 720 l 899 425 q 809 178 899 260 q 591 98 734 107 l 591 98 l 591 0 l 591 0 l 494 0 l 395 0 l 395 0 l 395 98 l 395 98 q 176 178 254 107 q 87 425 87 260 l 87 577 q 177 791 87 720 q 395 859 254 852 l 395 859 l 395 957 l 395 957 l 493 957 l 591 957 m 703 569 q 667 685 703 652 q 591 715 644 707 l 591 715 l 591 243 l 591 243 q 667 279 644 251 q 703 416 703 317 l 703 416 l 703 569 m 395 715 l 395 715 q 319 685 344 708 q 283 569 283 652 l 283 416 q 319 278 283 317 q 395 242 344 252 l 395 242 l 395 715 z "},"Х":{"ha":768,"x_min":47,"x_max":718,"o":"m 47 0 l 269 497 l 269 497 l 67 957 l 67 957 l 168 957 l 268 957 l 268 957 l 394 641 l 394 641 l 394 641 l 521 957 l 521 957 l 614 957 l 708 957 l 708 957 l 501 488 l 501 488 l 718 0 l 718 0 l 623 0 l 528 0 l 528 0 l 385 336 l 385 336 l 385 336 l 236 0 l 236 0 l 142 0 l 47 0 l 47 0 z "},"Ц":{"ha":768,"x_min":96,"x_max":771,"o":"m 96 0 l 96 0 l 96 957 l 96 957 l 194 957 l 292 957 l 292 957 l 292 142 l 292 142 l 479 142 l 479 142 l 479 957 l 479 957 l 576 957 l 675 957 l 675 957 l 675 142 l 771 142 l 771 -200 l 575 -200 l 575 0 l 96 0 z "},"Ч":{"ha":691,"x_min":86,"x_max":607,"o":"m 345 490 q 384 499 366 490 q 411 521 402 507 l 411 521 l 411 956 l 411 956 l 509 956 l 607 956 l 607 956 l 607 -1 l 607 -1 l 509 -1 l 411 -1 l 411 -1 l 411 404 l 410 404 l 410 404 q 283 369 345 369 q 135 421 184 369 q 86 576 86 473 l 86 956 l 86 956 l 184 956 l 282 956 l 282 956 l 282 569 q 297 509 282 528 q 345 490 312 490 z "},"Ш":{"ha":1151,"x_min":96,"x_max":1057,"o":"m 96 0 l 96 0 l 96 957 l 96 957 l 194 957 l 292 957 l 292 957 l 292 142 l 292 142 l 479 142 l 479 142 l 479 957 l 479 957 l 576 957 l 675 957 l 675 957 l 675 142 l 675 142 l 861 142 l 861 142 l 861 957 l 861 957 l 959 957 l 1057 957 l 1057 957 l 1057 0 l 1057 0 l 96 0 z "},"Щ":{"ha":1151,"x_min":96,"x_max":1154,"o":"m 96 0 l 96 0 l 96 957 l 96 957 l 194 957 l 292 957 l 292 957 l 292 142 l 292 142 l 479 142 l 479 142 l 479 957 l 479 957 l 576 957 l 675 957 l 675 957 l 675 142 l 675 142 l 861 142 l 861 142 l 861 957 l 861 957 l 959 957 l 1057 957 l 1057 957 l 1057 142 l 1154 142 l 1154 -200 l 958 -200 l 958 0 l 96 0 z "},"Ъ":{"ha":901,"x_min":77,"x_max":833,"o":"m 77 957 l 444 957 l 444 957 l 444 591 l 444 591 l 513 591 q 766 533 699 591 q 833 313 833 475 q 766 64 833 128 q 503 0 698 0 l 345 0 l 345 0 l 248 0 l 248 0 l 248 814 l 248 814 l 77 814 l 77 814 l 77 886 l 77 957 l 77 957 m 444 448 l 444 144 l 444 144 l 508 144 q 620 176 592 144 q 648 304 648 208 q 621 417 648 387 q 518 448 593 448 l 444 448 l 444 448 z "},"Ы":{"ha":1101,"x_min":90,"x_max":1021,"o":"m 90 0 l 90 957 l 90 957 l 188 957 l 286 957 l 286 957 l 286 591 l 286 591 l 355 591 q 609 533 541 591 q 676 313 676 475 q 608 64 676 128 q 345 0 541 0 l 188 0 l 188 0 l 90 0 l 90 0 m 286 448 l 286 144 l 286 144 l 351 144 q 463 176 435 144 q 490 304 490 208 q 463 417 490 387 q 361 448 436 448 l 286 448 l 286 448 m 825 0 l 825 957 l 825 957 l 922 957 l 1021 957 l 1021 957 l 1021 0 l 1021 0 l 923 0 l 825 0 l 825 0 z "},"Ь":{"ha":743,"x_min":90,"x_max":676,"o":"m 90 0 l 90 957 l 90 957 l 188 957 l 286 957 l 286 957 l 286 591 l 286 591 l 355 591 q 609 533 541 591 q 676 313 676 475 q 608 64 676 128 q 345 0 541 0 l 188 0 l 188 0 l 90 0 l 90 0 m 286 448 l 286 144 l 286 144 l 351 144 q 463 176 435 144 q 490 304 490 208 q 463 417 490 387 q 361 448 436 448 l 286 448 l 286 448 z "},"Э":{"ha":717,"x_min":79,"x_max":662,"o":"m 79 326 l 274 326 l 274 297 q 295 171 273 213 q 362 130 317 130 q 443 178 420 130 q 466 352 466 227 l 466 419 l 466 419 l 273 419 l 273 562 l 466 562 l 466 562 l 466 647 q 441 785 466 743 q 362 827 417 827 q 299 790 320 827 q 280 679 279 753 l 280 650 l 85 650 l 85 679 l 85 697 q 150 899 85 831 q 362 971 219 971 q 594 893 527 971 q 662 625 662 816 l 662 330 q 594 63 662 141 q 362 -14 527 -14 q 142 57 207 -14 q 79 297 77 129 l 79 326 z "},"Ю":{"ha":1103,"x_min":85,"x_max":1018,"o":"m 85 0 l 85 957 l 85 957 l 182 957 l 281 957 l 281 957 l 281 562 l 281 562 l 422 562 l 422 562 l 422 705 q 496 905 422 838 q 720 971 570 971 q 943 905 869 971 q 1018 705 1018 838 l 1018 311 q 943 67 1018 148 q 720 -14 869 -14 q 496 67 570 -14 q 422 311 422 148 l 422 419 l 422 419 l 281 419 l 281 419 l 281 0 l 281 0 l 183 0 l 85 0 l 85 0 m 720 827 q 640 799 663 827 q 618 696 618 770 l 618 302 q 640 168 618 205 q 720 130 663 130 q 800 168 777 130 q 822 302 822 205 l 822 696 q 800 799 822 770 q 720 827 777 827 l 720 827 z "},"Я":{"ha":720,"x_min":47,"x_max":630,"o":"m 630 0 l 630 957 l 630 957 l 532 957 l 532 957 l 342 957 q 123 900 189 957 q 57 709 57 843 q 123 504 57 557 q 226 463 157 477 l 226 463 l 215 463 q 94 410 135 463 q 58 260 53 357 q 59 144 60 204 q 55 49 58 81 q 47 1 52 17 l 144 1 l 242 1 q 249 48 247 16 q 251 144 251 80 l 251 260 q 278 361 250 332 q 377 391 307 391 l 434 391 l 434 391 l 434 0 l 434 0 l 532 0 l 630 0 l 630 0 m 434 537 l 434 537 l 380 537 q 278 565 304 537 q 253 677 253 593 q 280 785 253 756 q 380 813 307 813 l 434 813 l 434 813 l 434 537 z "},"а":{"ha":614,"x_min":53,"x_max":542,"o":"m 215 -14 q 96 33 139 -14 q 53 162 53 79 l 53 203 q 111 370 53 321 q 313 418 170 418 l 366 418 l 366 418 l 366 500 q 352 556 366 537 q 311 575 338 575 q 260 555 276 575 q 245 494 243 534 l 245 474 l 70 474 l 70 494 q 125 635 68 591 q 306 680 182 680 q 484 630 426 680 q 542 476 542 581 l 542 0 l 542 0 l 542 0 l 372 0 l 372 0 l 372 55 l 372 55 l 364 46 q 215 -14 315 -14 m 366 223 l 366 315 l 366 315 l 343 315 q 255 288 281 315 q 229 197 229 262 l 229 156 q 245 107 229 125 q 290 90 262 90 q 347 123 328 90 q 366 223 366 157 l 366 223 z "},"б":{"ha":591,"x_min":64,"x_max":530,"o":"m 297 -14 q 113 70 161 -14 q 64 382 64 153 l 64 389 q 112 795 65 682 q 281 916 158 909 q 361 933 335 920 q 387 971 387 947 l 507 971 q 447 842 500 887 q 294 791 395 798 q 210 701 233 787 q 198 640 202 676 l 198 640 q 311 680 239 681 q 478 621 427 680 q 530 427 530 561 l 530 239 q 475 45 530 105 q 297 -14 420 -14 m 297 575 q 250 549 262 575 q 239 441 239 523 l 239 254 q 250 123 239 155 q 297 91 262 91 q 344 123 332 91 q 355 254 355 155 l 355 441 q 344 549 355 523 q 297 575 332 575 z "},"в":{"ha":560,"x_min":54,"x_max":509,"o":"m 54 0 l 54 666 l 54 666 l 142 666 l 142 666 l 286 666 q 454 630 410 666 q 499 494 499 594 l 499 504 q 451 368 499 404 q 362 339 422 348 l 362 339 q 458 309 427 332 q 509 178 509 275 l 509 188 q 460 39 509 77 q 273 0 412 0 l 142 0 l 142 0 l 54 0 l 54 0 m 230 561 l 230 391 l 230 391 l 255 391 q 318 410 302 391 q 334 486 334 429 l 334 476 q 318 543 334 526 q 261 561 303 561 l 230 561 l 230 561 m 230 286 l 230 105 l 230 105 l 269 105 q 328 125 313 105 q 343 205 343 145 l 343 195 q 328 269 343 252 q 263 286 313 286 l 230 286 l 230 286 z "},"г":{"ha":571,"x_min":78,"x_max":513,"o":"m 254 0 l 254 0 l 166 0 l 78 0 l 78 0 l 78 666 l 78 666 l 513 666 l 513 615 l 513 564 l 513 564 l 254 564 l 254 564 l 254 0 z "},"д":{"ha":693,"x_min":44,"x_max":669,"o":"m 147 666 l 147 666 l 597 666 l 597 666 l 597 102 l 669 102 l 669 -139 l 493 -139 l 493 0 l 220 0 l 220 -139 l 44 -139 l 44 102 l 104 102 q 121 209 113 146 q 147 666 147 401 m 422 564 l 422 564 l 299 564 l 299 564 q 274 209 294 366 q 256 102 265 146 l 256 102 l 422 102 l 422 102 l 422 564 z "},"е":{"ha":589,"x_min":53,"x_max":544,"o":"m 283 -14 q 107 47 161 -14 q 53 246 53 108 l 53 378 q 108 612 53 544 q 298 680 163 680 q 492 621 441 680 q 544 399 544 562 l 544 302 l 544 302 l 227 302 l 227 302 l 227 281 q 241 128 227 165 q 298 91 255 91 q 356 118 340 91 q 370 207 372 144 l 370 227 l 544 227 l 544 207 q 481 41 546 96 q 283 -14 416 -14 m 370 404 l 370 404 l 370 441 q 355 547 370 519 q 298 575 340 575 q 242 541 257 575 q 227 413 227 507 l 227 404 l 227 404 l 370 404 z "},"ж":{"ha":935,"x_min":35,"x_max":910,"o":"m 561 288 l 561 0 l 473 0 l 385 0 l 385 0 l 385 288 l 385 288 l 351 288 q 277 268 301 288 q 248 201 254 248 l 240 144 q 225 58 233 90 q 209 1 218 26 l 122 1 l 35 1 q 54 66 47 32 q 68 153 62 100 l 77 220 q 144 348 88 315 q 177 361 159 357 l 177 361 l 174 363 q 115 471 118 391 l 115 493 q 104 524 114 514 q 76 534 95 534 l 59 534 l 59 666 l 93 666 q 221 631 181 666 q 264 519 261 597 l 264 492 q 296 431 266 450 q 385 414 323 414 l 385 414 l 385 666 l 385 666 l 473 666 l 561 666 l 561 666 l 561 414 l 561 414 q 651 432 622 415 q 681 492 680 450 l 682 519 q 725 631 684 597 q 854 666 765 666 l 888 666 l 888 534 l 871 534 q 841 524 851 534 q 831 493 831 514 l 830 471 q 770 362 827 391 l 768 361 q 801 347 788 355 q 869 220 857 315 l 877 153 q 891 66 884 100 q 910 1 899 32 l 823 1 l 736 1 q 720 58 727 26 q 705 144 713 90 l 698 201 q 668 268 692 248 q 594 288 644 288 l 561 288 l 561 288 z "},"з":{"ha":564,"x_min":43,"x_max":523,"o":"m 283 -14 q 97 35 152 -14 q 43 198 41 83 l 43 227 l 216 227 l 216 198 q 232 118 216 144 q 281 91 248 91 q 334 111 320 91 q 349 186 349 131 l 349 212 q 335 279 349 262 q 281 295 322 295 l 211 295 l 211 397 l 289 397 q 337 413 326 397 q 349 479 349 429 l 349 503 q 336 560 349 545 q 289 575 323 575 q 245 552 259 575 q 231 481 231 528 l 231 453 l 58 453 l 58 481 q 113 631 55 581 q 290 680 171 680 q 467 646 411 680 q 523 536 523 611 l 523 494 q 468 368 523 406 q 423 346 450 355 l 423 346 q 467 326 448 338 q 523 208 523 290 l 523 163 q 465 28 523 71 q 283 -14 408 -14 l 283 -14 z "},"и":{"ha":640,"x_min":78,"x_max":567,"o":"m 306 0 l 192 0 l 78 0 l 78 666 l 78 666 l 149 666 l 220 666 l 220 666 l 220 351 q 218 223 220 295 q 213 129 216 151 l 213 129 q 231 220 216 149 q 261 347 247 291 l 339 666 l 453 666 l 567 666 l 567 0 l 567 0 l 496 0 l 425 0 l 425 0 l 425 315 q 427 445 425 372 q 432 537 429 517 l 432 537 q 414 446 429 517 q 384 319 398 375 l 306 0 z "},"й":{"ha":640,"x_min":78,"x_max":567,"o":"m 306 0 l 192 0 l 78 0 l 78 666 l 78 666 l 149 666 l 220 666 l 220 666 l 220 351 q 218 223 220 295 q 213 129 216 151 l 213 129 q 231 220 216 149 q 261 347 247 291 l 339 666 l 453 666 l 567 666 l 567 0 l 567 0 l 496 0 l 425 0 l 425 0 l 425 315 q 427 445 425 372 q 432 537 429 517 l 432 537 q 414 446 429 517 q 384 319 398 375 l 306 0 m 322 744 q 181 797 227 744 q 136 959 136 849 l 256 959 q 271 862 256 890 q 322 833 286 833 q 374 862 359 833 q 389 959 389 890 l 509 959 q 463 797 509 849 q 322 744 417 744 z "},"к":{"ha":642,"x_min":80,"x_max":606,"o":"m 80 0 l 80 666 l 80 666 l 168 666 l 256 666 l 256 666 l 256 414 l 256 414 q 346 432 317 414 q 376 492 375 450 l 377 519 q 420 631 380 597 q 549 666 460 666 l 583 666 l 583 534 l 566 534 q 537 524 547 534 q 526 493 527 514 l 526 471 q 466 362 523 391 l 464 361 q 496 347 484 355 q 564 220 553 315 l 572 153 q 587 65 579 100 q 606 1 594 31 l 519 1 l 432 1 q 415 59 422 26 q 401 144 408 91 l 393 201 q 363 268 387 248 q 290 288 340 288 l 256 288 l 256 288 l 256 0 l 256 0 l 168 0 l 80 0 l 80 0 z "},"л":{"ha":644,"x_min":33,"x_max":579,"o":"m 404 564 l 404 564 l 267 564 l 267 564 l 267 224 q 219 42 267 98 q 61 -14 170 -14 l 33 -14 l 33 126 l 43 126 q 94 149 78 126 q 109 224 109 172 l 109 224 l 109 666 l 109 666 l 579 666 l 579 666 l 579 0 l 492 0 l 404 0 l 404 0 l 404 564 z "},"м":{"ha":905,"x_min":71,"x_max":829,"o":"m 231 0 l 231 0 l 151 0 l 71 0 l 71 0 l 71 666 l 71 666 l 206 666 l 342 666 l 342 666 l 450 197 l 450 197 l 450 197 l 558 666 l 558 666 l 694 666 l 829 666 l 829 666 l 829 0 l 829 0 l 749 0 l 669 0 l 669 0 l 669 354 q 670 460 669 386 q 672 541 671 535 q 654 461 671 534 q 630 359 637 388 l 542 0 l 450 0 l 359 0 l 270 357 q 245 460 262 387 q 228 539 229 532 q 230 459 229 534 q 231 353 231 385 l 231 0 z "},"н":{"ha":640,"x_min":78,"x_max":567,"o":"m 78 0 l 78 666 l 78 666 l 165 666 l 254 666 l 254 666 l 254 397 l 254 397 l 391 397 l 391 397 l 391 666 l 391 666 l 479 666 l 567 666 l 567 666 l 567 0 l 567 0 l 479 0 l 391 0 l 391 0 l 391 295 l 391 295 l 254 295 l 254 295 l 254 0 l 254 0 l 166 0 l 78 0 l 78 0 z "},"о":{"ha":614,"x_min":64,"x_max":553,"o":"m 309 -14 q 122 45 179 -14 q 64 239 64 105 l 64 427 q 122 621 64 561 q 309 680 179 680 q 496 621 438 680 q 553 427 553 561 l 553 239 q 496 45 553 105 q 309 -14 438 -14 l 309 -14 m 309 91 q 365 123 351 91 q 379 254 379 155 l 379 441 q 363 545 379 515 q 309 575 347 575 q 254 545 270 575 q 239 441 239 515 l 239 254 q 252 123 239 155 q 309 91 266 91 l 309 91 z "},"п":{"ha":640,"x_min":78,"x_max":567,"o":"m 254 0 l 166 0 l 78 0 l 78 0 l 78 666 l 78 666 l 567 666 l 567 666 l 567 0 l 567 0 l 479 0 l 391 0 l 391 0 l 391 564 l 391 564 l 254 564 l 254 564 l 254 0 l 254 0 z "},"р":{"ha":614,"x_min":64,"x_max":553,"o":"m 64 666 l 64 666 l 152 666 l 240 666 l 240 666 l 240 609 l 240 609 l 243 612 q 394 680 293 680 q 514 628 474 680 q 553 471 553 576 l 553 235 q 517 42 553 98 q 390 -14 480 -14 q 240 50 292 -15 l 240 50 l 240 -263 l 240 -263 l 153 -263 l 64 -263 l 64 -263 l 64 666 m 310 105 q 367 136 353 105 q 381 263 381 167 l 381 430 q 366 532 381 503 q 311 561 350 561 q 257 526 273 561 q 240 410 240 490 l 240 410 l 240 256 l 240 256 q 255 135 241 164 q 310 105 269 105 z "},"с":{"ha":564,"x_min":55,"x_max":515,"o":"m 515 250 l 515 210 q 459 42 517 98 q 285 -14 401 -14 q 109 45 163 -14 q 55 239 55 105 l 55 427 q 109 621 55 561 q 285 680 163 680 q 461 624 406 680 q 515 454 515 570 l 515 446 l 515 426 l 340 426 l 340 446 q 330 534 343 505 q 287 563 317 563 q 242 536 254 563 q 229 440 229 510 l 229 253 q 240 132 229 161 q 285 103 251 103 q 330 128 317 103 q 340 210 343 153 l 340 250 l 515 250 z "},"т":{"ha":564,"x_min":41,"x_max":530,"o":"m 197 0 l 197 564 l 197 564 l 41 564 l 41 564 l 41 615 l 41 666 l 41 666 l 530 666 l 530 666 l 530 615 l 530 564 l 530 564 l 373 564 l 373 564 l 373 0 l 373 0 l 286 0 l 197 0 l 197 0 z "},"у":{"ha":614,"x_min":37,"x_max":583,"o":"m 345 -248 l 345 -248 l 262 -248 l 178 -248 l 178 -248 l 236 -5 l 236 -5 l 37 666 l 37 666 l 124 666 l 212 666 l 212 666 l 311 256 l 311 256 l 311 256 l 414 666 l 414 666 l 498 666 l 583 666 l 583 666 l 345 -248 z "},"ф":{"ha":978,"x_min":64,"x_max":917,"o":"m 403 957 l 403 957 l 490 957 l 578 957 l 578 957 l 578 605 l 578 605 l 585 612 q 745 680 638 680 q 874 628 831 680 q 917 471 917 576 l 917 235 q 877 42 917 98 q 739 -14 837 -14 q 578 47 635 -14 l 578 47 l 578 -263 l 578 -263 l 491 -263 l 403 -263 l 403 -263 l 403 49 l 403 49 q 242 -14 347 -14 q 102 38 139 -14 q 64 235 64 91 l 64 471 q 110 625 64 570 q 235 680 155 680 q 397 612 343 680 l 403 605 l 403 605 l 403 957 m 745 430 l 745 430 q 726 532 745 503 q 660 561 707 561 q 597 526 616 561 q 578 410 578 490 l 578 410 l 578 256 l 578 256 q 595 135 580 164 q 659 105 611 105 q 728 136 711 105 q 745 263 745 167 l 745 263 l 745 430 m 237 263 l 237 263 q 255 140 237 175 q 321 105 274 105 q 386 135 370 105 q 403 256 401 164 l 403 256 l 403 410 l 403 410 q 387 531 403 502 q 321 561 371 561 q 253 535 270 561 q 237 430 237 510 l 237 430 l 237 263 z "},"х":{"ha":614,"x_min":35,"x_max":578,"o":"m 35 0 l 207 344 l 207 344 l 52 666 l 52 666 l 139 666 l 227 666 l 227 666 l 314 467 l 314 467 l 314 467 l 409 666 l 409 666 l 494 666 l 578 666 l 578 666 l 408 349 l 408 349 l 578 0 l 578 0 l 496 0 l 412 0 l 412 0 l 312 215 l 312 215 l 312 215 l 206 0 l 206 0 l 121 0 l 35 0 l 35 0 z "},"ц":{"ha":640,"x_min":78,"x_max":638,"o":"m 78 0 l 78 0 l 78 666 l 78 666 l 165 666 l 254 666 l 254 666 l 254 102 l 254 102 l 391 102 l 391 102 l 391 666 l 391 666 l 479 666 l 567 666 l 567 666 l 567 102 l 638 102 l 638 -139 l 463 -139 l 463 0 l 78 0 z "},"ч":{"ha":608,"x_min":75,"x_max":539,"o":"m 306 374 q 340 380 324 374 q 363 398 356 387 l 363 398 l 363 666 l 363 666 l 451 666 l 539 666 l 539 666 l 539 0 l 539 0 l 452 0 l 363 0 l 363 0 l 363 282 l 363 282 l 363 282 q 254 252 307 252 q 119 299 164 252 q 75 441 75 347 l 75 666 l 75 666 l 162 666 l 250 666 l 250 666 l 250 444 q 263 390 250 406 q 306 374 277 374 z "},"ш":{"ha":954,"x_min":78,"x_max":880,"o":"m 78 0 l 78 0 l 78 666 l 78 666 l 165 666 l 254 666 l 254 666 l 254 102 l 254 102 l 391 102 l 391 102 l 391 666 l 391 666 l 479 666 l 567 666 l 567 666 l 567 102 l 567 102 l 705 102 l 705 102 l 705 666 l 705 666 l 792 666 l 880 666 l 880 666 l 880 0 l 880 0 l 78 0 z "},"щ":{"ha":954,"x_min":78,"x_max":951,"o":"m 78 0 l 78 0 l 78 666 l 78 666 l 165 666 l 254 666 l 254 666 l 254 102 l 254 102 l 391 102 l 391 102 l 391 666 l 391 666 l 479 666 l 567 666 l 567 666 l 567 102 l 567 102 l 705 102 l 705 102 l 705 666 l 705 666 l 792 666 l 880 666 l 880 666 l 880 102 l 951 102 l 951 -139 l 776 -139 l 776 0 l 78 0 z "},"ъ":{"ha":663,"x_min":43,"x_max":602,"o":"m 43 666 l 338 666 l 338 666 l 338 407 l 338 407 l 370 407 q 553 365 505 407 q 602 209 602 323 l 602 221 q 553 45 602 91 q 366 0 505 0 l 250 0 l 250 0 l 162 0 l 162 0 l 162 564 l 162 564 l 43 564 l 43 564 l 43 615 l 43 666 l 43 666 m 338 302 l 338 105 l 338 105 l 370 105 q 423 127 410 105 q 436 215 436 149 l 436 203 q 423 281 436 260 q 374 302 410 302 l 338 302 l 338 302 z "},"ы":{"ha":846,"x_min":64,"x_max":768,"o":"m 64 0 l 64 666 l 64 666 l 152 666 l 240 666 l 240 666 l 240 407 l 240 407 l 273 407 q 455 365 407 407 q 504 209 504 323 l 504 221 q 455 45 504 91 q 268 0 407 0 l 152 0 l 152 0 l 64 0 l 64 0 m 240 302 l 240 105 l 240 105 l 273 105 q 325 127 312 105 q 338 215 338 149 l 338 203 q 326 281 338 260 q 277 302 313 302 l 240 302 l 240 302 m 592 0 l 592 666 l 592 666 l 680 666 l 768 666 l 768 666 l 768 0 l 768 0 l 680 0 l 592 0 l 592 0 z "},"ь":{"ha":565,"x_min":64,"x_max":504,"o":"m 64 0 l 64 666 l 64 666 l 152 666 l 240 666 l 240 666 l 240 407 l 240 407 l 273 407 q 455 365 407 407 q 504 209 504 323 l 504 221 q 455 45 504 91 q 268 0 407 0 l 152 0 l 152 0 l 64 0 l 64 0 m 240 302 l 240 105 l 240 105 l 273 105 q 325 127 312 105 q 338 215 338 149 l 338 203 q 326 281 338 260 q 277 302 313 302 l 240 302 l 240 302 z "},"э":{"ha":564,"x_min":55,"x_max":515,"o":"m 55 250 l 229 250 l 229 210 q 238 118 227 146 q 278 91 249 91 q 327 134 313 91 q 340 282 340 177 l 340 282 l 220 282 l 220 384 l 340 384 l 340 384 l 340 406 q 326 535 340 496 q 278 575 311 575 q 242 543 253 575 q 234 446 231 511 l 234 426 l 60 426 l 60 446 l 60 455 q 111 624 60 570 q 278 680 163 680 q 461 615 408 680 q 515 391 515 550 l 515 273 q 461 51 515 115 q 278 -14 408 -14 q 109 42 165 -14 q 55 210 53 98 l 55 250 z "},"ю":{"ha":932,"x_min":80,"x_max":871,"o":"m 80 0 l 80 666 l 80 666 l 168 666 l 256 666 l 256 666 l 256 397 l 256 397 l 382 397 l 382 397 l 382 427 q 439 621 382 561 q 626 680 496 680 q 813 621 755 680 q 871 427 871 561 l 871 239 q 813 45 871 105 q 626 -14 755 -14 q 439 45 496 -14 q 382 239 382 105 l 382 295 l 382 295 l 256 295 l 256 295 l 256 0 l 256 0 l 168 0 l 80 0 l 80 0 m 626 575 q 570 549 583 575 q 556 441 556 523 l 556 254 q 570 123 556 155 q 626 91 583 91 q 683 123 669 91 q 696 254 696 155 l 696 441 q 683 549 696 523 q 626 575 669 575 l 626 575 z "},"я":{"ha":573,"x_min":35,"x_max":511,"o":"m 511 0 l 511 666 l 511 666 l 423 666 l 423 666 l 271 666 q 105 618 167 666 q 44 488 44 570 l 44 498 q 109 359 44 406 q 201 321 144 334 l 201 321 l 167 321 q 76 285 107 321 q 46 180 44 248 l 47 144 q 46 53 49 85 q 35 1 43 21 l 125 1 l 214 1 q 221 46 219 14 q 223 144 223 79 l 223 180 q 238 249 223 229 q 292 269 254 269 l 335 269 l 335 269 l 335 0 l 335 0 l 422 0 l 511 0 l 511 0 m 335 376 l 335 376 l 300 376 q 234 396 250 376 q 218 475 218 415 l 218 465 q 234 542 218 524 q 300 561 250 561 l 335 561 l 335 561 l 335 376 z "},"ё":{"ha":589,"x_min":53,"x_max":544,"o":"m 283 -14 q 107 47 161 -14 q 53 246 53 108 l 53 378 q 108 612 53 544 q 298 680 163 680 q 492 621 441 680 q 544 399 544 562 l 544 302 l 544 302 l 227 302 l 227 302 l 227 281 q 241 128 227 165 q 298 91 255 91 q 356 118 340 91 q 370 207 372 144 l 370 227 l 544 227 l 544 207 q 481 41 546 96 q 283 -14 416 -14 m 370 404 l 370 404 l 370 441 q 355 547 370 519 q 298 575 340 575 q 242 541 257 575 q 227 413 227 507 l 227 404 l 227 404 l 370 404 m 117 954 l 274 954 l 274 798 l 117 798 l 117 954 m 342 954 l 499 954 l 499 798 l 342 798 l 342 954 z "},"ђ":{"ha":654,"x_min":-10,"x_max":581,"o":"m 92 0 l 92 957 l 92 957 l 179 957 l 267 957 l 267 957 l 267 604 l 267 604 l 267 604 q 431 680 324 680 q 543 636 506 680 q 581 505 581 593 l 581 -69 q 538 -221 581 -178 q 389 -264 496 -264 q 315 -258 349 -264 l 315 -144 l 330 -144 q 389 -129 373 -144 q 405 -69 405 -113 l 405 484 q 390 543 405 525 q 343 562 376 562 q 282 527 299 562 q 267 408 264 492 l 267 408 l 267 0 l 267 0 l 180 0 l 92 0 l 92 0 m -10 768 l -10 870 l 381 870 l 381 768 l -10 768 z "},"ѓ":{"ha":571,"x_min":78,"x_max":513,"o":"m 254 0 l 254 0 l 166 0 l 78 0 l 78 0 l 78 666 l 78 666 l 513 666 l 513 615 l 513 564 l 513 564 l 254 564 l 254 564 l 254 0 m 208 748 l 289 963 l 481 963 l 353 748 l 208 748 z "},"є":{"ha":564,"x_min":55,"x_max":515,"o":"m 515 250 l 515 210 q 461 42 517 98 q 292 -14 405 -14 q 108 51 161 -14 q 55 273 55 115 l 55 391 q 108 615 55 550 q 292 680 161 680 q 459 624 407 680 q 510 455 510 570 l 510 446 l 510 426 l 336 426 l 336 446 q 328 543 339 511 q 292 575 317 575 q 244 535 258 575 q 229 406 229 496 l 229 384 l 229 384 l 349 384 l 349 282 l 229 282 l 229 282 q 243 134 229 177 q 292 91 256 91 q 332 118 321 91 q 340 210 343 146 l 340 250 l 515 250 z "},"ѕ":{"ha":564,"x_min":43,"x_max":523,"o":"m 336 466 l 336 486 q 325 553 338 530 q 281 575 311 575 q 236 559 251 575 q 222 509 222 543 q 242 457 222 479 q 313 414 262 436 q 481 315 439 359 q 523 192 523 271 q 463 37 523 89 q 283 -14 404 -14 q 98 36 155 -14 q 43 193 43 85 l 43 200 l 43 220 l 218 220 l 218 200 q 230 115 216 140 q 283 91 245 91 q 335 111 318 91 q 353 170 353 130 q 330 231 353 207 q 254 279 309 255 q 89 374 130 332 q 48 488 48 416 q 106 632 48 585 q 281 680 164 680 q 458 634 403 680 q 513 490 513 588 l 513 486 l 513 466 l 336 466 z "},"і":{"ha":333,"x_min":80,"x_max":256,"o":"m 81 0 l 81 666 l 81 666 l 168 666 l 256 666 l 256 666 l 256 0 l 256 0 l 169 0 l 81 0 l 81 0 m 80 949 l 256 949 l 256 790 l 80 790 l 80 949 z "},"ї":{"ha":333,"x_min":-28,"x_max":355,"o":"m 76 0 l 76 666 l 76 666 l 163 666 l 252 666 l 252 666 l 252 0 l 252 0 l 164 0 l 76 0 l 76 0 m -28 954 l 130 954 l 130 798 l -28 798 l -28 954 m 197 954 l 355 954 l 355 798 l 197 798 l 197 954 z "},"ј":{"ha":333,"x_min":-6,"x_max":256,"o":"m 79 666 l 79 666 l 167 666 l 255 666 l 255 666 l 255 -83 q 203 -217 255 -170 q 56 -264 152 -264 q -6 -256 29 -264 l -6 -144 l -5 -144 q 62 -125 45 -144 q 79 -50 79 -106 l 79 -50 l 79 666 m 79 949 l 256 949 l 256 790 l 79 790 l 79 949 z "},"љ":{"ha":896,"x_min":33,"x_max":831,"o":"m 392 564 l 392 564 l 267 564 l 267 564 l 267 224 q 219 42 267 98 q 61 -14 170 -14 l 33 -14 l 33 126 l 43 126 q 94 149 78 126 q 109 224 109 172 l 109 224 l 109 666 l 109 666 l 568 666 l 568 666 l 568 407 l 568 407 l 600 407 q 783 365 734 407 q 831 209 831 323 l 831 221 q 783 45 831 91 q 595 0 734 0 l 479 0 l 392 0 l 392 0 l 392 564 m 568 302 l 568 105 l 568 105 l 600 105 q 653 127 640 105 q 666 215 666 149 l 666 203 q 653 281 666 260 q 604 302 640 302 l 568 302 l 568 302 z "},"њ":{"ha":892,"x_min":78,"x_max":831,"o":"m 78 0 l 78 666 l 78 666 l 165 666 l 254 666 l 254 666 l 254 397 l 254 397 l 391 397 l 391 397 l 391 666 l 391 666 l 479 666 l 567 666 l 567 666 l 567 407 l 567 407 l 600 407 q 782 365 734 407 q 831 209 831 323 l 831 221 q 782 45 831 91 q 595 0 734 0 l 479 0 l 391 0 l 391 0 l 391 295 l 391 295 l 254 295 l 254 295 l 254 0 l 254 0 l 166 0 l 78 0 l 78 0 m 567 302 l 567 105 l 567 105 l 600 105 q 652 127 639 105 q 665 215 665 149 l 665 203 q 652 281 665 260 q 604 302 640 302 l 567 302 l 567 302 z "},"ћ":{"ha":654,"x_min":-10,"x_max":581,"o":"m 92 0 l 92 957 l 92 957 l 179 957 l 267 957 l 267 957 l 267 604 l 267 604 l 267 604 q 431 680 324 680 q 543 636 506 680 q 581 505 581 593 l 581 0 l 581 0 l 493 0 l 405 0 l 405 0 l 405 484 q 390 543 405 525 q 343 562 376 562 q 282 527 299 562 q 267 408 264 492 l 267 408 l 267 0 l 267 0 l 180 0 l 92 0 l 92 0 m -10 768 l -10 870 l 381 870 l 381 768 l -10 768 z "},"ќ":{"ha":642,"x_min":80,"x_max":606,"o":"m 80 0 l 80 666 l 80 666 l 168 666 l 256 666 l 256 666 l 256 414 l 256 414 q 346 432 317 414 q 376 492 375 450 l 377 519 q 420 631 380 597 q 549 666 460 666 l 583 666 l 583 534 l 566 534 q 537 524 547 534 q 526 493 527 514 l 526 471 q 466 362 523 391 l 464 361 q 496 347 484 355 q 564 220 553 315 l 572 153 q 587 65 579 100 q 606 1 594 31 l 519 1 l 432 1 q 415 59 422 26 q 401 144 408 91 l 393 201 q 363 268 387 248 q 290 288 340 288 l 256 288 l 256 288 l 256 0 l 256 0 l 168 0 l 80 0 l 80 0 m 249 748 l 330 963 l 523 963 l 395 748 l 249 748 z "},"ў":{"ha":614,"x_min":37,"x_max":583,"o":"m 345 -248 l 345 -248 l 262 -248 l 178 -248 l 178 -248 l 236 -5 l 236 -5 l 37 666 l 37 666 l 124 666 l 212 666 l 212 666 l 311 256 l 311 256 l 311 256 l 414 666 l 414 666 l 498 666 l 583 666 l 583 666 l 345 -248 m 310 744 q 169 797 215 744 q 123 959 123 849 l 243 959 q 258 862 243 890 q 310 833 273 833 q 361 862 347 833 q 376 959 376 890 l 496 959 q 451 797 496 849 q 310 744 405 744 z "},"џ":{"ha":640,"x_min":78,"x_max":567,"o":"m 78 0 l 78 0 l 78 666 l 78 666 l 165 666 l 254 666 l 254 666 l 254 102 l 254 102 l 391 102 l 391 102 l 391 666 l 391 666 l 479 666 l 567 666 l 567 666 l 567 0 l 567 0 l 410 0 l 410 -139 l 234 -139 l 234 0 l 78 0 z "},"Ґ":{"ha":616,"x_min":96,"x_max":562,"o":"m 292 0 l 292 0 l 195 0 l 96 0 l 96 0 l 96 957 l 96 957 l 454 957 l 454 957 l 454 1148 l 562 1148 l 562 814 l 292 814 l 292 814 l 292 0 z "},"ґ":{"ha":542,"x_min":78,"x_max":490,"o":"m 254 0 l 254 0 l 166 0 l 78 0 l 78 0 l 78 666 l 78 666 l 401 666 l 401 666 l 401 799 l 490 799 l 490 564 l 254 564 l 254 564 l 254 0 z "},"–":{"ha":666,"x_min":54,"x_max":619,"o":"m 54 394 l 619 394 l 619 278 l 54 278 l 54 394 z "},"—":{"ha":922,"x_min":64,"x_max":860,"o":"m 64 394 l 860 394 l 860 278 l 64 278 l 64 394 z "},"‘":{"ha":307,"x_min":50,"x_max":260,"o":"m 260 957 l 222 646 l 50 646 l 140 957 l 260 957 z "},"’":{"ha":307,"x_min":60,"x_max":271,"o":"m 60 646 l 98 957 l 271 957 l 180 646 l 60 646 z "},"‚":{"ha":307,"x_min":60,"x_max":271,"o":"m 60 -128 l 98 182 l 271 182 l 180 -128 l 60 -128 z "},"“":{"ha":538,"x_min":47,"x_max":485,"o":"m 258 957 l 220 646 l 47 646 l 137 957 l 258 957 m 485 957 l 447 646 l 274 646 l 364 957 l 485 957 z "},"”":{"ha":538,"x_min":57,"x_max":495,"o":"m 57 646 l 95 957 l 268 957 l 178 646 l 57 646 m 284 646 l 322 957 l 495 957 l 405 646 l 284 646 z "},"„":{"ha":538,"x_min":57,"x_max":495,"o":"m 57 -128 l 95 182 l 268 182 l 178 -128 l 57 -128 m 284 -128 l 322 182 l 495 182 l 405 -128 l 284 -128 z "},"†":{"ha":666,"x_min":96,"x_max":569,"o":"m 96 765 l 262 765 l 262 765 l 262 957 l 403 957 l 403 765 l 403 765 l 569 765 l 569 631 l 403 631 l 403 631 l 403 0 l 262 0 l 262 631 l 262 631 l 96 631 l 96 765 z "},"‡":{"ha":666,"x_min":96,"x_max":570,"o":"m 96 766 l 262 766 l 262 766 l 262 957 l 404 957 l 404 766 l 404 766 l 570 766 l 570 631 l 404 631 l 404 631 l 404 326 l 404 326 l 570 326 l 570 190 l 404 190 l 404 190 l 404 0 l 262 0 l 262 190 l 262 190 l 96 190 l 96 326 l 262 326 l 262 326 l 262 631 l 262 631 l 96 631 l 96 766 z "},"•":{"ha":692,"x_min":95,"x_max":597,"o":"m 346 748 q 524 675 451 748 q 597 497 597 602 q 524 319 597 392 q 346 246 451 246 q 168 319 241 246 q 95 497 95 392 q 168 675 95 602 q 346 748 241 748 z "},"…":{"ha":922,"x_min":77,"x_max":848,"o":"m 77 170 l 237 170 l 237 0 l 77 0 l 77 170 m 382 170 l 542 170 l 542 0 l 382 0 l 382 170 m 688 170 l 848 170 l 848 0 l 688 0 l 688 170 z "},"‰":{"ha":1383,"x_min":79,"x_max":1314,"o":"m 239 452 q 112 491 146 452 q 79 637 79 530 l 79 820 q 116 938 79 902 q 239 975 154 975 l 239 975 q 362 938 324 975 q 399 820 399 902 l 399 637 q 366 491 399 530 q 239 452 332 452 l 239 452 m 239 892 q 202 876 212 892 q 192 814 192 859 l 192 631 q 201 551 192 570 q 239 532 210 532 l 239 532 q 277 551 268 532 q 286 631 286 570 l 286 814 q 277 878 286 863 q 239 892 268 892 l 239 892 m 217 -47 l 667 985 l 766 985 l 316 -47 l 217 -47 m 743 -9 q 617 30 650 -9 q 583 176 583 68 l 583 358 q 621 476 583 440 q 743 513 659 513 l 743 513 q 866 476 829 513 q 904 358 904 440 l 904 176 q 870 30 904 68 q 743 -9 836 -9 l 743 -9 m 743 431 q 706 414 716 431 q 696 352 696 397 l 696 170 q 705 89 696 108 q 743 70 714 70 l 743 70 q 782 89 772 70 q 791 170 791 108 l 791 352 q 782 416 791 401 q 743 431 772 431 l 743 431 m 1153 -9 q 1026 30 1060 -9 q 993 176 993 68 l 993 358 q 1030 476 993 440 q 1153 513 1068 513 l 1153 513 q 1276 476 1238 513 q 1314 358 1314 440 l 1314 176 q 1280 30 1314 68 q 1153 -9 1246 -9 l 1153 -9 m 1153 431 q 1116 414 1126 431 q 1106 352 1106 397 l 1106 170 q 1115 89 1106 108 q 1153 70 1124 70 l 1153 70 q 1191 89 1182 70 q 1200 170 1200 108 l 1200 352 q 1191 416 1200 401 q 1153 431 1182 431 l 1153 431 z "},"‹":{"ha":333,"x_min":47,"x_max":304,"o":"m 304 586 l 203 335 l 203 335 l 304 83 l 166 83 l 47 335 l 47 335 l 162 586 l 304 586 z "},"›":{"ha":333,"x_min":47,"x_max":304,"o":"m 47 83 l 149 334 l 149 334 l 47 586 l 185 586 l 304 334 l 304 334 l 189 83 l 47 83 z "},"№":{"ha":1221,"x_min":96,"x_max":1154,"o":"m 257 0 l 257 0 l 177 0 l 96 0 l 96 0 l 96 957 l 96 957 l 226 957 l 355 957 l 355 957 l 545 157 l 545 157 l 545 157 l 545 957 l 545 957 l 625 957 l 705 957 l 705 957 l 705 0 l 577 0 l 448 0 l 257 808 l 257 808 l 257 808 l 257 0 m 979 255 q 844 290 886 255 q 803 405 803 326 l 803 552 q 844 667 803 632 q 979 703 886 703 q 1113 667 1072 703 q 1154 552 1154 632 l 1154 405 q 1117 287 1154 319 q 979 255 1079 255 l 979 255 m 979 345 q 1015 360 1005 345 q 1025 415 1025 376 l 1025 562 q 1014 603 1025 590 q 979 616 1003 616 q 945 603 956 616 q 934 562 934 589 l 934 415 q 945 362 934 378 q 979 345 956 345 l 979 345 m 829 159 l 1128 159 l 1128 60 l 829 60 l 829 159 z "},"™":{"ha":845,"x_min":43,"x_max":721,"o":"m 43 941 l 309 941 l 309 881 l 206 881 l 206 530 l 146 530 l 146 881 l 43 881 l 43 941 m 352 530 l 352 941 l 460 941 l 536 612 l 612 941 l 721 941 l 721 530 l 661 530 l 661 909 l 573 530 l 500 530 l 412 909 l 412 530 l 352 530 z "},"∙":{"ha":307,"x_min":70,"x_max":246,"o":"m 70 547 l 246 547 l 246 371 l 70 371 l 70 547 z "},"":{"ha":666,"x_min":247,"x_max":419,"o":"m 247 1202 l 419 1202 l 419 1042 l 247 1042 l 247 1202 z "},"":{"ha":666,"x_min":147,"x_max":536,"o":"m 341 1031 q 197 1080 246 1031 q 147 1223 147 1129 l 276 1223 q 291 1145 276 1168 q 341 1123 305 1123 q 392 1145 377 1123 q 407 1223 407 1168 l 536 1223 q 486 1080 536 1129 q 341 1031 437 1031 z "},"":{"ha":666,"x_min":115,"x_max":561,"o":"m 115 1162 l 561 1162 l 561 1042 l 115 1042 l 115 1162 z "},"":{"ha":666,"x_min":116,"x_max":709,"o":"m 116 1031 l 235 1214 l 437 1214 l 258 1031 l 116 1031 m 389 1031 l 508 1214 l 709 1214 l 531 1031 l 389 1031 z "},"":{"ha":666,"x_min":391,"x_max":610,"o":"m 391 -129 q 444 -19 391 -68 q 581 49 496 30 l 589 9 q 529 -30 551 -3 q 507 -94 507 -58 q 526 -134 507 -119 q 576 -150 545 -150 q 610 -149 607 -150 l 610 -250 q 581 -252 597 -251 q 551 -252 564 -252 q 433 -220 476 -252 q 391 -129 391 -187 z "},"":{"ha":666,"x_min":210,"x_max":452,"o":"m 210 -290 l 325 -90 l 452 -90 l 382 -290 l 210 -290 z "},"":{"ha":666,"x_min":205,"x_max":489,"o":"m 347 1034 q 247 1075 288 1034 q 205 1175 205 1116 q 247 1276 205 1235 q 347 1317 288 1317 q 448 1276 407 1317 q 489 1175 489 1235 q 448 1075 489 1116 q 347 1034 407 1034 l 347 1034 m 347 1112 q 393 1130 374 1112 q 412 1175 412 1149 q 393 1220 412 1202 q 347 1239 374 1239 q 301 1220 320 1239 q 283 1175 283 1202 q 301 1130 283 1149 q 347 1112 320 1112 l 347 1112 z "},"":{"ha":666,"x_min":108,"x_max":566,"o":"m 237 1031 l 108 1213 l 256 1213 l 335 1098 l 335 1098 l 418 1213 l 566 1213 l 437 1031 l 337 1031 l 237 1031 z "},"":{"ha":666,"x_min":129,"x_max":552,"o":"m 129 1056 q 148 1184 127 1147 q 219 1221 168 1221 q 279 1213 248 1221 q 359 1187 310 1206 q 394 1176 373 1182 q 420 1169 416 1169 q 442 1184 433 1169 q 451 1221 451 1199 l 552 1221 q 534 1090 552 1125 q 465 1056 515 1056 q 406 1063 437 1056 q 322 1090 374 1071 q 264 1107 274 1107 q 240 1092 250 1107 q 230 1056 230 1078 l 129 1056 z "},"":{"ha":666,"x_min":123,"x_max":540,"o":"m 123 1189 l 277 1189 l 277 1035 l 123 1035 l 123 1189 m 385 1189 l 540 1189 l 540 1035 l 385 1035 l 385 1189 z "},"":{"ha":666,"x_min":108,"x_max":566,"o":"m 437 1213 l 566 1031 l 418 1031 l 339 1147 l 339 1147 l 256 1031 l 108 1031 l 237 1213 l 337 1213 l 437 1213 z "},"":{"ha":666,"x_min":137,"x_max":457,"o":"m 311 1031 l 137 1214 l 342 1214 l 457 1031 l 311 1031 z "},"":{"ha":666,"x_min":224,"x_max":545,"o":"m 224 1031 l 343 1214 l 545 1214 l 366 1031 l 224 1031 z "}}}
